<svg xmlns="http://www.w3.org/2000/svg" width="125.553" height="131.191" viewBox="0 0 125.553 131.191">
  <g id="Grupo_9166" data-name="Grupo 9166" transform="translate(-182 -2539.402)">
    <path id="Trazado_2912" data-name="Trazado 2912" d="M244.7,2638.33l61.9-19.581a62.778,62.778,0,1,0-121.028,9.986Zm0,0" fill="#5fc6ff"/>
    <path id="Trazado_2913" data-name="Trazado 2913" d="M209.3,2556.355a1.922,1.922,0,0,1-1.922-1.922v-13.109a1.922,1.922,0,0,1,3.844,0v13.109a1.922,1.922,0,0,1-1.922,1.922Zm0,0" fill="#d4d8d8"/>
    <path id="Trazado_2914" data-name="Trazado 2914" d="M209.3,2549.661a1.921,1.921,0,0,1-1.922-1.922v6.694a1.922,1.922,0,0,0,3.844,0v-6.694a1.921,1.921,0,0,1-1.922,1.922Zm0,0" fill="#9fa2a2"/>
    <path id="Trazado_2915" data-name="Trazado 2915" d="M213.245,2547.65h-7.887a1.922,1.922,0,0,1,0-3.843h7.887a1.922,1.922,0,1,1,0,3.843Zm0,0" fill="#d4d8d8"/>
    <rect id="Rectángulo_3493" data-name="Rectángulo 3493" width="22.428" height="18.984" transform="translate(198.361 2575.407)" fill="#ffc82e"/>
    <rect id="Rectángulo_3494" data-name="Rectángulo 3494" width="7.476" height="18.984" transform="translate(198.361 2575.407)" fill="#f7b126"/>
    <path id="Trazado_2916" data-name="Trazado 2916" d="M196.5,2647.94v-13.953h-8.8a62.818,62.818,0,0,0,8.8,13.953Zm0,0" fill="#ffc82e"/>
    <path id="Trazado_2917" data-name="Trazado 2917" d="M188.021,2634.67H196.5v-6.207H185.479a62.351,62.351,0,0,0,2.542,6.207Zm0,0" fill="#dd2a44"/>
    <rect id="Rectángulo_3495" data-name="Rectángulo 3495" width="9.231" height="13.901" transform="translate(195.73 2620.769)" fill="#4f2e17"/>
    <rect id="Rectángulo_3496" data-name="Rectángulo 3496" width="9.231" height="13.901" transform="translate(204.961 2620.769)" fill="#5e3a21"/>
    <rect id="Rectángulo_3497" data-name="Rectángulo 3497" width="9.231" height="13.901" transform="translate(214.192 2620.769)" fill="#6d472e"/>
    <rect id="Rectángulo_3498" data-name="Rectángulo 3498" width="9.231" height="16.892" transform="translate(195.73 2599.011)" fill="#f7b126"/>
    <rect id="Rectángulo_3499" data-name="Rectángulo 3499" width="9.231" height="16.892" transform="translate(204.961 2599.011)" fill="#ffc82e"/>
    <rect id="Rectángulo_3500" data-name="Rectángulo 3500" width="9.231" height="16.892" transform="translate(214.192 2599.011)" fill="#ffe266"/>
    <path id="Trazado_2918" data-name="Trazado 2918" d="M202.1,2580.8a3.738,3.738,0,0,0-3.738,3.738v9.857h7.476v-9.857a3.737,3.737,0,0,0-3.738-3.738Zm0,0" fill="#4f2e17"/>
    <path id="Trazado_2919" data-name="Trazado 2919" d="M209.576,2580.8a3.738,3.738,0,0,0-3.739,3.738v9.857h7.476v-9.857a3.737,3.737,0,0,0-3.737-3.738Zm0,0" fill="#5e3a21"/>
    <path id="Trazado_2920" data-name="Trazado 2920" d="M217.052,2580.8a3.738,3.738,0,0,0-3.739,3.738v9.857h7.477v-9.857a3.738,3.738,0,0,0-3.738-3.738Zm0,0" fill="#6d472e"/>
    <path id="Trazado_2921" data-name="Trazado 2921" d="M195.181,2599.011l.989-3.878a2.191,2.191,0,0,1,2.122-1.65h22.567a2.19,2.19,0,0,1,2.123,1.65l.988,3.878Zm0,0" fill="#d4d8d8"/>
    <path id="Trazado_2922" data-name="Trazado 2922" d="M206.749,2593.483h-8.457a2.188,2.188,0,0,0-2.122,1.65l-.988,3.878h9.481l.663-3.878c.166-.972.752-1.65,1.423-1.65Zm0,0" fill="#b7b7b7"/>
    <path id="Trazado_2923" data-name="Trazado 2923" d="M209.3,2555.76a14.12,14.12,0,0,0-14.121,14.119h28.242A14.12,14.12,0,0,0,209.3,2555.76Zm0,0" fill="#dd2a44"/>
    <path id="Trazado_2924" data-name="Trazado 2924" d="M219.4,2560.012a4.275,4.275,0,0,1-4.188,3.385H203.394a4.275,4.275,0,0,1-4.188-3.385,14.068,14.068,0,0,0-4.024,9.867h28.241a14.069,14.069,0,0,0-4.025-9.867Zm0,0" fill="#cc1f41"/>
    <path id="Trazado_2925" data-name="Trazado 2925" d="M209.381,2555.76c-3.964,0-7.177,6.322-7.177,14.119h14.354c0-7.8-3.214-14.119-7.177-14.119Zm0,0" fill="#f4456f"/>
    <path id="Trazado_2926" data-name="Trazado 2926" d="M215.21,2563.4H203.394c-.131,0-.259,0-.386-.015a25.7,25.7,0,0,0-.8,6.5h14.354a25.585,25.585,0,0,0-.812-6.518,4.262,4.262,0,0,1-.536.036Zm0,0" fill="#dd2a44"/>
    <path id="Trazado_2927" data-name="Trazado 2927" d="M195.73,2647a63.206,63.206,0,0,0,7.2,7.611h21.584v-20.62H195.73Zm0,0" fill="#ffc82e"/>
    <path id="Trazado_2928" data-name="Trazado 2928" d="M195.73,2633.987V2647a63.206,63.206,0,0,0,7.2,7.611h1.841v-20.62Zm0,0" fill="#f7b126"/>
    <path id="Trazado_2929" data-name="Trazado 2929" d="M200.344,2642.807a4.725,4.725,0,0,0-4.565,4.25,63,63,0,0,0,7.151,7.55h2.031v-6.867a4.784,4.784,0,0,0-4.617-4.933Zm0,0" fill="#4f2e17"/>
    <path id="Trazado_2930" data-name="Trazado 2930" d="M209.576,2642.807a4.783,4.783,0,0,0-4.615,4.933v6.867h9.231v-6.867a4.784,4.784,0,0,0-4.616-4.933Zm0,0" fill="#5e3a21"/>
    <path id="Trazado_2931" data-name="Trazado 2931" d="M218.806,2642.807a4.782,4.782,0,0,0-4.614,4.933v6.867h9.231v-6.867a4.785,4.785,0,0,0-4.617-4.933Zm0,0" fill="#6d472e"/>
    <path id="Trazado_2932" data-name="Trazado 2932" d="M226.574,2653.845h-24.48a63.177,63.177,0,0,0,6.863,5.528h18.628v-4.517a1.01,1.01,0,0,0-1.011-1.011Zm0,0" fill="#bf6121"/>
    <path id="Trazado_2933" data-name="Trazado 2933" d="M228.97,2659.373H208.957a62.7,62.7,0,0,0,9.671,5.528h11.354v-4.517a1.012,1.012,0,0,0-1.012-1.011Zm0,0" fill="#d87a3a"/>
    <path id="Trazado_2934" data-name="Trazado 2934" d="M231.234,2664.9H218.628a62.38,62.38,0,0,0,13.617,4.44v-3.43a1.012,1.012,0,0,0-1.011-1.01Zm0,0" fill="#ed9254"/>
    <path id="Trazado_2935" data-name="Trazado 2935" d="M270.388,2604.723l-46.965,28.556v33.585a62.835,62.835,0,0,0,81.186-40.005c.118-.373.231-.745.342-1.116v0Zm0,0" fill="#ffc82e"/>
    <path id="Trazado_2936" data-name="Trazado 2936" d="M271.25,2664.75a62.618,62.618,0,0,0,11.341-6.826v-45.781l-11.939-7.259-.264,1.12s2.239,2.887,0,5.124v13.223a1.563,1.563,0,0,1,.862,1.821v5.528a4.035,4.035,0,0,1,0,6.165Zm0,0" fill="#f7b126"/>
    <path id="Trazado_2937" data-name="Trazado 2937" d="M240.213,2623.07l-16.79,10.209v33.585a62.416,62.416,0,0,0,16.79,3.562v-32.352c-6.426-6.425,0-13.723,0-13.723Zm0,0" fill="#f7b126"/>
    <path id="Trazado_2938" data-name="Trazado 2938" d="M273.685,2614.426a4.688,4.688,0,1,1-6.631,0,4.686,4.686,0,0,1,6.631,0Zm0,0" fill="#6d472e"/>
    <path id="Trazado_2939" data-name="Trazado 2939" d="M260.647,2647.583l-.032,20.994a62.475,62.475,0,0,0,19.59-8.934V2647.6a9.779,9.779,0,0,0-19.558-.014Zm0,0" fill="#6d472e"/>
    <path id="Trazado_2940" data-name="Trazado 2940" d="M272.24,2647.583l.025,16.683a62.725,62.725,0,0,0,7.94-4.623V2647.6a9.776,9.776,0,0,0-13.761-8.93,9.776,9.776,0,0,1,5.8,8.916Zm0,0" fill="#4f2e17"/>
    <path id="Trazado_2941" data-name="Trazado 2941" d="M270.388,2624.351A6.612,6.612,0,1,1,277,2617.74a6.619,6.619,0,0,1-6.611,6.611Zm0-9.379a2.768,2.768,0,1,0,2.767,2.768,2.772,2.772,0,0,0-2.767-2.768Zm0,0" fill="#e8eaea"/>
    <path id="Trazado_2942" data-name="Trazado 2942" d="M282.591,2629.462a2.562,2.562,0,0,1-2.562-2.562v-15.137a2.562,2.562,0,1,1,5.124,0V2626.9a2.561,2.561,0,0,1-2.562,2.562Zm0,0" fill="#d4d8d8"/>
    <path id="Trazado_2943" data-name="Trazado 2943" d="M258.185,2629.462a2.562,2.562,0,0,1-2.563-2.562v-15.137a2.563,2.563,0,1,1,5.125,0V2626.9a2.562,2.562,0,0,1-2.562,2.562Zm0,0" fill="#d4d8d8"/>
    <path id="Trazado_2944" data-name="Trazado 2944" d="M282.591,2609.2a2.563,2.563,0,0,0-2.562,2.563v9.6a2.562,2.562,0,0,1,5.124,0v-9.6a2.562,2.562,0,0,0-2.562-2.563Zm0,0" fill="#c7c9c9"/>
    <path id="Trazado_2945" data-name="Trazado 2945" d="M258.185,2609.2a2.563,2.563,0,0,0-2.563,2.563v9.6a2.563,2.563,0,0,1,5.125,0v-9.6a2.563,2.563,0,0,0-2.562-2.563Zm0,0" fill="#c7c9c9"/>
    <path id="Trazado_2946" data-name="Trazado 2946" d="M233.49,2643.346v12.144a1.953,1.953,0,0,0,1.953,1.953H242.8a1.953,1.953,0,0,0,1.952-1.953v-12.144Zm0,0" fill="#6d472e"/>
    <path id="Trazado_2947" data-name="Trazado 2947" d="M239.122,2655.49v-12.144H233.49v12.144a1.953,1.953,0,0,0,1.953,1.953h5.633a1.953,1.953,0,0,1-1.954-1.953Zm0,0" fill="#4f2e17"/>
    <path id="Trazado_2948" data-name="Trazado 2948" d="M247.467,2640.838a2.765,2.765,0,0,0-2.764-2.764H233.542a2.764,2.764,0,0,0,0,5.528H244.7a2.764,2.764,0,0,0,2.764-2.764Zm0,0" fill="#e8eaea"/>
    <path id="Trazado_2949" data-name="Trazado 2949" d="M237.483,2640.838a2.764,2.764,0,0,1,2.764-2.764h-6.7a2.764,2.764,0,0,0,0,5.528h6.7a2.763,2.763,0,0,1-2.764-2.764Zm0,0" fill="#d4d8d8"/>
    <path id="Trazado_2950" data-name="Trazado 2950" d="M279.827,2630.828V2659.9a62.884,62.884,0,0,0,5.529-4.192v-24.884h-5.529Zm0,0" fill="#d4d8d8"/>
    <path id="Trazado_2951" data-name="Trazado 2951" d="M255.419,2630.827v38.864q2.809-.48,5.53-1.2v-37.658h-5.53Zm0,0" fill="#d4d8d8"/>
    <path id="Trazado_2952" data-name="Trazado 2952" d="M285.329,2630.828h-5.5v9.484a2.736,2.736,0,0,1,2.737-2.736,2.792,2.792,0,0,1,2.792,2.79v-9.539Zm0,0" fill="#c7c9c9"/>
    <path id="Trazado_2953" data-name="Trazado 2953" d="M255.446,2630.828h-.027v9.54a2.791,2.791,0,0,1,2.792-2.791,2.737,2.737,0,0,1,2.738,2.736v-9.484Zm0,0" fill="#c7c9c9"/>
    <path id="Trazado_2954" data-name="Trazado 2954" d="M285.329,2626.172H255.446a2.764,2.764,0,0,0,0,5.528h29.883a2.764,2.764,0,1,0,0-5.528Zm0,0" fill="#e8eaea"/>
    <path id="Trazado_2955" data-name="Trazado 2955" d="M268.486,2628.935a2.763,2.763,0,0,1,2.764-2.763h-15.8a2.763,2.763,0,0,0,0,5.527h15.8a2.763,2.763,0,0,1-2.764-2.764Zm0,0" fill="#d4d8d8"/>
    <path id="Trazado_2956" data-name="Trazado 2956" d="M223.423,2630.827H193.945a1.922,1.922,0,0,0,0,3.843h29.478Zm0,0" fill="#e8eaea"/>
    <path id="Trazado_2957" data-name="Trazado 2957" d="M202.849,2632.748a1.921,1.921,0,0,1,1.922-1.921H193.945a1.922,1.922,0,0,0,0,3.843h10.826a1.923,1.923,0,0,1-1.922-1.922Zm0,0" fill="#d4d8d8"/>
    <path id="Trazado_2958" data-name="Trazado 2958" d="M223.421,2630.827H193.945a1.922,1.922,0,0,1,0-3.844h29.476a1.922,1.922,0,1,1,0,3.844Zm0,0" fill="#bf6121"/>
    <path id="Trazado_2959" data-name="Trazado 2959" d="M202.849,2628.905a1.921,1.921,0,0,1,1.922-1.922H193.945a1.922,1.922,0,0,0,0,3.844h10.826a1.923,1.923,0,0,1-1.922-1.922Zm0,0" fill="#aa4f11"/>
    <path id="Trazado_2960" data-name="Trazado 2960" d="M227.251,2619.915l-3.828-4.4H195.73l-3.83,4.4a1.089,1.089,0,0,0,.822,1.8h33.709a1.089,1.089,0,0,0,.82-1.8Zm0,0" fill="#dd2a44"/>
    <path id="Trazado_2961" data-name="Trazado 2961" d="M204.966,2615.512H195.73l-3.83,4.4a1.089,1.089,0,0,0,.822,1.8H203c-.611,0-.938-1.1-.538-1.8Zm0,0" fill="#cc1f41"/>
    <path id="Trazado_2962" data-name="Trazado 2962" d="M270.388,2600.4a2.306,2.306,0,0,1-2.306-2.308v-15.735a2.306,2.306,0,0,1,4.612,0v15.735a2.306,2.306,0,0,1-2.306,2.308Zm0,0" fill="#d4d8d8"/>
    <path id="Trazado_2963" data-name="Trazado 2963" d="M270.388,2593.673a2.306,2.306,0,0,1-2.306-2.307v6.725a2.307,2.307,0,1,0,4.613,0v-6.725a2.309,2.309,0,0,1-2.307,2.307Zm0,0" fill="#c7c9c9"/>
    <path id="Trazado_2964" data-name="Trazado 2964" d="M275.121,2589.949h-9.466a2.307,2.307,0,1,1,0-4.613h9.466a2.307,2.307,0,0,1,0,4.613Zm0,0" fill="#d4d8d8"/>
    <path id="Trazado_2965" data-name="Trazado 2965" d="M286.505,2606.857v-7.583a2.764,2.764,0,0,0-5.529,0v4.222Zm0,0" fill="#d4d8d8"/>
    <path id="Trazado_2966" data-name="Trazado 2966" d="M301.383,2615.9v-7.581a2.764,2.764,0,0,0-5.528,0v4.219Zm0,0" fill="#d4d8d8"/>
    <path id="Trazado_2967" data-name="Trazado 2967" d="M259.8,2603.5v-4.222a2.764,2.764,0,0,0-5.528,0v7.584Zm0,0" fill="#d4d8d8"/>
    <path id="Trazado_2968" data-name="Trazado 2968" d="M244.921,2612.542v-4.219a2.764,2.764,0,0,0-5.528,0v7.581Zm0,0" fill="#d4d8d8"/>
    <path id="Trazado_2969" data-name="Trazado 2969" d="M228.95,2622.884v-4.217a2.763,2.763,0,0,0-5.527,0v7.578Zm0,0" fill="#c7c9c9"/>
    <path id="Trazado_2970" data-name="Trazado 2970" d="M304.623,2626.819a62.233,62.233,0,0,0,2.024-8.34l-34.135-20.755a4.091,4.091,0,0,0-4.249,0l-43.885,26.683a1.988,1.988,0,0,0-.955,1.7v8.453L270.388,2606Zm0,0" fill="#e8eaea"/>
    <path id="Trazado_2971" data-name="Trazado 2971" d="M240.213,2624.351c-5.747-2.592-3.234-7.6-3.234-7.6l-12.6,7.66a1.991,1.991,0,0,0-.955,1.7v8.453Zm0,0" fill="#d4d8d8"/>
    <path id="Trazado_2972" data-name="Trazado 2972" d="M223.423,2601.84H195.73a1.922,1.922,0,1,1,0-3.843h27.693a1.922,1.922,0,0,1,0,3.843Zm0,0" fill="#e8eaea"/>
    <path id="Trazado_2973" data-name="Trazado 2973" d="M203.039,2599.919a1.921,1.921,0,0,1,1.922-1.922H195.73a1.922,1.922,0,1,0,0,3.843h9.231a1.92,1.92,0,0,1-1.922-1.921Zm0,0" fill="#d4d8d8"/>
    <path id="Trazado_2974" data-name="Trazado 2974" d="M212.732,2554.317a1.922,1.922,0,0,0-1.922-1.922h-2.859a1.922,1.922,0,0,0,0,3.844h2.859a1.923,1.923,0,0,0,1.922-1.922Zm0,0" fill="#e8eaea"/>
    <path id="Trazado_2975" data-name="Trazado 2975" d="M195.181,2569.879l.989,3.879a2.19,2.19,0,0,0,2.122,1.649h22.567a2.19,2.19,0,0,0,2.122-1.649l.989-3.879Zm0,0" fill="#d4d8d8"/>
    <path id="Trazado_2976" data-name="Trazado 2976" d="M203.921,2573.758l-.989-3.879h-7.751l.989,3.879a2.19,2.19,0,0,0,2.122,1.649h7.751a2.19,2.19,0,0,1-2.122-1.649Zm0,0" fill="#b7b7b7"/>
    <path id="Trazado_2977" data-name="Trazado 2977" d="M223.423,2567.049H195.73a1.922,1.922,0,1,0,0,3.843h27.693a1.922,1.922,0,0,0,0-3.843Zm0,0" fill="#e8eaea"/>
    <path id="Trazado_2978" data-name="Trazado 2978" d="M201.284,2568.971a1.921,1.921,0,0,1,1.922-1.922H195.73a1.922,1.922,0,1,0,0,3.843h7.476a1.92,1.92,0,0,1-1.922-1.921Zm0,0" fill="#d4d8d8"/>
    <path id="Trazado_2979" data-name="Trazado 2979" d="M263.776,2617.74a6.609,6.609,0,0,0,12.135,3.627,2.448,2.448,0,0,1-3.263-2.035,2.766,2.766,0,1,1-3.531-4.048,2.308,2.308,0,0,1-2.054-3.255,6.614,6.614,0,0,0-3.287,5.711Zm0,0" fill="#d4d8d8"/>
  </g>
</svg>
