<svg xmlns="http://www.w3.org/2000/svg" width="172.236" height="179.969" viewBox="0 0 172.236 179.969">
  <g id="Grupo_9191" data-name="Grupo 9191" transform="translate(-913.423 -5570.884)">
    <path id="Trazado_3002" data-name="Trazado 3002" d="M922.011,5702.261a86.127,86.127,0,1,0,92.35-122.37l-39.591,42.664v78.385l-50.827.347Zm0,0" fill="#8ab512"/>
    <path id="Trazado_3003" data-name="Trazado 3003" d="M923.985,5703.935l51.936-.355v-80.1l40.159-43.275a86.227,86.227,0,0,0-77.534,23.734l-11.621,14.48a86.2,86.2,0,0,0-3.843,85.967Zm0,0" fill="#5fc6ff"/>
    <path id="Trazado_3004" data-name="Trazado 3004" d="M965.749,5727.238a8.142,8.142,0,0,0,2.575-2.951c2.925-6.875,8.867-8.956,5.878-15.029a17.282,17.282,0,0,1-1.433-8.306l-48.826.335-1.932.974a86.473,86.473,0,0,0,28.468,33.254c3.6-2.389,11.139-5.08,15.27-8.277Zm0,0" fill="#7e9e0b"/>
    <path id="Trazado_3005" data-name="Trazado 3005" d="M930.909,5622.555c1.7,3.317,3.776,10.274,10.073,14.378-1.927-4.549,1.568-7.5,5.063-7.5,4.379,0,.375-10.534,9.518-11.971l-.186-.421s-4.55-1.521-9.822-6.794a68.55,68.55,0,0,0-7.009-6.309,86.472,86.472,0,0,0-11.621,14.48,10.244,10.244,0,0,1,3.984,4.132Zm0,0" fill="#8ab512"/>
    <path id="Trazado_3006" data-name="Trazado 3006" d="M1075.587,5706.443a19.866,19.866,0,0,0-6.547-13.05,4.015,4.015,0,0,1-1.119-1.72,4.087,4.087,0,0,1,.743-3.917l.769-.915a4.066,4.066,0,0,0,.176-5.046c-5.115-6.814-3.513-13.65-3.513-19.111,0-6.1,6.913-6.838,5.353-12.826s-16.279-2.484-21.853-.478-7.137-2.453-12.266-10.629-19.327,0-23.192,0-8.623-5.055-6.541-11.447-.892-7.88-7.732-12.34-.445-2.528,1.785-14.42,6.393-3.718,10.7-12.49,12.042-3.121,12.042-9.756-4.236-7.414-4.236-7.414c-6.245,0-20.182,14.829-23.69,14.829a29.465,29.465,0,0,1-6.239-.985,3.047,3.047,0,0,0-3.713,2.338c-.549,2.618-1.8,5.6-4.64,3.888-4.684-2.825-10.833,3.065-12.561,4.795s4.459,12.152-2.565,12.152-1.562,8.028-11.372,9.143-5.577,12.043-10.037,12.043-8.919,4.794-2.118,11.6-1.673,12.6,1.338,17.5.112,10.258,3.122,16.05-2.677,7.924-5.351,14.613a7.862,7.862,0,0,1-2.42,2.9h0c-6.523,5.276-22.2,9.4-14.232,12.563,9.366,3.716,5.8,16.205,21.11,16.205s8.623,4.312,21.259,6.243,4.3,9.364,15.907,11.9c8.6,1.874,9.679,7.842,12.394,12.132,1.058.038,2.12.066,3.189.066a85.7,85.7,0,0,0,45.225-12.824c-2.274-3.648-6.537-8.023-7.019-10.628-.957-5.157,10.435-3.74,10.435-8.817,0-3.656-2.94-5.745-5.111-6.79a4,4,0,0,1-2.285-3.6v-2.872a3.983,3.983,0,0,1,3.984-3.982h15.418c4.442,0,6.536,3.96,7.466,6.792a4.08,4.08,0,0,0,7.933-1.688Zm0,0" fill="#c0e54c"/>
    <path id="Trazado_3007" data-name="Trazado 3007" d="M1000.781,5668.878h-8.116a3.05,3.05,0,0,1,0-6.1h8.116a3.05,3.05,0,0,1,0,6.1Zm0,0" fill="#a5d130"/>
    <path id="Trazado_3008" data-name="Trazado 3008" d="M968.322,5724.287c2.927-6.875,8.869-8.956,5.88-15.029s.138-11.555-2.872-16.71,5.9-10.974-.992-18.18-2.165-12.075,2.458-11.975.48-11.323,10.677-12.258,4.716-9.381,12-9.222,1.1-10.788,2.935-12.542c1.424-1.364,5.687-5.282,9.763-5.52-.5-3.03-3.414-4.7-8.3-7.887-6.837-4.461-.445-2.528,1.785-14.42s6.393-3.718,10.7-12.49,12.042-3.121,12.042-9.756-4.236-7.414-4.236-7.414c-6.245,0-20.182,14.829-23.69,14.829a29.465,29.465,0,0,1-6.239-.985,3.047,3.047,0,0,0-3.713,2.338c-.549,2.618-1.8,5.6-4.64,3.888-4.684-2.825-10.833,3.065-12.561,4.795s4.459,12.152-2.565,12.152-1.562,8.028-11.372,9.143-5.577,12.043-10.037,12.043-8.919,4.794-2.118,11.6-1.673,12.6,1.338,17.5.112,10.258,3.122,16.05-2.675,7.924-5.351,14.613a7.869,7.869,0,0,1-2.419,2.9c-6.523,5.276-22.194,9.4-14.232,12.563,9.366,3.716,5.8,16.205,21.11,16.205,14.692,0,9.132,3.969,19.82,6a6.784,6.784,0,0,0,1.71-2.228Zm0,0" fill="#a5d130"/>
    <path id="Trazado_3009" data-name="Trazado 3009" d="M982.133,5658.066a10.974,10.974,0,1,1-15.519,0,10.973,10.973,0,0,1,15.519,0Zm0,0" fill="#ffc82e"/>
    <path id="Trazado_3010" data-name="Trazado 3010" d="M963.415,5665.828a10.975,10.975,0,0,0,10.976,10.975c.179,0,.357-.006.533-.013-5.956-7.147.01-11.021.01-11.021l-.121-10.905c-.14-.006-.279-.012-.422-.012a10.976,10.976,0,0,0-10.976,10.976Zm0,0" fill="#f7b126"/>
    <path id="Trazado_3011" data-name="Trazado 3011" d="M974.658,5575.929c-31.491,0-48.262,37.143-27.439,60.764l24.521,27.818a3.889,3.889,0,0,0,5.834,0l24.521-27.818c20.823-23.621,4.052-60.764-27.437-60.764Zm0,0" fill="#f4456f"/>
    <path id="Trazado_3012" data-name="Trazado 3012" d="M977.574,5664.511l23.207-26.325c-8.087-.268-10.278-4.521-10.84-7.325a4.121,4.121,0,0,0-2.88-3.144c-20.8-6.052-24.16-23.277-24.643-30.412a4.214,4.214,0,0,0-3.027-3.749,8.7,8.7,0,0,1-6.473-10.569c-16.045,11.92-20.931,36.43-5.7,53.706l24.521,27.818a3.889,3.889,0,0,0,5.834,0Zm0,0" fill="#dd2a44"/>
    <path id="Trazado_3013" data-name="Trazado 3013" d="M974.658,5590.255a22.158,22.158,0,1,0,22.158,22.159,22.185,22.185,0,0,0-22.158-22.159Zm0,0" fill="#dd2a44"/>
    <path id="Trazado_3014" data-name="Trazado 3014" d="M974.658,5634.572a22.063,22.063,0,0,0,14.492-5.419,4.1,4.1,0,0,0-2.089-1.436c-20.8-6.052-24.16-23.277-24.643-30.412a4.175,4.175,0,0,0-1.11-2.563,22.149,22.149,0,0,0,13.35,39.83Zm0,0" fill="#cc1f41"/>
  </g>
</svg>
