<svg xmlns="http://www.w3.org/2000/svg" width="179.969" height="179.967" viewBox="0 0 179.969 179.967">
  <g id="Grupo_9198" data-name="Grupo 9198" transform="translate(-909.557 -5950.016)">
    <path id="Trazado_3100" data-name="Trazado 3100" d="M1089.526,6040q0,3.273-.232,6.482a89.636,89.636,0,0,1-19.194,49.366,90.23,90.23,0,0,1-35.512,27.055,89.232,89.232,0,0,1-15.713,5,90.142,90.142,0,0,1-13.857,1.917q-2.717.166-5.477.164-2.208,0-4.392-.1A89.985,89.985,0,1,1,1089.526,6040Zm0,0" fill="#5fc6ff"/>
    <path id="Trazado_3101" data-name="Trazado 3101" d="M980.312,6066.8v61.123a90.146,90.146,0,0,1-63.206-51.795V6066.8a23.84,23.84,0,0,1,17.662-23.029c.371-.1.745-.195,1.128-.276a23.352,23.352,0,0,1,3.1-.456c.643-.051,1.294-.079,1.951-.079h15.525a23.863,23.863,0,0,1,5.057.535c.1.018.187.041.279.063.276.062.548.128.82.2l.022.007a23.855,23.855,0,0,1,17.663,23.033Zm0,0" fill="#3d4159"/>
    <path id="Trazado_3102" data-name="Trazado 3102" d="M962.706,6043.5l-.057.272-7.606,35.361c-.392.035-.788.065-1.183.093-.556.035-1.117.07-1.679.094q-1.727.081-3.469.081-1.789,0-3.555-.085-.8-.034-1.6-.093c-.4-.028-.793-.055-1.189-.09l-7.6-35.358-.058-.275Zm0,0" fill="#f74f4f"/>
    <path id="Trazado_3103" data-name="Trazado 3103" d="M955.109,6051.563l-6.4,10.264-6.4-10.264" fill="#dde8ed"/>
    <path id="Trazado_3104" data-name="Trazado 3104" d="M953.86,6079.222c-.556.035-3.986,18.173-5.149,18.173-1.193,0-4.619-18.136-5.152-18.176l5.152-20.063Zm0,0" fill="#dde8ed"/>
    <path id="Trazado_3105" data-name="Trazado 3105" d="M948.707,6052.72l-10.732,5.964L934.71,6043.5l6.669-3.927" fill="#dd3033"/>
    <path id="Trazado_3106" data-name="Trazado 3106" d="M948.707,6052.72l10.733,5.964L962.7,6043.5l-6.669-3.927" fill="#dd3033"/>
    <path id="Trazado_3107" data-name="Trazado 3107" d="M963.111,6063.99h3.4l-14.606,37.8-2.875,7.444-3.189-7.922,2.934-10.074,13.848-47.482.081-.265,7.342,2.4Zm0,0" fill="#2a2f4f"/>
    <path id="Trazado_3108" data-name="Trazado 3108" d="M951.909,6101.795l-2.875,7.444-3.189-7.922L930.82,6063.99h3.408l-6.941-18.1,7.345-2.4.078.265,14.069,47.482Zm0,0" fill="#2a2f4f"/>
    <path id="Trazado_3109" data-name="Trazado 3109" d="M957.214,6033.778v10.437a8.505,8.505,0,1,1-17.01,0v-10.437Zm0,0" fill="#d47f6c"/>
    <path id="Trazado_3110" data-name="Trazado 3110" d="M957.214,6043.555v.66a6.15,6.15,0,1,1-11.911,1.109c.568.034,1.14.052,1.713.052a29.454,29.454,0,0,0,10.2-1.821Zm0,0" fill="#e09380"/>
    <path id="Trazado_3111" data-name="Trazado 3111" d="M925.376,6016.671a7.909,7.909,0,1,1-7.909-7.91,8.014,8.014,0,0,1,1.267.1,7.911,7.911,0,0,1,6.642,7.809Zm0,0" fill="#e09380"/>
    <path id="Trazado_3112" data-name="Trazado 3112" d="M925.376,6016.671a7.908,7.908,0,0,1-6.642,7.808,29.561,29.561,0,0,1,0-15.617,7.911,7.911,0,0,1,6.642,7.809Zm0,0" fill="#d47f6c"/>
    <path id="Trazado_3113" data-name="Trazado 3113" d="M920.294,6016.671a2.827,2.827,0,1,1-2.827-2.827,2.827,2.827,0,0,1,2.827,2.827Zm0,0" fill="#d47f6c"/>
    <path id="Trazado_3114" data-name="Trazado 3114" d="M972.04,6016.671a7.91,7.91,0,1,0,7.911-7.91,8.017,8.017,0,0,0-1.268.1,7.913,7.913,0,0,0-6.643,7.809Zm0,0" fill="#e09380"/>
    <path id="Trazado_3115" data-name="Trazado 3115" d="M972.04,6016.671a7.91,7.91,0,0,0,6.643,7.808,29.587,29.587,0,0,0,0-15.617,7.913,7.913,0,0,0-6.643,7.809Zm0,0" fill="#d47f6c"/>
    <path id="Trazado_3116" data-name="Trazado 3116" d="M978.138,6001.261v11.207a29.43,29.43,0,0,1-24.707,29.048c-.046.007-.1.015-.144.024a28.922,28.922,0,0,1-4.579.355,29.429,29.429,0,0,1-29.429-29.427v-11.207a29.414,29.414,0,0,1,29.429-29.431h0a29.4,29.4,0,0,1,29.428,29.431Zm0,0" fill="#d47f6c"/>
    <path id="Trazado_3117" data-name="Trazado 3117" d="M982.776,6016.671a2.826,2.826,0,1,1-2.825-2.827,2.826,2.826,0,0,1,2.825,2.827Zm0,0" fill="#d47f6c"/>
    <path id="Trazado_3118" data-name="Trazado 3118" d="M978.138,6001.261v11.207a29.43,29.43,0,0,1-24.707,29.048c-.046.007-.1.015-.144.024a29.433,29.433,0,0,1-24.843-29.072v-11.207a25.155,25.155,0,1,1,49.694,0Zm0,0" fill="#e09380"/>
    <path id="Trazado_3119" data-name="Trazado 3119" d="M942.442,6010.753a3.339,3.339,0,1,1-3.34-3.338,3.34,3.34,0,0,1,3.34,3.338Zm0,0" fill="#3d4159"/>
    <path id="Trazado_3120" data-name="Trazado 3120" d="M961.653,6010.753a3.339,3.339,0,1,1-3.338-3.338,3.338,3.338,0,0,1,3.338,3.338Zm0,0" fill="#3d4159"/>
    <path id="Trazado_3121" data-name="Trazado 3121" d="M941.76,6010.164a1.431,1.431,0,1,1-1.43-1.429,1.429,1.429,0,0,1,1.43,1.429Zm0,0" fill="#fff"/>
    <path id="Trazado_3122" data-name="Trazado 3122" d="M961.137,6010.164a1.431,1.431,0,1,1-1.431-1.429,1.431,1.431,0,0,1,1.431,1.429Zm0,0" fill="#fff"/>
    <path id="Trazado_3123" data-name="Trazado 3123" d="M952.047,6017.85H945.37a1.44,1.44,0,0,1,0-2.881h6.677a1.44,1.44,0,1,1,0,2.881Zm0,0" fill="#d47f6c"/>
    <path id="Trazado_3124" data-name="Trazado 3124" d="M948.708,6026.962a14.879,14.879,0,0,1-7.174-1.852,1.31,1.31,0,0,1,1.262-2.3,12.213,12.213,0,0,0,11.827,0,1.31,1.31,0,0,1,1.261,2.3,14.883,14.883,0,0,1-7.176,1.852Zm0,0" fill="#d47f6c"/>
    <path id="Trazado_3125" data-name="Trazado 3125" d="M978.138,5991.091v11.479h-5.477v-8.99l-39.538-7.347-8.367-1.556v17.893h-5.477v-11.479A23.692,23.692,0,0,1,942.97,5967.4h11.476c.312,0,.623,0,.935.021a23.687,23.687,0,0,1,22.757,23.673Zm0,0" fill="#804e34"/>
    <path id="Trazado_3126" data-name="Trazado 3126" d="M978.138,5991.091v11.479h-5.477v-8.99l-39.538-7.347a22.685,22.685,0,0,1,45.015,4.858Zm0,0" fill="#975c3e"/>
    <path id="Trazado_3127" data-name="Trazado 3127" d="M1070.1,6095.848a90.281,90.281,0,0,1-35.512,27.055,89.232,89.232,0,0,1-15.713,5,90.142,90.142,0,0,1-13.857,1.917v-5.182a31.579,31.579,0,0,1,23.385-30.493c.492-.128.987-.253,1.491-.36a31.534,31.534,0,0,1,4.11-.6c.848-.07,1.708-.1,2.582-.1h20.553a31.644,31.644,0,0,1,6.7.708c.12.026.249.052.366.081.364.081.728.173,1.085.272a.058.058,0,0,1,.029,0,31.117,31.117,0,0,1,4.785,1.707Zm0,0" fill="#dd3033"/>
    <path id="Trazado_3128" data-name="Trazado 3128" d="M1070.1,6095.848a89.976,89.976,0,0,1-51.225,32.054v-3.265a31.579,31.579,0,0,1,23.385-30.493c.493-.128.988-.253,1.491-.36a31.579,31.579,0,0,1,4.111-.6c.851-.07,1.711-.1,2.581-.1h6.7a31.644,31.644,0,0,1,6.7.708c.12.026.249.052.366.081.364.081.728.173,1.085.272a.058.058,0,0,1,.029,0,31.117,31.117,0,0,1,4.785,1.707Zm0,0" fill="#f74f4f"/>
    <path id="Trazado_3129" data-name="Trazado 3129" d="M1065.4,6093.784l-.081.357-2.009,9.351a90.108,90.108,0,0,1-28.718,19.411l-6.185-28.759-.077-.36Zm0,0" fill="#f2f0ec"/>
    <path id="Trazado_3130" data-name="Trazado 3130" d="M1046.859,6106l-14.211,7.9-4.322-20.107,8.83-5.2" fill="#d8d5d0"/>
    <path id="Trazado_3131" data-name="Trazado 3131" d="M1065.392,6093.788l-2.086,9.7a90.552,90.552,0,0,1-8.047,7.172l-8.4-4.668,9.7-17.409Zm0,0" fill="#d8d5d0"/>
    <path id="Trazado_3132" data-name="Trazado 3132" d="M1089.294,6037.862v8.62a89.385,89.385,0,0,1-12.083,38.983h-72.78v-47.6a42.431,42.431,0,0,1,84.863,0Zm0,0" fill="#3d4159"/>
    <path id="Trazado_3133" data-name="Trazado 3133" d="M1021.886,6039.722c0,16.839,9.859,36.318,15.274,45.743h-32.729v-47.6a42.409,42.409,0,0,1,42.121-42.429c-13.045.326-24.666,21.254-24.666,44.287Zm0,0" fill="#2a2f4f"/>
    <path id="Trazado_3134" data-name="Trazado 3134" d="M1058.124,6080.916v13.82a11.261,11.261,0,0,1-22.522,0v-13.82Zm0,0" fill="#eab599"/>
    <path id="Trazado_3135" data-name="Trazado 3135" d="M1058.124,6093.861v.875a8.142,8.142,0,1,1-15.769,1.466q1.128.07,2.268.07a38.959,38.959,0,0,0,13.5-2.411Zm0,0" fill="#f6caae"/>
    <path id="Trazado_3136" data-name="Trazado 3136" d="M1015.971,6058.266a10.465,10.465,0,1,1-8.794-10.338,10.472,10.472,0,0,1,8.794,10.338Zm0,0" fill="#f6caae"/>
    <path id="Trazado_3137" data-name="Trazado 3137" d="M1015.971,6058.266a10.472,10.472,0,0,1-8.794,10.338,39.138,39.138,0,0,1,0-20.676,10.472,10.472,0,0,1,8.794,10.338Zm0,0" fill="#eab599"/>
    <path id="Trazado_3138" data-name="Trazado 3138" d="M1009.242,6058.266a3.743,3.743,0,1,1-3.743-3.743,3.743,3.743,0,0,1,3.743,3.743Zm0,0" fill="#eab599"/>
    <path id="Trazado_3139" data-name="Trazado 3139" d="M1073.754,6044.894v36a38.824,38.824,0,0,1-20.639,10.267l-.191.032a38.3,38.3,0,0,1-6.063.472A38.963,38.963,0,0,1,1007.9,6052.7v-14.837a39.24,39.24,0,0,1,.4-5.595,24.692,24.692,0,0,0,31.031-2,22.08,22.08,0,0,0,5.855-9.148,25.722,25.722,0,0,0,8.043,16.051,28.752,28.752,0,0,0,20.528,7.719Zm0,0" fill="#eab599"/>
    <path id="Trazado_3140" data-name="Trazado 3140" d="M1073.754,6044.894v36a38.824,38.824,0,0,1-20.639,10.267l-.191.032a38.968,38.968,0,0,1-32.891-38.491v-14.837c0-.4.006-.787.02-1.18a24.411,24.411,0,0,0,19.275-6.412,22.049,22.049,0,0,0,5.855-9.148,25.722,25.722,0,0,0,8.043,16.051,28.752,28.752,0,0,0,20.528,7.719Zm0,0" fill="#f6caae"/>
    <path id="Trazado_3141" data-name="Trazado 3141" d="M1005.867,6031.826l.439-1.158c-.147-.132-.3-.26-.439-.394Zm0,0" fill="#ffe152"/>
    <path id="Trazado_3142" data-name="Trazado 3142" d="M1067.787,6049.411a6.471,6.471,0,1,0-12.942,0" fill="#eab599"/>
    <path id="Trazado_3143" data-name="Trazado 3143" d="M1038.883,6049.411a6.471,6.471,0,1,0-12.942,0" fill="#eab599"/>
    <path id="Trazado_3144" data-name="Trazado 3144" d="M1036.834,6052.165a4.421,4.421,0,1,1-4.422-4.419,4.421,4.421,0,0,1,4.422,4.419Zm0,0" fill="#3d4159"/>
    <path id="Trazado_3145" data-name="Trazado 3145" d="M1065.736,6052.165a4.419,4.419,0,1,1-4.42-4.419,4.42,4.42,0,0,1,4.42,4.419Zm0,0" fill="#3d4159"/>
    <path id="Trazado_3146" data-name="Trazado 3146" d="M1051.285,6063.294h-8.84a1.906,1.906,0,1,1,0-3.813h8.84a1.906,1.906,0,1,1,0,3.813Zm0,0" fill="#eab599"/>
    <path id="Trazado_3147" data-name="Trazado 3147" d="M1046.865,6075.358a19.677,19.677,0,0,1-9.5-2.453,1.733,1.733,0,1,1,1.669-3.038,16.177,16.177,0,0,0,15.66,0,1.733,1.733,0,1,1,1.67,3.038,19.68,19.68,0,0,1-9.5,2.453Zm0,0" fill="#eab599"/>
    <path id="Trazado_3148" data-name="Trazado 3148" d="M1035.931,6051.386a1.894,1.894,0,1,1-1.893-1.9,1.892,1.892,0,0,1,1.893,1.9Zm0,0" fill="#fff"/>
    <path id="Trazado_3149" data-name="Trazado 3149" d="M1065.052,6051.386a1.894,1.894,0,1,1-1.894-1.9,1.893,1.893,0,0,1,1.894,1.9Zm0,0" fill="#fff"/>
    <path id="Trazado_3150" data-name="Trazado 3150" d="M1073.383,6062.932a4.853,4.853,0,1,1-4.852-4.854,4.853,4.853,0,0,1,4.852,4.854Zm0,0" fill="#eab599"/>
    <path id="Trazado_3151" data-name="Trazado 3151" d="M1030.049,6062.932a4.853,4.853,0,1,1-4.854-4.854,4.853,4.853,0,0,1,4.854,4.854Zm0,0" fill="#eab599"/>
    <path id="Trazado_3152" data-name="Trazado 3152" d="M995.149,6071.626v58.252a89.958,89.958,0,0,1-73.475-44.754v-13.5Zm0,0" fill="#f2f0ec"/>
    <path id="Trazado_3153" data-name="Trazado 3153" d="M995.149,6121.207l13.221-22.036-19.282,6.059" fill="#f2f0ec"/>
    <rect id="Rectángulo_3505" data-name="Rectángulo 3505" width="54.726" height="41.135" transform="translate(987.422 5952.318)" fill="#f2f0ec"/>
    <path id="Trazado_3154" data-name="Trazado 3154" d="M998.44,5990.884l-5.877,13.957,25.711-14.692Zm0,0" fill="#f2f0ec"/>
    <path id="Trazado_3155" data-name="Trazado 3155" d="M1008.406,5972.887a3.857,3.857,0,1,1-3.856-3.857,3.855,3.855,0,0,1,3.856,3.857Zm0,0" fill="#b7b7b7"/>
    <path id="Trazado_3156" data-name="Trazado 3156" d="M1018.641,5972.887a3.857,3.857,0,1,1-3.858-3.857,3.856,3.856,0,0,1,3.858,3.857Zm0,0" fill="#b7b7b7"/>
    <path id="Trazado_3157" data-name="Trazado 3157" d="M1028.875,5972.887a3.856,3.856,0,1,1-3.857-3.857,3.856,3.856,0,0,1,3.857,3.857Zm0,0" fill="#b7b7b7"/>
    <path id="Trazado_3158" data-name="Trazado 3158" d="M949.224,6100.751a4.775,4.775,0,1,1-4.774-4.774,4.774,4.774,0,0,1,4.774,4.774Zm0,0" fill="#b7b7b7"/>
    <path id="Trazado_3159" data-name="Trazado 3159" d="M961.9,6100.751a4.774,4.774,0,1,1-4.774-4.774,4.774,4.774,0,0,1,4.774,4.774Zm0,0" fill="#b7b7b7"/>
    <path id="Trazado_3160" data-name="Trazado 3160" d="M974.567,6100.751a4.775,4.775,0,1,1-4.774-4.774,4.775,4.775,0,0,1,4.774,4.774Zm0,0" fill="#b7b7b7"/>
  </g>
</svg>
