<svg xmlns="http://www.w3.org/2000/svg" width="218.808" height="210.683" viewBox="0 0 218.808 210.683">
  <g id="Grupo_10282" data-name="Grupo 10282" transform="translate(-3966.407 -795.72)">
    <path id="Trazado_4465" data-name="Trazado 4465" d="M4101.1,919.245c-3.551-3.48-7.085-6.865-8.118-12.635-2.545-14.22,3.7-15.9.583-30.021s-13.563-11.671-16.678-25.789a17.9,17.9,0,0,1-.431-4.964,36.423,36.423,0,0,0,1.751-6.4c.073-.383.134-.775.185-1.155a37.17,37.17,0,1,0-69.422,12.424c.181.337.37.663.56,1l.013.009a36.917,36.917,0,0,0,3.877,5.424,18.18,18.18,0,0,1,1.3,4.786c1.975,14.322-8.663,15.648-6.688,29.97s8.413,13.736,10.958,27.955c1.032,5.771-1.109,10.171-3.243,14.669-2.112,4.5-4.217,9.1-3.119,15.243a32.391,32.391,0,0,0,37.6,26.183l32.913-5.89a32.382,32.382,0,0,0,26.172-37.594C4108.217,926.322,4104.647,922.736,4101.1,919.245Z" fill="#40327a"/>
    <rect id="Rectángulo_4235" data-name="Rectángulo 4235" width="17.378" height="34.756" rx="1.933" transform="matrix(-0.956, -0.294, 0.294, -0.956, 4012.583, 867.378)" fill="#bf307b"/>
    <path id="Trazado_4466" data-name="Trazado 4466" d="M3967.028,915.451l24.491-64.3h0l4.271-11.215a7,7,0,1,1,11.917,6.969l.006,0-6.931,8.325L3985.047,921Z" fill="#ff95a9"/>
    <path id="Trazado_4467" data-name="Trazado 4467" d="M4011.582,931.4a12.964,12.964,0,0,1-9.91-17.939l-.014-.006,10.812-25.283.008,0a13,13,0,0,1,12.507-7.881l48.3,2.048a8,8,0,0,1,7.33,10.272L4058.176,968.1h0a23.251,23.251,0,0,1-46.46-1.97h0Z" fill="#ffc7bd"/>
    <path id="Trazado_4468" data-name="Trazado 4468" d="M3967.028,915.451h0l21.177-55.6,10.69,3.29L3990.313,899l27.376-16.688,12.06,22.973-50.154,22.283-.039-.073a9.439,9.439,0,0,1-12.528-12.046Z" fill="#ffc7bd"/>
    <path id="Trazado_4469" data-name="Trazado 4469" d="M4014.486,848.668l3.26-31.194,37.547,1.593-.806,18.994,1,.042a5,5,0,1,1-.423,9.991l-1-.042-.269,6.345-.465,10.956-.092,2.181-.591,13.928,9.984.423L4026.412,903.5l.98-23.113,3.275.139h0l.59-13.928-1.338-.056A16.207,16.207,0,0,1,4014.486,848.668Z" fill="#ff95a9"/>
    <path id="Trazado_4470" data-name="Trazado 4470" d="M4108.573,923.316l42.788-32.737,11.856-9.072.017.02a4.9,4.9,0,0,1,1.326-.712l0-.023,11.3-4.048v.007a7,7,0,1,1,2.458,13.584l-9.988.137-47.36,47.055Z" fill="#ff95a9"/>
    <path id="Trazado_4471" data-name="Trazado 4471" d="M4061.938,887.414a13,13,0,0,1,18.2-2.626,12.858,12.858,0,0,1,1.282,1.112l.009-.011,33.493,32.568,40.905-31.294,7.348,8.431-42.208,41.937,0,0a9.441,9.441,0,0,1-12.343.828l-.1.119-43.952-32.866h0A13,13,0,0,1,4061.938,887.414Z" fill="#ffc7bd"/>
    <rect id="Rectángulo_4236" data-name="Rectángulo 4236" width="4.752" height="2" transform="translate(4147.417 892.335) rotate(-37.426)" fill="#ff95a9"/>
    <rect id="Rectángulo_4237" data-name="Rectángulo 4237" width="36.283" height="2" transform="translate(4114.311 917.663) rotate(-37.417)" fill="#ff95a9"/>
    <path id="Trazado_4472" data-name="Trazado 4472" d="M4027.666,855.781a3.5,3.5,0,0,0,.773-6.913l-3.706-.847-.446,1.949,3.706.848a1.5,1.5,0,1,1-.669,2.924l-.447,1.95A3.53,3.53,0,0,0,4027.666,855.781Z" fill="#e5659b"/>
    <rect id="Rectángulo_4238" data-name="Rectángulo 4238" width="7.26" height="2" transform="translate(4004.244 904.86) rotate(-66.847)" fill="#ff95a9"/>
    <path id="Trazado_4473" data-name="Trazado 4473" d="M4013.632,932.561a13.839,13.839,0,0,0,9.651-3.889l-1.384-1.443a11.982,11.982,0,0,1-19.308-13.379l.393-.919-.014-.006,1.672-3.908-1.839-.787-2.457,5.746.045.019a13.989,13.989,0,0,0,12.631,18.553C4013.226,932.557,4013.43,932.561,4013.632,932.561Z" fill="#ff95a9"/>
    <rect id="Rectángulo_4239" data-name="Rectángulo 4239" width="2" height="13.438" transform="translate(4010.634 931.302)" fill="#ff95a9"/>
    <path id="Trazado_4474" data-name="Trazado 4474" d="M4054.488,838.061l1,.042,1.223-28.858-29.74-1.261a14.232,14.232,0,0,0-14.823,13.617l-.024.566,1,.042a39.13,39.13,0,0,1,23.235,8.9h0a30.535,30.535,0,0,0,18.131,6.948Z" fill="#40327a"/>
    <rect id="Rectángulo_4240" data-name="Rectángulo 4240" width="2" height="3.063" transform="translate(4010.759 947.802)" fill="#ff95a9"/>
    <path id="Trazado_4475" data-name="Trazado 4475" d="M4074.09,1006.4v-10a34.629,34.629,0,0,0-13.381-27.343l-2.506-1.948h-46.5a57.635,57.635,0,0,0-6,25.6V1006.4Z" fill="#8b77e8"/>
    <rect id="Rectángulo_4241" data-name="Rectángulo 4241" width="25.434" height="2" transform="translate(4011.7 966.052)" fill="#624ac9"/>
  </g>
</svg>
