<svg xmlns="http://www.w3.org/2000/svg" xmlns:xlink="http://www.w3.org/1999/xlink" width="131.191" height="128.458" viewBox="0 0 131.191 128.458">
  <defs>
    <clipPath id="clip-path">
      <rect id="Rectángulo_3492" data-name="Rectángulo 3492" width="131.191" height="128.457" transform="translate(182 2864.816)" fill="none"/>
    </clipPath>
  </defs>
  <g id="Grupo_9165" data-name="Grupo 9165" transform="translate(-182 -2864.816)">
    <g id="Grupo_9164" data-name="Grupo 9164">
      <g id="Grupo_9163" data-name="Grupo 9163" clip-path="url(#clip-path)">
        <path id="Trazado_2896" data-name="Trazado 2896" d="M244.777,2867.622a62.8,62.8,0,0,0-55.934,91.306l5.889,9.37a62.776,62.776,0,1,0,50.045-100.676Zm0,0" fill="#5fc6ff"/>
        <path id="Trazado_2897" data-name="Trazado 2897" d="M309.93,2906.182h-7.664s0,0,0,0l-.007.014-.006.015h0c-1.928,4.748-5.976,14.712-11.175,27.511H303.63c4.069-10.069,8.1-20.059,9.32-23.066a3.257,3.257,0,0,0-3.02-4.477Zm0,0" fill="#ffc82e"/>
      </g>
    </g>
    <path id="Trazado_2898" data-name="Trazado 2898" d="M277.5,2947.5a22.011,22.011,0,0,0,2.486-.157h18.147l5.708-14.126H291.284c-1.149,2.829-2.356,5.8-3.609,8.885-.026.086-.06.168-.089.254a6.785,6.785,0,0,1-6.391,4.524h-6.887a7.027,7.027,0,0,0-2.89.62Zm0,0" fill="#12379e"/>
    <path id="Trazado_2899" data-name="Trazado 2899" d="M281.964,2946.826a6.527,6.527,0,0,1-.769.05h-6.887a6.888,6.888,0,0,0-6.94,6.534,6.781,6.781,0,0,0,6.778,7.03h16.493a3.257,3.257,0,0,0,3.02-2.036l4.678-11.578Zm0,0" fill="#dd2a44"/>
    <path id="Trazado_2900" data-name="Trazado 2900" d="M274.146,2946.876h7.887a6.783,6.783,0,1,0,0-13.566h-6.071l-7.947,17.461a6.775,6.775,0,0,1,6.131-3.9Zm0,0" fill="#cc1f41"/>
    <path id="Trazado_2901" data-name="Trazado 2901" d="M303.949,2879.052H230.1l-10.264,25.486h74.65a7.086,7.086,0,0,1,6.951,5.689c4.038-9.963,7.729-19.063,8.829-21.776v0h0l0,0,0-.008v0a6.823,6.823,0,0,0-6.326-9.38Zm0,0" fill="#ffc82e"/>
    <path id="Trazado_2902" data-name="Trazado 2902" d="M310.272,2888.442l0,0Zm0,0" fill="#ffc82e"/>
    <path id="Trazado_2903" data-name="Trazado 2903" d="M240.154,2904.538l8.346-20.725a8.725,8.725,0,0,1,4.667-4.761H230.1l-10.264,25.486Zm0,0" fill="#f7b126"/>
    <path id="Trazado_2904" data-name="Trazado 2904" d="M289.177,2918.529a7.073,7.073,0,0,1,6.81,5.142c1.772-4.372,3.681-9.079,5.516-13.6a7.093,7.093,0,0,0-7.015-6.044H220.045l-5.84,14.5Zm0,0" fill="#12379e"/>
    <path id="Trazado_2905" data-name="Trazado 2905" d="M234.519,2918.529l5.84-14.5H220.045l-5.84,14.5Zm0,0" fill="#052c7a"/>
    <path id="Trazado_2906" data-name="Trazado 2906" d="M289.177,2918.016H214.41l-6.158,15.294h73.781a6.787,6.787,0,0,1,6.481,8.788c.409-1.009,3.665-9.04,7.558-18.639a7.081,7.081,0,0,0-6.895-5.443Zm0,0" fill="#dd2a44"/>
    <path id="Trazado_2907" data-name="Trazado 2907" d="M234.725,2918.016H214.41l-6.158,15.294h30.082a8.737,8.737,0,0,1-5.144-11.481Zm0,0" fill="#cc1f41"/>
    <path id="Trazado_2908" data-name="Trazado 2908" d="M222.158,2876.185l-33.315,82.743a62.771,62.771,0,0,0,5.889,9.37l35.77-88.842a9.318,9.318,0,0,1-8.344-3.271Zm0,0" fill="#d4d8d8"/>
    <path id="Trazado_2909" data-name="Trazado 2909" d="M220.611,2904.022l9.891-24.566a9.323,9.323,0,0,1-8.344-3.271l-10.076,25.027a4.991,4.991,0,0,1,8.529,2.81Zm0,0" fill="#c7c9c9"/>
    <path id="Trazado_2910" data-name="Trazado 2910" d="M229.107,2864.963a7.641,7.641,0,1,1-8.36,6.846,7.642,7.642,0,0,1,8.36-6.846Zm0,0" fill="#e8eaea"/>
    <path id="Trazado_2911" data-name="Trazado 2911" d="M227.089,2871.259a4.92,4.92,0,0,1,5.788-4.844,7.641,7.641,0,1,0,2.845,8.079,4.926,4.926,0,0,1-8.633-3.235Zm0,0" fill="#d4d8d8"/>
  </g>
</svg>
