<svg xmlns="http://www.w3.org/2000/svg" width="172.236" height="179.969" viewBox="0 0 172.236 179.969">
  <g id="Grupo_9193" data-name="Grupo 9193" transform="translate(-352.955 -5570.884)">
    <path id="Trazado_3015" data-name="Trazado 3015" d="M525.191,5664.735a86.118,86.118,0,1,1-86.118-86.118,86.118,86.118,0,0,1,86.118,86.118Zm0,0" fill="#91e0e8"/>
    <path id="Trazado_3016" data-name="Trazado 3016" d="M525.191,5664.735a86.118,86.118,0,1,1-86.118-86.118,86.118,86.118,0,0,1,86.118,86.118Zm0,0" fill="#5fc6ff"/>
    <path id="Trazado_3017" data-name="Trazado 3017" d="M481.7,5583.235H459.161V5596.2a1.437,1.437,0,0,1-1.436,1.435H406.244a1.439,1.439,0,0,1-1.437-1.435v-12.968H382.266a5.776,5.776,0,0,0-5.76,5.758V5723.9a86.366,86.366,0,0,0,22.6,17.126h79.925a86.175,86.175,0,0,0,8.374-5.015,5.682,5.682,0,0,0,.054-.743v-146.28a5.777,5.777,0,0,0-5.76-5.758Zm0,0" fill="#bf7e52"/>
    <path id="Trazado_3018" data-name="Trazado 3018" d="M383.887,5588.993a5.775,5.775,0,0,1,5.76-5.758h-7.381a5.776,5.776,0,0,0-5.76,5.758V5723.9a86.979,86.979,0,0,0,7.381,6.934Zm0,0" fill="#a5683f"/>
    <path id="Trazado_3019" data-name="Trazado 3019" d="M445.212,5579.32a14.588,14.588,0,0,0-26.455,0Zm0,0" fill="#ea2a3d"/>
    <path id="Trazado_3020" data-name="Trazado 3020" d="M426.021,5579.32a14.622,14.622,0,0,1,9.6-7.98,14.606,14.606,0,0,0-16.86,7.98Zm0,0" fill="#b7092b"/>
    <path id="Trazado_3021" data-name="Trazado 3021" d="M474.026,5592.833H459.161v3.368a1.438,1.438,0,0,1-1.436,1.437H406.244a1.439,1.439,0,0,1-1.437-1.437v-3.368H389.944a3.851,3.851,0,0,0-3.84,3.839V5727.6a3.851,3.851,0,0,0,3.84,3.839h84.082a3.851,3.851,0,0,0,3.839-3.839V5596.672a3.851,3.851,0,0,0-3.839-3.839Zm0,0" fill="#fff"/>
    <path id="Trazado_3022" data-name="Trazado 3022" d="M393.378,5727.6V5596.672a3.85,3.85,0,0,1,3.839-3.839h-7.273a3.85,3.85,0,0,0-3.839,3.839V5727.6a3.85,3.85,0,0,0,3.839,3.839h7.273a3.85,3.85,0,0,1-3.839-3.839Zm0,0" fill="#eef6ff"/>
    <path id="Trazado_3023" data-name="Trazado 3023" d="M459.512,5596.2a1.792,1.792,0,0,1-1.787,1.788H406.244a1.792,1.792,0,0,1-1.788-1.788v-15.445a1.793,1.793,0,0,1,1.788-1.788h51.481a1.793,1.793,0,0,1,1.787,1.788Zm0,0" fill="#fe3745"/>
    <path id="Trazado_3024" data-name="Trazado 3024" d="M411.785,5596.2v-15.445a1.794,1.794,0,0,1,1.788-1.788h-7.329a1.793,1.793,0,0,0-1.788,1.788V5596.2a1.792,1.792,0,0,0,1.788,1.788h7.329a1.793,1.793,0,0,1-1.788-1.788Zm0,0" fill="#ea2a3d"/>
    <path id="Trazado_3025" data-name="Trazado 3025" d="M443.265,5590.722H420.7a2.88,2.88,0,0,1,0-5.759h22.561a2.88,2.88,0,0,1,0,5.759Zm0,0" fill="#b7092b"/>
    <path id="Trazado_3026" data-name="Trazado 3026" d="M425.166,5587.841a2.878,2.878,0,0,1,2.88-2.878H420.7a2.88,2.88,0,0,0,0,5.759h7.342a2.88,2.88,0,0,1-2.88-2.881Zm0,0" fill="#a00026"/>
    <path id="Trazado_3027" data-name="Trazado 3027" d="M465.268,5636.6H417.674a2.88,2.88,0,0,1,0-5.76h47.594a2.88,2.88,0,0,1,0,5.76Zm0,0" fill="#ebaa48"/>
    <path id="Trazado_3028" data-name="Trazado 3028" d="M405.232,5637a2.288,2.288,0,0,1-3.231,0l-4.034-4.035a6.287,6.287,0,0,0-.053.756,5.951,5.951,0,0,0,11.9,0,6.016,6.016,0,0,0-.118-1.187Zm0,0" fill="#eec97a"/>
    <path id="Trazado_3029" data-name="Trazado 3029" d="M400.786,5629.322l2.829,2.832,3.447-3.445a5.916,5.916,0,0,0-6.754.251,2.3,2.3,0,0,1,.478.362Zm0,0" fill="#eec97a"/>
    <path id="Trazado_3030" data-name="Trazado 3030" d="M400.786,5629.322l1.458,1.458a5.969,5.969,0,0,1,3.4-2.74,5.939,5.939,0,0,0-5.331.919,2.34,2.34,0,0,1,.478.363Zm0,0" fill="#ebaa48"/>
    <path id="Trazado_3031" data-name="Trazado 3031" d="M402.849,5637.535A2.294,2.294,0,0,1,402,5637l-4.034-4.035a6.287,6.287,0,0,0-.053.756,5.955,5.955,0,0,0,7.725,5.681,5.943,5.943,0,0,1-2.79-1.868Zm0,0" fill="#ebaa48"/>
    <path id="Trazado_3032" data-name="Trazado 3032" d="M465.268,5655.126H417.674a2.879,2.879,0,1,1,0-5.758h47.594a2.879,2.879,0,1,1,0,5.758Zm0,0" fill="#85a0dd"/>
    <path id="Trazado_3033" data-name="Trazado 3033" d="M409.816,5652.247a5.951,5.951,0,1,1-5.951-5.951,5.951,5.951,0,0,1,5.951,5.951Zm0,0" fill="#aec1ed"/>
    <path id="Trazado_3034" data-name="Trazado 3034" d="M401.462,5652.247a5.955,5.955,0,0,1,4.177-5.682,5.951,5.951,0,1,0,0,11.364,5.955,5.955,0,0,1-4.177-5.682Zm0,0" fill="#85a0dd"/>
    <path id="Trazado_3035" data-name="Trazado 3035" d="M465.268,5673.651H417.674a2.879,2.879,0,1,1,0-5.758h47.594a2.879,2.879,0,1,1,0,5.758Zm0,0" fill="#85a0dd"/>
    <path id="Trazado_3036" data-name="Trazado 3036" d="M409.816,5670.772a5.951,5.951,0,1,1-5.951-5.951,5.952,5.952,0,0,1,5.951,5.951Zm0,0" fill="#aec1ed"/>
    <path id="Trazado_3037" data-name="Trazado 3037" d="M401.462,5670.772a5.951,5.951,0,0,1,4.177-5.681,5.951,5.951,0,1,0,0,11.363,5.953,5.953,0,0,1-4.177-5.682Zm0,0" fill="#85a0dd"/>
    <path id="Trazado_3038" data-name="Trazado 3038" d="M465.268,5692.177H417.674a2.88,2.88,0,0,1,0-5.76h47.594a2.88,2.88,0,1,1,0,5.76Zm0,0" fill="#2bb381"/>
    <path id="Trazado_3039" data-name="Trazado 3039" d="M409.816,5689.3a5.951,5.951,0,1,1-5.951-5.952,5.952,5.952,0,0,1,5.951,5.952Zm0,0" fill="#60d882"/>
    <path id="Trazado_3040" data-name="Trazado 3040" d="M401.462,5689.3a5.95,5.95,0,0,1,4.177-5.681,5.951,5.951,0,1,0-1.774,11.632,5.976,5.976,0,0,0,1.774-.269,5.955,5.955,0,0,1-4.177-5.682Zm0,0" fill="#37c47a"/>
    <path id="Trazado_3041" data-name="Trazado 3041" d="M465.268,5710.7H417.674a2.88,2.88,0,0,1,0-5.759h47.594a2.88,2.88,0,1,1,0,5.759Zm0,0" fill="#2bb381"/>
    <path id="Trazado_3042" data-name="Trazado 3042" d="M409.816,5707.821a5.951,5.951,0,1,1-5.951-5.951,5.951,5.951,0,0,1,5.951,5.951Zm0,0" fill="#60d882"/>
    <path id="Trazado_3043" data-name="Trazado 3043" d="M401.462,5707.821a5.952,5.952,0,0,1,4.177-5.681,5.952,5.952,0,1,0,0,11.363,5.952,5.952,0,0,1-4.177-5.682Zm0,0" fill="#37c47a"/>
    <path id="Trazado_3044" data-name="Trazado 3044" d="M403.615,5638.021a2.624,2.624,0,0,1-1.863-.772l-4.446-4.446a2.636,2.636,0,0,1,3.728-3.729l2.583,2.583,6.31-6.311a2.636,2.636,0,0,1,3.729,3.728l-8.176,8.175a2.627,2.627,0,0,1-1.865.772Zm0,0" fill="#293d7c"/>
    <path id="Trazado_3045" data-name="Trazado 3045" d="M426.721,5623.267a.847.847,0,0,1-.836-.99l1-5.819-4.227-4.12a.848.848,0,0,1,.471-1.446l5.842-.85,2.612-5.293a.847.847,0,0,1,1.521,0l2.611,5.293,5.843.85a.848.848,0,0,1,.471,1.446l-4.228,4.12,1,5.819a.849.849,0,0,1-1.23.894l-5.226-2.747-5.226,2.747a.844.844,0,0,1-.394.1Zm0,0" fill="#eec97a"/>
    <path id="Trazado_3046" data-name="Trazado 3046" d="M430.41,5620.86l1-5.817-4.226-4.122a.84.84,0,0,1-.25-.583l-3.8.554a.848.848,0,0,0-.471,1.446l4.227,4.12-1,5.819a.848.848,0,0,0,1.23.894l3.385-1.78a.845.845,0,0,1-.09-.531Zm0,0" fill="#ebaa48"/>
    <g id="Grupo_9192" data-name="Grupo 9192">
      <path id="Trazado_3047" data-name="Trazado 3047" d="M500.841,5706.306a2.641,2.641,0,0,1-2.629-2.653l.043-9.455a2.641,2.641,0,1,1,5.281.025l-.043,9.455a2.64,2.64,0,0,1-2.652,2.628Z" fill="#82757f"/>
      <path id="Trazado_3048" data-name="Trazado 3048" d="M498.033,5588.9a2.486,2.486,0,0,0-2.491,2.281c-1.165,14.341-1.834,29.728-1.908,45.75a580.755,580.755,0,0,0,2.65,59.382c.549,5.53,8.605,5.566,9.2.042A580.461,580.461,0,0,0,508.68,5637c.073-16.037-.457-31.444-1.492-45.808a2.441,2.441,0,0,0-2.425-2.261l-6.73-.031Z" fill="#979599"/>
      <path id="Trazado_3049" data-name="Trazado 3049" d="M502.064,5696.344c-.9-18.046-1.353-38.161-1.257-59.376.073-16.022.457-31.41,1.1-45.754.058-1.295.629-2.289,1.308-2.287l1.55.008-6.73-.031a2.485,2.485,0,0,0-2.491,2.281c-1.165,14.341-1.834,29.728-1.907,45.75a580.481,580.481,0,0,0,2.649,59.382,4.636,4.636,0,0,0,6.941,3.578,5.61,5.61,0,0,1-1.161-3.551Z" fill="#82757f"/>
      <path id="Trazado_3050" data-name="Trazado 3050" d="M498.027,5590.044l6.73.031a2.417,2.417,0,0,1,1.052.246l.033-7.207a4.439,4.439,0,1,0-8.878-.04l-.033,7.222a2.457,2.457,0,0,1,1.1-.252Z" fill="#e8e3e6"/>
      <path id="Trazado_3051" data-name="Trazado 3051" d="M501.674,5583.323a4.482,4.482,0,0,1,2.28-3.89,4.383,4.383,0,0,0-2.531-.816,4.459,4.459,0,0,0-4.459,4.457l-.033,7.222a2.451,2.451,0,0,1,1.1-.252l3.616.016.031-6.737Z" fill="#d5ced2"/>
      <path id="Trazado_3052" data-name="Trazado 3052" d="M498.033,5588.9a2.487,2.487,0,0,0-2.492,2.281q-.5,6.195-.879,12.643l13.292.06q-.318-6.465-.767-12.693a2.438,2.438,0,0,0-2.425-2.26l-6.729-.031Z" fill="#82757f"/>
      <path id="Trazado_3053" data-name="Trazado 3053" d="M495.542,5591.185l0,.034c-.312,3.84-.623,8.262-.877,12.609l6.755.031q.212-6.441.488-12.645c.058-1.294.629-2.289,1.308-2.286l.788,0-5.968-.027a2.484,2.484,0,0,0-2.491,2.281Z" fill="#614a5b"/>
      <path id="Trazado_3054" data-name="Trazado 3054" d="M495.2,5683.71q.477,6.448,1.086,12.6c.548,5.53,8.605,5.566,9.2.042.444-4.093.844-8.3,1.2-12.595l-11.491-.052Z" fill="#82757f"/>
      <path id="Trazado_3055" data-name="Trazado 3055" d="M501.524,5683.739l-6.326-.029q.12,1.61.246,3.2l0,.019q.124,1.552.256,3.089c.019.217.039.432.058.649q.108,1.239.22,2.466.147,1.6.3,3.179a4.475,4.475,0,0,0,4.579,4.166,4.868,4.868,0,0,0,2.36-.587,5.622,5.622,0,0,1-1.159-3.55q-.306-6.147-.54-12.605Z" fill="#614a5b"/>
      <path id="Trazado_3056" data-name="Trazado 3056" d="M515.948,5628.9a2.64,2.64,0,0,1-2.646-2.635c-.019-9.218-.363-18.38-1.023-27.274l-17.138-.079a2.641,2.641,0,1,1,.024-5.281l19.57.09a2.639,2.639,0,0,1,2.62,2.426c.794,9.784,1.207,19.914,1.228,30.107a2.641,2.641,0,0,1-2.635,2.646Z" fill="#e8e3e6"/>
    </g>
  </g>
</svg>
