<svg xmlns="http://www.w3.org/2000/svg" width="137.081" height="131.185" viewBox="0 0 137.081 131.185">
  <g id="Grupo_8780" data-name="Grupo 8780" transform="translate(-182 -3704.474)">
    <path id="Trazado_1994" data-name="Trazado 1994" d="M247.6,3704.474a65.555,65.555,0,0,0-56.08,31.552l11.3,81.967A65.591,65.591,0,1,0,247.6,3704.474Zm0,0" fill="#5fc6ff"/>
    <path id="Trazado_1995" data-name="Trazado 1995" d="M193.475,3743.242l-2.372-6.516a65.6,65.6,0,0,0-4.426,8.99Zm0,0" fill="#2d6bd6"/>
    <path id="Trazado_1996" data-name="Trazado 1996" d="M213.63,3798.47l-20.3-55.768-6.372,2.319a65.61,65.61,0,0,0,5.8,61.045Zm0,0" fill="#e8eaea"/>
    <path id="Trazado_1997" data-name="Trazado 1997" d="M271.005,3803.7,290.914,3732c.006-.018.013-.035.018-.053-47.512-17.645-87.458,3.319-87.458,3.319l25.448,69.917a56.775,56.775,0,0,1,42-1.123,2.978,2.978,0,0,1,.08-.368Zm0,0" fill="#ffc82e"/>
    <path id="Trazado_1998" data-name="Trazado 1998" d="M271.005,3803.7l8.933-32.167a6.363,6.363,0,0,1-7.416,1.186,60,60,0,0,0-21.2-4.174c-11.475,0-17.975,3.335-25.326,5.747s-9.16-4.221-9.16-4.221l-.323,1.042,12.4,34.078a56.775,56.775,0,0,1,42-1.123,2.978,2.978,0,0,1,.08-.368Zm0,0" fill="#f7b126"/>
    <path id="Trazado_1999" data-name="Trazado 1999" d="M253.55,3802.843a2.222,2.222,0,0,1-2.223-2.223v-75.737a2.224,2.224,0,0,1,4.447,0v75.737a2.223,2.223,0,0,1-2.224,2.223Zm0,0" fill="#ffe266"/>
    <path id="Trazado_2000" data-name="Trazado 2000" d="M247.73,3802.925a2.222,2.222,0,0,1-2.211-2.026l-6.678-75.345a2.223,2.223,0,1,1,4.429-.392l6.679,75.344a2.223,2.223,0,0,1-2.019,2.411c-.067.006-.133.008-.2.008Zm0,0" fill="#ffe266"/>
    <path id="Trazado_2001" data-name="Trazado 2001" d="M241.956,3803.61a2.226,2.226,0,0,1-2.187-1.834L226.5,3727.518a2.223,2.223,0,0,1,4.377-.782L244.147,3801a2.222,2.222,0,0,1-1.8,2.578,2.093,2.093,0,0,1-.393.036Zm0,0" fill="#ffe266"/>
    <path id="Trazado_2002" data-name="Trazado 2002" d="M236.023,3804.943a2.226,2.226,0,0,1-2.145-1.642L214.2,3730.829a2.223,2.223,0,1,1,4.29-1.166l19.675,72.473a2.225,2.225,0,0,1-2.146,2.807Zm0,0" fill="#ffe266"/>
    <path id="Trazado_2003" data-name="Trazado 2003" d="M259.331,3803.358c-.066,0-.132,0-.2-.009a2.223,2.223,0,0,1-2.017-2.411l6.678-75.334a2.223,2.223,0,1,1,4.428.393l-6.678,75.333a2.222,2.222,0,0,1-2.211,2.028Zm0,0" fill="#ffe266"/>
    <path id="Trazado_2004" data-name="Trazado 2004" d="M264.994,3804.458a2.224,2.224,0,0,1-2.192-2.615l13.25-74.171a2.223,2.223,0,0,1,4.377.783l-13.25,74.171a2.226,2.226,0,0,1-2.185,1.832Zm0,0" fill="#ffe266"/>
    <path id="Trazado_2005" data-name="Trazado 2005" d="M197.545,3812.455a66.2,66.2,0,0,0,5.584,5.825l15.591-5.676-2.524-6.937Zm0,0" fill="#2050bc"/>
    <path id="Trazado_2006" data-name="Trazado 2006" d="M197.707,3812.645l18.617-6.776-2.873-7.895-20.987,7.637a65.731,65.731,0,0,0,5.243,7.034Zm0,0" fill="#d4d8d8"/>
    <path id="Trazado_2007" data-name="Trazado 2007" d="M188.321,3798.177l22.256-8.1-2.874-7.9-22.492,8.185a65.062,65.062,0,0,0,3.11,7.81Zm0,0" fill="#d4d8d8"/>
    <path id="Trazado_2008" data-name="Trazado 2008" d="M183.127,3782.184l21.7-7.9-2.875-7.9-19.852,7.226a65.606,65.606,0,0,0,1.025,8.569Zm0,0" fill="#d4d8d8"/>
    <path id="Trazado_2009" data-name="Trazado 2009" d="M199.081,3758.494l-2.874-7.9-12.5,4.549a65.389,65.389,0,0,0-1.48,9.481Zm0,0" fill="#d4d8d8"/>
    <path id="Trazado_2010" data-name="Trazado 2010" d="M204.067,3734.972a3.566,3.566,0,0,0-4.558-2.125l-7.772,2.828c-.34.552-.676,1.109-1,1.672l27.461,75.447,9.192-3.345a3.57,3.57,0,0,0,2.127-4.56Zm0,0" fill="#2050bc"/>
    <path id="Trazado_2011" data-name="Trazado 2011" d="M316.476,3735.279l-21.775-6.048a3.567,3.567,0,0,0-4.379,2.477l-19.911,71.69a3.569,3.569,0,0,0,2.477,4.38l21.774,6.046a3.566,3.566,0,0,0,4.38-2.475l19.909-71.692a3.565,3.565,0,0,0-2.475-4.378Zm0,0" fill="#e8eaea"/>
    <path id="Trazado_2012" data-name="Trazado 2012" d="M300.674,3779.652a2.057,2.057,0,0,0-1.982-.788,4.271,4.271,0,0,1-4.441-1.623,2.111,2.111,0,0,0-2.481-.724c-9.674,3.788-12.717-4.233-12.717-4.233l-8.64,31.114a3.567,3.567,0,0,0,2.475,4.38l21.774,6.046a3.566,3.566,0,0,0,4.38-2.475l8.292-29.856c-4.044.57-5.868-.774-6.66-1.841Zm0,0" fill="#d4d8d8"/>
    <path id="Trazado_2013" data-name="Trazado 2013" d="M301.512,3802.454l14.969-53.9-2.847-.791a11.938,11.938,0,0,0-14.653,8.283l-8.6,30.965a11.938,11.938,0,0,0,8.284,14.653Zm0,0" fill="#d4d8d8"/>
    <path id="Trazado_2014" data-name="Trazado 2014" d="M300.674,3779.652a2.057,2.057,0,0,0-1.982-.788,4.271,4.271,0,0,1-4.441-1.623,2.114,2.114,0,0,0-.955-.724l-2.915,10.493a11.938,11.938,0,0,0,8.284,14.653l2.847.791,5.822-20.963c-4.044.572-5.868-.772-6.66-1.839Zm0,0" fill="#b7b7b7"/>
    <path id="Trazado_2015" data-name="Trazado 2015" d="M306.009,3761.336a2.223,2.223,0,1,1,2.043-2.39,2.225,2.225,0,0,1-2.043,2.39Zm0,0" fill="#e8eaea"/>
    <path id="Trazado_2016" data-name="Trazado 2016" d="M304.011,3768.532a2.222,2.222,0,1,1,2.041-2.39,2.217,2.217,0,0,1-2.041,2.39Zm0,0" fill="#e8eaea"/>
    <path id="Trazado_2017" data-name="Trazado 2017" d="M302.014,3775.733a2.223,2.223,0,1,1,2.04-2.39,2.226,2.226,0,0,1-2.04,2.39Zm0,0" fill="#e8eaea"/>
    <path id="Trazado_2018" data-name="Trazado 2018" d="M300.014,3782.932a2.224,2.224,0,1,1,2.043-2.395,2.228,2.228,0,0,1-2.043,2.395Zm0,0" fill="#e8eaea"/>
    <path id="Trazado_2019" data-name="Trazado 2019" d="M298.016,3790.126a2.222,2.222,0,1,1,2.032-1.952,2.219,2.219,0,0,1-2.032,1.952Zm0,0" fill="#e8eaea"/>
    <path id="Trazado_2020" data-name="Trazado 2020" d="M233.878,3803.3a2.223,2.223,0,1,0,4.291-1.165l-7.96-29.32a2.952,2.952,0,0,1-4.207,1.47Zm0,0" fill="#ffc82e"/>
    <path id="Trazado_2021" data-name="Trazado 2021" d="M239.769,3801.776a2.226,2.226,0,0,0,2.187,1.834,2.093,2.093,0,0,0,.393-.036,2.222,2.222,0,0,0,1.8-2.578l-5.52-30.9a2.925,2.925,0,0,1-4.289,1.269Zm0,0" fill="#ffc82e"/>
    <path id="Trazado_2022" data-name="Trazado 2022" d="M242.712,3769.234l2.807,31.665a2.222,2.222,0,0,0,2.211,2.026c.067,0,.133,0,.2-.008a2.223,2.223,0,0,0,2.019-2.411l-2.821-31.809a2.87,2.87,0,0,1-4.416.537Zm0,0" fill="#ffc82e"/>
    <path id="Trazado_2023" data-name="Trazado 2023" d="M253.55,3802.843a2.223,2.223,0,0,0,2.224-2.223v-31.88a3.063,3.063,0,0,1-4.447-.2v32.079a2.222,2.222,0,0,0,2.223,2.223Zm0,0" fill="#ffc82e"/>
    <path id="Trazado_2024" data-name="Trazado 2024" d="M259.133,3803.349q.1.009.2.009a2.225,2.225,0,0,0,2.213-2.028l2.764-31.19a2.86,2.86,0,0,1-4.386-.877l-2.808,31.675a2.223,2.223,0,0,0,2.019,2.411Zm0,0" fill="#ffc82e"/>
    <path id="Trazado_2025" data-name="Trazado 2025" d="M268.274,3771.215l-5.472,30.628a2.223,2.223,0,1,0,4.377.783l5.343-29.912c-3.42,1.753-4.248-1.5-4.248-1.5Zm0,0" fill="#ffc82e"/>
    <path id="Trazado_2026" data-name="Trazado 2026" d="M217.375,3771.532c-.466.954-4.333,8.124-13.118,2.962l13.94,38.3,9.192-3.345a3.569,3.569,0,0,0,2.126-4.56Zm0,0" fill="#12379e"/>
  </g>
</svg>
