<svg xmlns="http://www.w3.org/2000/svg" width="131.191" height="137.081" viewBox="0 0 131.191 137.081">
  <g id="Grupo_8781" data-name="Grupo 8781" transform="translate(-184.945 -3889.442)">
    <path id="Trazado_2027" data-name="Trazado 2027" d="M303.269,3999.947a65.6,65.6,0,1,0-105.457,0Zm0,0" fill="#5fc6ff"/>
    <path id="Trazado_2028" data-name="Trazado 2028" d="M209.485,3991.244a33.824,33.824,0,0,0-12.064,8.168,65.954,65.954,0,0,0,12.064,12.67Zm0,0" fill="#e8eaea"/>
    <path id="Trazado_2029" data-name="Trazado 2029" d="M279.318,3988.9H233.1v35.274a65.675,65.675,0,0,0,70.557-24.765,33.51,33.51,0,0,0-24.343-10.509Zm0,0" fill="#e8eaea"/>
    <path id="Trazado_2030" data-name="Trazado 2030" d="M250.862,4002.3l.056-12.083H232.56v33.811a65.338,65.338,0,0,0,13.361,2.336V4016.9a7.549,7.549,0,0,1,3.342-6.024,1.788,1.788,0,0,0,.449-2.385c-2.27-3.616,1.15-6.192,1.15-6.192Zm0,0" fill="#d4d8d8"/>
    <path id="Trazado_2031" data-name="Trazado 2031" d="M250.918,4009.906a21,21,0,0,0,21-21h-42a21,21,0,0,0,21,21Zm0,0" fill="#ffaa7b"/>
    <path id="Trazado_2032" data-name="Trazado 2032" d="M232.56,3990.214v8.891a21,21,0,0,0,17.368,10.776,1.785,1.785,0,0,0-.216-1.392c-2.272-3.616,1.15-6.192,1.15-6.192l.056-12.083Zm0,0" fill="#f99c6e"/>
    <path id="Trazado_2033" data-name="Trazado 2033" d="M209.122,3991.391v20.4a65.411,65.411,0,0,0,24.345,12.483V3988.9h-11.7a33.279,33.279,0,0,0-12.641,2.488Zm0,0" fill="#f4456f"/>
    <path id="Trazado_2034" data-name="Trazado 2034" d="M221.294,4014.579v-17.29a8.385,8.385,0,0,1,8.385-8.386h-7.916a33.279,33.279,0,0,0-12.641,2.488v20.4a65.568,65.568,0,0,0,15.293,9.312,8.274,8.274,0,0,1-3.121-6.523Zm0,0" fill="#e9385a"/>
    <path id="Trazado_2035" data-name="Trazado 2035" d="M268.37,3988.9v35.165a65.444,65.444,0,0,0,24.346-12.905v-19.454a33.276,33.276,0,0,0-13.4-2.806Zm0,0" fill="#f4456f"/>
    <path id="Trazado_2036" data-name="Trazado 2036" d="M280.542,4012.368v-15.435a8.03,8.03,0,0,1,5.016-7.442,33.444,33.444,0,0,0-6.24-.588H268.37v35.165a65.161,65.161,0,0,0,14.491-6.052,7.935,7.935,0,0,1-2.319-5.648Zm0,0" fill="#e9385a"/>
    <path id="Trazado_2037" data-name="Trazado 2037" d="M295.729,3904.368a19.318,19.318,0,0,0-9.071,2.506,7.593,7.593,0,0,0-3.748,7.557l7.038,56.493c.482.068.97.116,1.465.14a15.663,15.663,0,0,0,15.327-21.338,10.519,10.519,0,0,1,2.769-11.513,19.54,19.54,0,0,0-13.78-33.845Zm0,0" fill="#ffe266"/>
    <path id="Trazado_2038" data-name="Trazado 2038" d="M306.741,3942.306c-3.365,1.316-4.773-.5-5.324-1.762a2.057,2.057,0,0,0-1.353-1.157,2.176,2.176,0,0,1-1.4-1.069,1.949,1.949,0,0,0-2.3-.96c-9,2.867-10.847-6.057-10.847-6.057l-.5.011,4.933,39.612c.483.068.972.116,1.467.14a15.659,15.659,0,0,0,15.325-21.338,10.246,10.246,0,0,1,0-7.42Zm0,0" fill="#ffc82e"/>
    <path id="Trazado_2039" data-name="Trazado 2039" d="M213.253,3906.263a19.31,19.31,0,0,0-7.9-1.9,19.54,19.54,0,0,0-13.778,33.845,10.522,10.522,0,0,1,2.768,11.513,15.663,15.663,0,0,0,15.326,21.338c.5-.024.985-.072,1.467-.14l6.934-55.674a8.747,8.747,0,0,0-4.815-8.987Zm0,0" fill="#ffe266"/>
    <path id="Trazado_2040" data-name="Trazado 2040" d="M200.782,3933.5a1.841,1.841,0,0,0-1.612-.47,3.132,3.132,0,0,1-3.361-1.3,1.907,1.907,0,0,0-1.892-.809c-7.13,1.24-8.58-7.02-8.58-7.021a19.474,19.474,0,0,0,6.234,14.307,10.519,10.519,0,0,1,2.77,11.513,15.659,15.659,0,0,0,15.326,21.338c.5-.024.984-.072,1.466-.14l4.174-33.506c-6.7,2.788-12.565-2.018-14.525-3.913Zm0,0" fill="#ffc82e"/>
    <path id="Trazado_2041" data-name="Trazado 2041" d="M290.7,3915.869a12.681,12.681,0,0,0-7.294,2.526l5.129,41.178a10.261,10.261,0,0,0,9.386-13.969,6.915,6.915,0,0,1,1.807-7.561,12.8,12.8,0,0,0-9.028-22.174Zm0,0" fill="#ffc82e"/>
    <path id="Trazado_2042" data-name="Trazado 2042" d="M297.92,3945.6a6.868,6.868,0,0,1,1.1-6.8,2.1,2.1,0,0,1-.359-.484,1.95,1.95,0,0,0-2.3-.96c-9,2.869-10.847-6.056-10.847-6.056l-.5.01,3.521,28.261a10.261,10.261,0,0,0,9.386-13.969Zm0,0" fill="#f7b126"/>
    <path id="Trazado_2043" data-name="Trazado 2043" d="M288.532,3961.581a2.008,2.008,0,0,1-.032-4.016,8.268,8.268,0,0,0,7.548-11.232,8.879,8.879,0,0,1,2.311-9.76c7.292-6.78,2.224-18.939-7.612-18.7A10.661,10.661,0,0,0,284.6,3920a2.008,2.008,0,1,1-2.4-3.221,14.656,14.656,0,0,1,8.446-2.923c13.566-.32,20.377,16.415,10.441,25.653a4.889,4.889,0,0,0-1.3,5.36,12.3,12.3,0,0,1-11.223,16.707Zm0,0" fill="#f7b126"/>
    <path id="Trazado_2044" data-name="Trazado 2044" d="M299.79,3944.874a4.859,4.859,0,0,1,1.039-5.095,2.133,2.133,0,0,0-.765-.392,2.176,2.176,0,0,1-1.4-1.069,2.021,2.021,0,0,0-1.072-.933,8.838,8.838,0,0,0-1.544,8.948,8.268,8.268,0,0,1-7.547,11.232,2.008,2.008,0,0,0,.032,4.016h.035a12.3,12.3,0,0,0,11.223-16.707Zm0,0" fill="#f49e21"/>
    <path id="Trazado_2045" data-name="Trazado 2045" d="M217.449,3918.229a12.792,12.792,0,0,0-16.1,19.815,6.919,6.919,0,0,1,1.808,7.56,10.257,10.257,0,0,0,9.137,13.962Zm0,0" fill="#ffc82e"/>
    <path id="Trazado_2046" data-name="Trazado 2046" d="M200.782,3933.5a1.841,1.841,0,0,0-1.612-.47,3.936,3.936,0,0,1-1.114.052,12.8,12.8,0,0,0,3.3,4.957,6.916,6.916,0,0,1,1.807,7.56,10.259,10.259,0,0,0,9.138,13.962l2.747-22.047c-6.589,2.556-12.329-2.142-14.264-4.014Zm0,0" fill="#f7b126"/>
    <path id="Trazado_2047" data-name="Trazado 2047" d="M212.3,3961.574h-.082a12.256,12.256,0,0,1-10.927-16.7,4.884,4.884,0,0,0-1.3-5.36,14.8,14.8,0,0,1,18.626-22.921,2.009,2.009,0,0,1-2.329,3.273,10.783,10.783,0,0,0-13.562,16.707,8.879,8.879,0,0,1,2.311,9.76,8.243,8.243,0,0,0,7.348,11.227,2.008,2.008,0,0,1-.081,4.014Zm0,0" fill="#f7b126"/>
    <path id="Trazado_2048" data-name="Trazado 2048" d="M212.381,3957.56a8.244,8.244,0,0,1-7.349-11.227,8.88,8.88,0,0,0-2.31-9.76,10.8,10.8,0,0,1-2.479-3.422,1.892,1.892,0,0,0-1.073-.116,3.132,3.132,0,0,1-3.361-1.3,1.946,1.946,0,0,0-.286-.321,14.863,14.863,0,0,0,4.464,8.1,4.886,4.886,0,0,1,1.3,5.36,12.256,12.256,0,0,0,10.927,16.7h.082a2.008,2.008,0,0,0,.081-4.014Zm0,0" fill="#f49e21"/>
    <path id="Trazado_2049" data-name="Trazado 2049" d="M217.994,3913.852l-7.564,60.726a15.378,15.378,0,0,0,15.26,17.278h20.477v-78Zm0,0" fill="#dd2a44"/>
    <path id="Trazado_2050" data-name="Trazado 2050" d="M283.087,3913.852H255.559v78h19.832a15.376,15.376,0,0,0,15.259-17.278Zm0,0" fill="#f4456f"/>
    <path id="Trazado_2051" data-name="Trazado 2051" d="M266.212,3975.245a3.624,3.624,0,0,0-.621-2.88l-10.032-13.785v33.278h19.832c-10.753-3.53-9.945-12.943-9.179-16.613Zm0,0" fill="#dd2a44"/>
    <path id="Trazado_2052" data-name="Trazado 2052" d="M293.743,3931.3a3.337,3.337,0,0,1,0-6.673h0a3.337,3.337,0,1,1,0,6.673Zm0,0" fill="#dd2a44"/>
    <path id="Trazado_2053" data-name="Trazado 2053" d="M207.984,3931.3a3.337,3.337,0,0,1,0-6.673h0a3.337,3.337,0,0,1,0,6.673Zm0,0" fill="#dd2a44"/>
    <path id="Trazado_2054" data-name="Trazado 2054" d="M294.432,3939.775a2.008,2.008,0,1,1-2.008-2.008,2.008,2.008,0,0,1,2.008,2.008Zm0,0" fill="#3ba9f4"/>
    <path id="Trazado_2055" data-name="Trazado 2055" d="M209.3,3941.783a2.008,2.008,0,1,1,2.01-2.008,2.006,2.006,0,0,1-2.01,2.008Zm0,0" fill="#3ba9f4"/>
    <path id="Trazado_2056" data-name="Trazado 2056" d="M283.017,3906.194a9.635,9.635,0,0,0-3.315-6.156,44.541,44.541,0,0,0-58.556.767,9.7,9.7,0,0,0-3.162,6.02l-6.076,55.887a44.559,44.559,0,0,0,34.259,22.682v-74.3a4.8,4.8,0,0,1,4.776-4.819,4.7,4.7,0,0,1,4.616,4.7v74.423a44.557,44.557,0,0,0,33.729-21.754Zm0,0" fill="#dd2a44"/>
    <path id="Trazado_2057" data-name="Trazado 2057" d="M266.212,3975.245a3.624,3.624,0,0,0-.621-2.88l-10.032-13.785v26.814a44.387,44.387,0,0,0,10.718-2.5,17.23,17.23,0,0,1-.065-7.651Zm0,0" fill="#cc1f41"/>
    <path id="Trazado_2058" data-name="Trazado 2058" d="M245.921,3945.337c-4.3,0-5.239-2.922-5.421-4.647a2.119,2.119,0,0,0-.945-1.589,2.349,2.349,0,0,1-1.046-1.811,2.113,2.113,0,0,0-1.365-1.767,3.481,3.481,0,0,1-2.484-3.957,2.143,2.143,0,0,0-.8-1.942c-4.359-3.412-3.454-8.412-2.675-10.808a2.173,2.173,0,0,0-.575-2.241,3.955,3.955,0,0,1-1.18-4.081,2.14,2.14,0,0,0-.624-2.172,2.427,2.427,0,0,1-.8-1.907,2.113,2.113,0,0,0-1.088-1.84c-5.039-2.854-1.68-8.96-1.624-9.062a44.669,44.669,0,0,0-4.146,3.292,9.7,9.7,0,0,0-3.161,6.02l-6.077,55.887a44.558,44.558,0,0,0,34.26,22.681v-39.716Zm0,0" fill="#cc1f41"/>
    <path id="Trazado_2059" data-name="Trazado 2059" d="M247.2,3924.3a15.471,15.471,0,1,1-15.47-15.472A15.47,15.47,0,0,1,247.2,3924.3Zm0,0" fill="#ffe266"/>
    <path id="Trazado_2060" data-name="Trazado 2060" d="M231.728,3939.775a15.4,15.4,0,0,0,6.99-1.671,2.977,2.977,0,0,1-.209-.814,2.107,2.107,0,0,0-1.365-1.767,3.48,3.48,0,0,1-2.484-3.957,2.135,2.135,0,0,0-.8-1.94c-4.357-3.412-3.454-8.413-2.675-10.81a2.169,2.169,0,0,0-.575-2.239,3.958,3.958,0,0,1-1.18-4.082,2.144,2.144,0,0,0-.623-2.173,2.293,2.293,0,0,1-.685-1.062,15.47,15.47,0,0,0,3.6,30.515Zm0,0" fill="#ffc82e"/>
    <path id="Trazado_2061" data-name="Trazado 2061" d="M285.511,3924.3a15.47,15.47,0,1,1-15.471-15.472,15.47,15.47,0,0,1,15.471,15.472Zm0,0" fill="#ffe266"/>
    <path id="Trazado_2062" data-name="Trazado 2062" d="M270.04,3939.775a15.4,15.4,0,0,0,6.991-1.671,2.9,2.9,0,0,1-.208-.814,2.111,2.111,0,0,0-1.366-1.767,3.479,3.479,0,0,1-2.484-3.957,2.135,2.135,0,0,0-.8-1.94c-4.358-3.412-3.452-8.413-2.676-10.81a2.169,2.169,0,0,0-.574-2.239,3.958,3.958,0,0,1-1.18-4.082,2.146,2.146,0,0,0-.623-2.173,2.293,2.293,0,0,1-.685-1.062,15.47,15.47,0,0,0,3.6,30.515Zm0,0" fill="#ffc82e"/>
    <path id="Trazado_2063" data-name="Trazado 2063" d="M270.04,3941.783a17.479,17.479,0,1,1,17.479-17.478,17.5,17.5,0,0,1-17.479,17.478Zm0-30.942A13.463,13.463,0,1,0,283.5,3924.3a13.478,13.478,0,0,0-13.463-13.462Zm0,0" fill="#2050bc"/>
    <path id="Trazado_2064" data-name="Trazado 2064" d="M270.04,3941.783a17.367,17.367,0,0,0,8.384-2.148,1.948,1.948,0,0,0-.555-.534,2.343,2.343,0,0,1-1.046-1.811,2.183,2.183,0,0,0-.454-1.107,13.46,13.46,0,1,1-8.719-25.124,2.045,2.045,0,0,0-.528-.737,2.431,2.431,0,0,1-.805-1.907,2.029,2.029,0,0,0-.325-1.112,17.478,17.478,0,0,0,4.048,34.48Zm0,0" fill="#12379e"/>
    <path id="Trazado_2065" data-name="Trazado 2065" d="M275.868,3920.682a6.868,6.868,0,1,1-9.464-2.185,6.869,6.869,0,0,1,9.464,2.185Zm0,0" fill="#ffc82e"/>
    <path id="Trazado_2066" data-name="Trazado 2066" d="M263.173,3924.3a6.867,6.867,0,0,0,9.681,6.264,2.1,2.1,0,0,0-.679-.945c-4.358-3.412-3.452-8.412-2.676-10.808a2.122,2.122,0,0,0-.015-1.355,6.867,6.867,0,0,0-6.311,6.844Zm0,0" fill="#f7b126"/>
    <path id="Trazado_2067" data-name="Trazado 2067" d="M231.728,3941.783a17.479,17.479,0,1,1,17.478-17.478,17.5,17.5,0,0,1-17.478,17.478Zm0-30.942A13.463,13.463,0,1,0,245.19,3924.3a13.478,13.478,0,0,0-13.462-13.462Zm0,0" fill="#2050bc"/>
    <path id="Trazado_2068" data-name="Trazado 2068" d="M231.728,3941.783a17.359,17.359,0,0,0,8.382-2.148,1.948,1.948,0,0,0-.555-.534,2.349,2.349,0,0,1-1.046-1.811,2.167,2.167,0,0,0-.455-1.107,13.459,13.459,0,1,1-8.717-25.124,2.057,2.057,0,0,0-.528-.737,2.43,2.43,0,0,1-.805-1.907,2.053,2.053,0,0,0-.324-1.112,17.477,17.477,0,0,0,4.048,34.48Zm0,0" fill="#12379e"/>
    <path id="Trazado_2069" data-name="Trazado 2069" d="M237.551,3920.675a6.868,6.868,0,1,1-9.464-2.184,6.869,6.869,0,0,1,9.464,2.184Zm0,0" fill="#ffc82e"/>
    <path id="Trazado_2070" data-name="Trazado 2070" d="M224.86,3924.3a6.866,6.866,0,0,0,9.68,6.264,2.1,2.1,0,0,0-.678-.945c-4.359-3.412-3.454-8.412-2.675-10.808a2.142,2.142,0,0,0-.016-1.355,6.867,6.867,0,0,0-6.311,6.844Zm0,0" fill="#f7b126"/>
    <path id="Trazado_2071" data-name="Trazado 2071" d="M274.867,3951a8.632,8.632,0,0,0-7.044-3.653h-12.6v28.764a26.674,26.674,0,0,0,20.719-17.331,8.544,8.544,0,0,0-1.075-7.78Zm0,0" fill="#e8eaea"/>
    <path id="Trazado_2072" data-name="Trazado 2072" d="M246.5,3947.345H233.9a8.59,8.59,0,0,0-8.119,11.435,26.673,26.673,0,0,0,20.719,17.329Zm0,0" fill="#d4d8d8"/>
    <path id="Trazado_2073" data-name="Trazado 2073" d="M264.465,3970.4c-6.2-.624-4.463-5.718-4.463-5.718l-3.94-2.774-2.462,4.052-2.736,8.5.506,2a26.56,26.56,0,0,0,13-3.684,2.743,2.743,0,0,1,.1-2.378Zm0,0" fill="#d4d8d8"/>
    <path id="Trazado_2074" data-name="Trazado 2074" d="M267.823,3945.337H255.332v4.016h12.491a6.625,6.625,0,0,1,5.4,2.8,6.533,6.533,0,0,1,.822,5.95,24.66,24.66,0,0,1-18.717,15.945v4.079a28.694,28.694,0,0,0,22.5-18.678,10.6,10.6,0,0,0-10.011-14.115Zm0,0" fill="#f4456f"/>
    <path id="Trazado_2075" data-name="Trazado 2075" d="M264.465,3970.4l-.064-.008a24.586,24.586,0,0,1-13.537,4.072l1.012,4a28.585,28.585,0,0,0,14.257-4.412,2.431,2.431,0,0,1-1.668-3.648Zm0,0" fill="#dd2a44"/>
    <path id="Trazado_2076" data-name="Trazado 2076" d="M265.939,3956.538H235.787a.657.657,0,0,0-.6.938,17.429,17.429,0,0,0,31.345,0,.656.656,0,0,0-.6-.938Zm0,0" fill="#2050bc"/>
    <path id="Trazado_2077" data-name="Trazado 2077" d="M265.939,3956.538h-9.877c.81.414,5.528,3.076,3.94,8.145a17.454,17.454,0,0,0,6.533-7.207.656.656,0,0,0-.6-.938Zm0,0" fill="#12379e"/>
    <path id="Trazado_2078" data-name="Trazado 2078" d="M246.393,3974.051a24.662,24.662,0,0,1-18.716-15.945,6.584,6.584,0,0,1,6.226-8.753H246.4v-4.016H233.9a10.6,10.6,0,0,0-10.011,14.115,28.7,28.7,0,0,0,22.5,18.678v-4.079Zm0,0" fill="#dd2a44"/>
    <path id="Trazado_2079" data-name="Trazado 2079" d="M250.862,4002.3a4.943,4.943,0,0,1-4.941-4.944v-86.382a4.942,4.942,0,1,1,9.885,0v86.382a4.943,4.943,0,0,1-4.944,4.944Zm0,0" fill="#3ba9f4"/>
    <path id="Trazado_2080" data-name="Trazado 2080" d="M250.862,3950.178a4.943,4.943,0,0,1-4.941-4.944v52.119a4.942,4.942,0,0,0,9.885,0v-52.119a4.943,4.943,0,0,1-4.944,4.944Zm0,0" fill="#0b92dd"/>
  </g>
</svg>
