<svg xmlns="http://www.w3.org/2000/svg" width="131.191" height="137.08" viewBox="0 0 131.191 137.08">
  <g id="Grupo_8782" data-name="Grupo 8782" transform="translate(-184.945 -4077.358)">
    <path id="Trazado_2081" data-name="Trazado 2081" d="M250.54,4083.248a65.605,65.605,0,0,0-28.466,124.708h56.933a65.605,65.605,0,0,0-28.467-124.708Zm0,0" fill="#5fc6ff"/>
    <path id="Trazado_2082" data-name="Trazado 2082" d="M234.706,4086.572a13.438,13.438,0,0,1,2.316-3.282,15.237,15.237,0,0,1,.081-5.5c.085-.4-.587-.6-.87-.263a14.091,14.091,0,0,0-3.192,6.5,12.917,12.917,0,0,1,1.665,2.546Zm0,0" fill="#c0e54c"/>
    <path id="Trazado_2083" data-name="Trazado 2083" d="M228.052,4079.347c2.818,1.649,7.764,5.4,7.764,11.392h-5.133a19.54,19.54,0,0,0-3.335-10.916c-.253-.348.291-.717.7-.476Zm0,0" fill="#a5d130"/>
    <path id="Trazado_2084" data-name="Trazado 2084" d="M233.6,4090.739a9.021,9.021,0,0,0-4.469-5.832c-.416-.2-.914.221-.685.552l0,.005a8.442,8.442,0,0,1,1.716,5.275Zm0,0" fill="#8ab512"/>
    <path id="Trazado_2085" data-name="Trazado 2085" d="M241.362,4079.347c-2.819,1.649-7.764,5.4-7.764,11.392h5.131a19.555,19.555,0,0,1,3.336-10.916c.252-.348-.29-.717-.7-.476Zm0,0" fill="#8ab512"/>
    <path id="Trazado_2086" data-name="Trazado 2086" d="M239.648,4087.356c-1.553.522-3.75,1.577-3.75,3.383h3.7a3.711,3.711,0,0,1,.715-2.824c.229-.334-.21-.71-.661-.559Zm0,0" fill="#7e9e0b"/>
    <path id="Trazado_2087" data-name="Trazado 2087" d="M223.76,4101.253a1.676,1.676,0,0,1,.729,1.572,33.791,33.791,0,0,0,3.015,7.618,16.633,16.633,0,0,1,2.125-8.628,1.649,1.649,0,0,1,2.344-.562,1.677,1.677,0,0,1,.731,1.573,33.7,33.7,0,0,0,3.014,7.617,16.628,16.628,0,0,1,2.126-8.626,1.649,1.649,0,0,1,2.344-.564,1.677,1.677,0,0,1,.729,1.573,34.779,34.779,0,0,0,3.6,8.686,8.2,8.2,0,0,1,.554-1.535l-.88-6.295a13.734,13.734,0,0,1,1.816-9.092l.005-.009a8.567,8.567,0,0,0-7.441-4.354h-6.885a8.577,8.577,0,0,0-8.553,8.552v2.227a1.65,1.65,0,0,1,.628.247Zm0,0" fill="#f7b126"/>
    <path id="Trazado_2088" data-name="Trazado 2088" d="M223.132,4098.778V4101a1.647,1.647,0,0,1,1.357,1.82,33.791,33.791,0,0,0,3.015,7.618,16.633,16.633,0,0,1,2.125-8.628,1.65,1.65,0,0,1,2.344-.562c.029.02.056.043.084.064v-6.442c0-3.749,3.9-4.649,3.9-4.649h-4.275a8.577,8.577,0,0,0-8.553,8.552Zm0,0" fill="#f49e21"/>
    <path id="Trazado_2089" data-name="Trazado 2089" d="M237.844,4101.815a1.649,1.649,0,0,1,2.344-.562,1.677,1.677,0,0,1,.731,1.572,23.433,23.433,0,0,0,.78,2.563q1.429.691,2.918,1.341l-.427-3.047a14.235,14.235,0,0,1,.29-5.463,97.47,97.47,0,0,1-14.012-7.9,8.588,8.588,0,0,0-6.2,4.224,103.468,103.468,0,0,0,12.946,8.521c.218-.475.433-.894.631-1.245Zm0,0" fill="#ffc82e"/>
    <path id="Trazado_2090" data-name="Trazado 2090" d="M230.468,4090.315a8.592,8.592,0,0,0-6.2,4.224c1.735,1.35,4.433,3.325,7.791,5.456v-5.12a4.323,4.323,0,0,1,1.008-2.864c-.915-.58-1.785-1.149-2.6-1.7Zm0,0" fill="#f7b126"/>
    <path id="Trazado_2091" data-name="Trazado 2091" d="M247.874,4115.98a38,38,0,0,1-6.957-13.712,21.012,21.012,0,0,0,2.913,13.712Zm0,0" fill="#ffc82e"/>
    <path id="Trazado_2092" data-name="Trazado 2092" d="M244.837,4115.98a20.294,20.294,0,0,1-3.957-10.679,17.774,17.774,0,0,1,.037-3.033,1.678,1.678,0,0,0-.729-1.573,1.65,1.65,0,0,0-2.344.564,16.188,16.188,0,0,0-.678,14.721Zm0,0" fill="#ffe266"/>
    <path id="Trazado_2093" data-name="Trazado 2093" d="M239.661,4115.98a38,38,0,0,1-6.957-13.712,21,21,0,0,0,2.911,13.712Zm0,0" fill="#ffc82e"/>
    <path id="Trazado_2094" data-name="Trazado 2094" d="M236.622,4115.98a20.284,20.284,0,0,1-3.956-10.679,17.574,17.574,0,0,1,.038-3.033,1.677,1.677,0,0,0-.731-1.573,1.65,1.65,0,0,0-2.344.564,16.19,16.19,0,0,0-.676,14.721Zm0,0" fill="#ffe266"/>
    <path id="Trazado_2095" data-name="Trazado 2095" d="M231.446,4115.98a38,38,0,0,1-6.957-13.712,21.012,21.012,0,0,0,2.913,13.712Zm0,0" fill="#ffc82e"/>
    <path id="Trazado_2096" data-name="Trazado 2096" d="M228.409,4115.98a20.287,20.287,0,0,1-3.958-10.679,17.88,17.88,0,0,1,.038-3.033,1.674,1.674,0,0,0-.729-1.573,1.652,1.652,0,0,0-2.346.564,16.19,16.19,0,0,0-.676,14.721Zm0,0" fill="#ffe266"/>
    <path id="Trazado_2097" data-name="Trazado 2097" d="M244.794,4110a8.212,8.212,0,0,1,14.223-.048l8.183-8.184a13.48,13.48,0,0,0-1.954-7.179,10.087,10.087,0,0,0-5.463-4.483,2.919,2.919,0,0,1-1.607-1.325,2.811,2.811,0,0,0-5.38,0,2.9,2.9,0,0,1-1.605,1.325,10.089,10.089,0,0,0-5.464,4.483,13.737,13.737,0,0,0-1.816,9.093Zm0,0" fill="#8ab512"/>
    <path id="Trazado_2098" data-name="Trazado 2098" d="M253.01,4104.877a20.014,20.014,0,0,1-.364-9.163,8.118,8.118,0,0,1,2.76-5.018,2.372,2.372,0,0,0,.809-1.483,3.932,3.932,0,0,1,.761-1.883,2.433,2.433,0,0,0-1.49-.544,3.308,3.308,0,0,0-2.69,2,2.9,2.9,0,0,1-1.605,1.325,10.087,10.087,0,0,0-5.464,4.484,13.734,13.734,0,0,0-1.816,9.092l.883,6.318a8.209,8.209,0,0,1,7.125-4.13,8.307,8.307,0,0,1,1.386.121Zm0,0" fill="#7e9e0b"/>
    <path id="Trazado_2099" data-name="Trazado 2099" d="M277.866,4092.5a1.3,1.3,0,0,0-1.895-.06l-2.348,2.348a17.5,17.5,0,0,1,2.526,21.192h4.878a2.359,2.359,0,0,1,.4.036,21.968,21.968,0,0,0-3.559-23.516Zm0,0" fill="#a5d130"/>
    <path id="Trazado_2100" data-name="Trazado 2100" d="M276.429,4115.98a17.51,17.51,0,0,0-2.664-21.334l-21.334,21.334Zm0,0" fill="#dd2a44"/>
    <path id="Trazado_2101" data-name="Trazado 2101" d="M268.41,4112.6c-2.061-2.06-.378-3.76-.378-3.76l-1.123-2.561a2.408,2.408,0,0,1-1.457-3.324l-11.515,11.517.392.867.732.639H268.41Zm0,0" fill="#cc1f41"/>
    <path id="Trazado_2102" data-name="Trazado 2102" d="M263.65,4112.6a1.5,1.5,0,1,1-1.5-1.5,1.5,1.5,0,0,1,1.5,1.5Zm0,0" fill="#e53e5e"/>
    <path id="Trazado_2103" data-name="Trazado 2103" d="M268.032,4106.718a1.5,1.5,0,1,1-2.123,0,1.5,1.5,0,0,1,2.123,0Zm0,0" fill="#e53e5e"/>
    <path id="Trazado_2104" data-name="Trazado 2104" d="M272.856,4101.9a1.5,1.5,0,1,1-2.124,0,1.5,1.5,0,0,1,2.124,0Zm0,0" fill="#e53e5e"/>
    <path id="Trazado_2105" data-name="Trazado 2105" d="M269.473,4112.982a1.5,1.5,0,1,1-2.124,0,1.5,1.5,0,0,1,2.124,0Zm0,0" fill="#e53e5e"/>
    <path id="Trazado_2106" data-name="Trazado 2106" d="M274.3,4108.158a1.5,1.5,0,1,1-2.123,0,1.5,1.5,0,0,1,2.123,0Zm0,0" fill="#e53e5e"/>
    <path id="Trazado_2107" data-name="Trazado 2107" d="M248.919,4134.574s-8.207-2.655-13.076-.88c-9.527,3.472-12.665,19.314-7.985,28.606Zm0,0" fill="#dd2a44"/>
    <path id="Trazado_2108" data-name="Trazado 2108" d="M235.843,4133.694c-3.692,1.344-6.422,4.547-8.112,8.506,0,.007.276,4.033,4.008,3.808a1.284,1.284,0,0,1,1.361,1.174,5.7,5.7,0,0,0,2.683,4.683l13.136-17.291s-8.207-2.655-13.076-.88Zm0,0" fill="#cc1f41"/>
    <path id="Trazado_2109" data-name="Trazado 2109" d="M254.741,4134.574s8.2-2.655,13.074-.88c9.527,3.472,12.666,19.314,7.986,28.606Zm0,0" fill="#dd2a44"/>
    <path id="Trazado_2110" data-name="Trazado 2110" d="M267.815,4133.694c-4.87-1.775-13.074.88-13.074.88l5.374,7.075a11.2,11.2,0,0,1,4.421.236,2.465,2.465,0,0,0,2.644-1.049c2.586-3.911,7.172-1.624,7.172-1.624a13.327,13.327,0,0,0-6.537-5.518Zm0,0" fill="#cc1f41"/>
    <path id="Trazado_2111" data-name="Trazado 2111" d="M275.818,4160.785c-1.144-1.117-3.685-.689-5,.188,1.448,4.743.191,12.708.191,12.708-.051.217-.1.426-.151.639,3.316.05,4.115-2.109,4.275-3.584a8.245,8.245,0,0,1,.489-2.026c.819-2.182,2.533-5.637.2-7.925Zm0,0" fill="#ffaa7b"/>
    <path id="Trazado_2112" data-name="Trazado 2112" d="M275.818,4160.785c-1.144-1.117-3.685-.689-5,.188,1.448,4.743.191,12.708.191,12.708-.051.217-.1.426-.151.639,3.316.05,4.115-2.109,4.275-3.584a8.245,8.245,0,0,1,.489-2.026c.819-2.182,2.533-5.637.2-7.925Zm0,0" fill="#d18c65"/>
    <path id="Trazado_2113" data-name="Trazado 2113" d="M277.647,4182.4l-2.259-8.207a.6.6,0,0,0-.583-.445h-2.124a.6.6,0,0,0-.582.445l-2.26,8.207a.6.6,0,0,0,.2.626l3.32,2.75a.6.6,0,0,0,.771,0l3.32-2.75a.605.605,0,0,0,.2-.626Zm0,0" fill="#f4456f"/>
    <path id="Trazado_2114" data-name="Trazado 2114" d="M275.7,4182.4l-1.128-8.207c-.036-.263-.156-.445-.293-.445h-1.061c-.137,0-.255.182-.292.445l-1.129,8.207a1.013,1.013,0,0,0,.1.626l1.659,2.75c.113.185.275.185.386,0l1.66-2.75a1.015,1.015,0,0,0,.1-.626Zm0,0" fill="#f9648f"/>
    <path id="Trazado_2115" data-name="Trazado 2115" d="M250.54,4214.438a65.312,65.312,0,0,0,29.005-6.75c-7.476-2.04-18.541-6.061-18.541-11.988v-1.961c-2.535,2.267-6.883,5.155-10.464,5.242-3.581-.087-7.929-2.975-10.464-5.242v1.961c0,5.927-11.065,9.948-18.54,11.988a65.307,65.307,0,0,0,29,6.75Zm0,0" fill="#d18c65"/>
    <path id="Trazado_2116" data-name="Trazado 2116" d="M250.54,4198.981c-3.581-.087-7.929-2.975-10.464-5.242v1.961c0,5.927-11.065,9.948-18.54,11.988a65.2,65.2,0,0,0,22.951,6.472c4.826-4.339,5.94-11.381,6.176-15.185l-.123.006Zm0,0" fill="#c97a53"/>
    <path id="Trazado_2117" data-name="Trazado 2117" d="M230.4,4173.681s-1.259-7.965.19-12.708c-1.315-.877-3.856-1.305-5-.188-2.338,2.288-.624,5.743.2,7.925a8.287,8.287,0,0,1,.488,2.026c.159,1.475.959,3.634,4.275,3.584-.049-.213-.1-.422-.149-.639Zm0,0" fill="#cd815b"/>
    <path id="Trazado_2118" data-name="Trazado 2118" d="M269.727,4158.5a2.862,2.862,0,0,1-.76-1.819c-.074-2.48-.7-8.551-4.907-11.353-2.984-1.987-7.18-1.966-12.47.063a2.461,2.461,0,0,1-1.769,0c-5.291-2.028-9.485-2.049-12.469-.063-4.207,2.8-4.834,8.873-4.907,11.353a2.862,2.862,0,0,1-.76,1.819c-2.635,2.969-2.059,11.641-1.444,15.213a54.937,54.937,0,0,0,5.86,15.57,23.829,23.829,0,0,0,11.234,9.874,8.514,8.514,0,0,0,6.742,0,23.831,23.831,0,0,0,11.233-9.874,55,55,0,0,0,5.863-15.58c.589-3.754,1.218-12.2-1.446-15.2Zm0,0" fill="#d19a7e"/>
    <path id="Trazado_2119" data-name="Trazado 2119" d="M248.737,4189.288a75.794,75.794,0,0,1-3.777-15.57c-.4-3.572-.77-12.244.93-15.213a3.808,3.808,0,0,0,.489-1.819c.048-2.48.452-8.551,3.166-11.353l.029-.028c-5.173-1.934-9.286-1.927-12.222.028-4.207,2.8-4.834,8.873-4.907,11.353a2.865,2.865,0,0,1-.762,1.819c-2.634,2.969-2.057,11.641-1.442,15.213a54.937,54.937,0,0,0,5.86,15.57,23.834,23.834,0,0,0,11.232,9.874,8.514,8.514,0,0,0,6.742,0c.394-.17.778-.353,1.16-.541a20.8,20.8,0,0,1-6.5-9.333Zm0,0" fill="#d18c65"/>
    <path id="Trazado_2120" data-name="Trazado 2120" d="M275.459,4172.767a1.716,1.716,0,1,1-1.716-1.716,1.716,1.716,0,0,1,1.716,1.716Zm0,0" fill="#ffe266"/>
    <path id="Trazado_2121" data-name="Trazado 2121" d="M231.24,4182.4l-2.258-8.207a.606.606,0,0,0-.583-.445h-2.124a.606.606,0,0,0-.584.445l-2.258,8.207a.6.6,0,0,0,.2.626l3.321,2.75a.6.6,0,0,0,.771,0l3.32-2.75a.6.6,0,0,0,.2-.626Zm0,0" fill="#f4456f"/>
    <path id="Trazado_2122" data-name="Trazado 2122" d="M229.289,4182.4l-1.13-8.207c-.036-.263-.155-.445-.291-.445h-1.061c-.137,0-.257.182-.293.445l-1.128,8.207a1.013,1.013,0,0,0,.1.626l1.66,2.75c.111.185.274.185.386,0l1.66-2.75a1.015,1.015,0,0,0,.1-.626Zm0,0" fill="#f9648f"/>
    <path id="Trazado_2123" data-name="Trazado 2123" d="M229.052,4172.767a1.716,1.716,0,1,1-1.715-1.716,1.715,1.715,0,0,1,1.715,1.716Zm0,0" fill="#ffe266"/>
    <path id="Trazado_2124" data-name="Trazado 2124" d="M239.783,4138.295c-8.4,6.22-14.187,22.49-14.187,22.49,1.116-1.09,3.56-.707,4.9.127,4.632-4.832,14.535-12.03,21.332-15.439-6.26-3.584-10.435-6.356-12.046-7.178Zm0,0" fill="#f4456f"/>
    <path id="Trazado_2125" data-name="Trazado 2125" d="M239.783,4138.295a31.129,31.129,0,0,0-7.078,8.07,1.279,1.279,0,0,1,.4.817c.185,2.183,1.357,6.056,7.4,5.369a88.621,88.621,0,0,1,11.327-7.078c-6.26-3.584-10.435-6.356-12.046-7.178Zm0,0" fill="#dd2a44"/>
    <path id="Trazado_2126" data-name="Trazado 2126" d="M259.812,4115.665a6.875,6.875,0,0,0,.321-2.139,8.213,8.213,0,0,0-16.426,0,6.874,6.874,0,0,0,.321,2.139Zm0,0" fill="#f4456f"/>
    <path id="Trazado_2127" data-name="Trazado 2127" d="M250.186,4111.781a8.188,8.188,0,0,1,2.749-6.4,8.116,8.116,0,0,0-1.016-.065,8.213,8.213,0,0,0-8.212,8.213,6.874,6.874,0,0,0,.321,2.139h7.279a8.166,8.166,0,0,1-1.121-3.884Zm0,0" fill="#e9385a"/>
    <path id="Trazado_2128" data-name="Trazado 2128" d="M216.079,4119.77v.682c0,7.863,6.841,14.3,15.2,14.3h38.555c8.363,0,15.2-6.435,15.2-14.3v-.682Zm0,0" fill="#d4d8d8"/>
    <path id="Trazado_2129" data-name="Trazado 2129" d="M232.719,4120.452v-.682h-16.64v.682c0,7.863,6.841,14.3,15.2,14.3h16.64c-8.363,0-15.2-6.435-15.2-14.3Zm0,0" fill="#c7c9c9"/>
    <path id="Trazado_2130" data-name="Trazado 2130" d="M239.57,4137.218a1.336,1.336,0,0,0,.176,2.267c6.043,3.128,24.962,14.953,31.171,21.427,1.341-.834,3.785-1.217,4.9-.127,0,0-12.737-40.479-36.248-23.567Zm0,0" fill="#f9648f"/>
    <path id="Trazado_2131" data-name="Trazado 2131" d="M239.57,4137.218a1.336,1.336,0,0,0,.176,2.267c2.807,1.453,8.394,4.785,14.195,8.583,1.865-7.261,7.617-6.907,10.6-6.183a2.461,2.461,0,0,0,1.328-.048c-6.108-7.573-14.946-12.783-26.294-4.619Zm0,0" fill="#f4456f"/>
    <path id="Trazado_2132" data-name="Trazado 2132" d="M285.043,4120.4H216.079a2.531,2.531,0,0,1,0-5.062h68.964a2.531,2.531,0,0,1,0,5.062Zm0,0" fill="#e8eaea"/>
    <path id="Trazado_2133" data-name="Trazado 2133" d="M230.326,4117.872a2.532,2.532,0,0,1,2.531-2.531H216.079a2.531,2.531,0,0,0,0,5.062h16.778a2.532,2.532,0,0,1-2.531-2.531Zm0,0" fill="#d4d8d8"/>
    <path id="Trazado_2134" data-name="Trazado 2134" d="M255.5,4094.031a2.115,2.115,0,1,1-2.114-2.114,2.115,2.115,0,0,1,2.114,2.114Zm0,0" fill="#7e9e0b"/>
    <path id="Trazado_2135" data-name="Trazado 2135" d="M253.919,4097.187a1.487,1.487,0,1,1-1.488-1.487,1.488,1.488,0,0,1,1.488,1.487Zm0,0" fill="#7e9e0b"/>
    <path id="Trazado_2136" data-name="Trazado 2136" d="M253.657,4100.868a1.225,1.225,0,1,1-1.226-1.224,1.225,1.225,0,0,1,1.226,1.224Zm0,0" fill="#7e9e0b"/>
  </g>
</svg>
