<svg xmlns="http://www.w3.org/2000/svg" width="179.969" height="179.969" viewBox="0 0 179.969 179.969">
  <g id="Grupo_8788" data-name="Grupo 8788" transform="translate(-349.781 -4609.625)">
    <path id="Trazado_2137" data-name="Trazado 2137" d="M529.75,4699.609a89.984,89.984,0,1,1-89.984-89.984,89.984,89.984,0,0,1,89.984,89.984Z" fill="#5fc6ff"/>
    <path id="Trazado_2138" data-name="Trazado 2138" d="M529.75,4699.609" fill="#5fc6ff"/>
    <path id="Trazado_2139" data-name="Trazado 2139" d="M428.7,4732.94h-9.524a3.516,3.516,0,0,1-3.515-3.515v-82.358a3.516,3.516,0,0,1,3.515-3.515H428.7a3.516,3.516,0,0,1,3.515,3.515v82.358a3.516,3.516,0,0,1-3.515,3.515Zm0,0" fill="#2d6bd6"/>
    <path id="Trazado_2140" data-name="Trazado 2140" d="M428.7,4686.485h-2.625a3.516,3.516,0,0,1-3.515-3.515v-35.9a3.516,3.516,0,0,1,3.515-3.515H428.7a3.516,3.516,0,0,1,3.515,3.515v35.9a3.516,3.516,0,0,1-3.515,3.515Zm0,0" fill="#0b92dd"/>
    <path id="Trazado_2141" data-name="Trazado 2141" d="M400.561,4732.94h-9.524a3.516,3.516,0,0,1-3.515-3.515V4662.3a3.514,3.514,0,0,1,3.515-3.515h9.524a3.514,3.514,0,0,1,3.515,3.515v67.128a3.516,3.516,0,0,1-3.515,3.515Zm90.583-111.364a3.515,3.515,0,0,0-3.515-3.515h-9.522a3.515,3.515,0,0,0-3.515,3.515V4732.94h16.552Zm0,0" fill="#a5d130"/>
    <path id="Trazado_2142" data-name="Trazado 2142" d="M487.629,4703.536h-2.624a3.515,3.515,0,0,1-3.515-3.515v-78.445a3.515,3.515,0,0,1,3.515-3.515h2.624a3.515,3.515,0,0,1,3.515,3.515v78.445a3.515,3.515,0,0,1-3.515,3.515Zm-83.553-29.363V4662.3a3.514,3.514,0,0,0-3.515-3.515h-2.626a3.514,3.514,0,0,0-3.515,3.515v11.876a3.515,3.515,0,0,0,3.515,3.515h2.626a3.515,3.515,0,0,0,3.515-3.515Zm0,0" fill="#c0e54c"/>
    <path id="Trazado_2143" data-name="Trazado 2143" d="M463.005,4732.94H446.452V4630.515a3.514,3.514,0,0,1,3.515-3.515h9.523a3.515,3.515,0,0,1,3.515,3.515Zm56.279,0v-97.791a3.515,3.515,0,0,0-3.515-3.515h-9.521a3.514,3.514,0,0,0-3.515,3.515v97.791Zm0,0" fill="#f7b126"/>
    <path id="Trazado_2144" data-name="Trazado 2144" d="M463.005,4630.515v62.864a3.514,3.514,0,0,1-3.515,3.515h-2.625a3.514,3.514,0,0,1-3.515-3.515v-62.864a3.514,3.514,0,0,1,3.515-3.515h2.625a3.515,3.515,0,0,1,3.515,3.515Zm52.764,1.119h-2.623a3.515,3.515,0,0,0-3.516,3.515v81.957a3.514,3.514,0,0,0,3.516,3.515h2.623a3.514,3.514,0,0,0,3.515-3.515v-81.957a3.515,3.515,0,0,0-3.515-3.515Zm0,0" fill="#ffc82e"/>
    <path id="Trazado_2145" data-name="Trazado 2145" d="M499.313,4656.739a1.754,1.754,0,0,1-2.485,0l-4.567-4.566c-.681,20.18-10.337,39.041-27.365,53.326-17.582,14.75-40.957,22.873-65.822,22.873a1.758,1.758,0,0,1,0-3.515c48.634,0,88.351-32.512,89.677-72.9l-4.782,4.782a1.757,1.757,0,0,1-2.486-2.484l7.673-7.673a1.756,1.756,0,0,1,2.484,0l7.673,7.673a1.756,1.756,0,0,1,0,2.484Zm0,0" fill="#f4456f"/>
    <path id="Trazado_2146" data-name="Trazado 2146" d="M378.341,4672.9a1.758,1.758,0,0,1-1.757,1.758h-8.949a1.757,1.757,0,1,1,0-3.515h8.949a1.757,1.757,0,0,1,1.757,1.757Zm0,0" fill="#0b92dd"/>
    <path id="Trazado_2147" data-name="Trazado 2147" d="M377.308,4680.98a1.757,1.757,0,0,1-1.757,1.757h-6.884a1.757,1.757,0,0,1,0-3.515h6.884a1.758,1.758,0,0,1,1.757,1.758Zm-8.641-14.412h6.884a1.757,1.757,0,0,0,0-3.515h-6.884a1.757,1.757,0,0,0,0,3.515Zm0,0" fill="#2d6bd6"/>
    <path id="Trazado_2148" data-name="Trazado 2148" d="M526.442,4731.885a1.758,1.758,0,0,1-1.757,1.758H417.42a1.758,1.758,0,1,1,0-3.515H524.685a1.757,1.757,0,0,1,1.757,1.757Zm0,0" fill="#a1ffbc"/>
    <path id="Trazado_2149" data-name="Trazado 2149" d="M443.224,4763.906a2.348,2.348,0,0,1,.106,2.287,21.64,21.64,0,0,1-9.933,9.78,2.353,2.353,0,0,1-2.3-.146l-7.027-4.521a42.384,42.384,0,0,1-11.522,4.757l-1.988,8.28a2.346,2.346,0,0,1-1.542,1.692,21.673,21.673,0,0,1-13.939-.108,2.35,2.35,0,0,1-1.525-1.732l-1.773-8.162a42.415,42.415,0,0,1-11.507-4.79l-7.265,4.452a2.347,2.347,0,0,1-2.286.106,21.66,21.66,0,0,1-9.78-9.934,2.356,2.356,0,0,1,.146-2.3l4.521-7.026a42.4,42.4,0,0,1-4.757-11.523l-8.28-1.988a2.35,2.35,0,0,1-1.692-1.541,21.674,21.674,0,0,1,.11-13.94,2.353,2.353,0,0,1,1.732-1.525l8.161-1.772a42.442,42.442,0,0,1,4.791-11.508l-4.452-7.264a2.345,2.345,0,0,1-.1-2.287,21.667,21.667,0,0,1,9.933-9.78,2.348,2.348,0,0,1,2.3.149l7.029,4.518a42.477,42.477,0,0,1,10.259-4.421c3.683-1.038,7.568.307,11.585.307,23.543,0,41.4,17.185,41.4,40.729,0,3.819.732,7.518-.209,11.041a42.441,42.441,0,0,1-4.635,10.909Zm0,0" fill="#d3d3d8"/>
    <path id="Trazado_2150" data-name="Trazado 2150" d="M454.663,4734.707a21.937,21.937,0,0,1-1.207,7.132,2.351,2.351,0,0,1-1.731,1.525l-8.162,1.772c-.051.2-.1.4-.155.6a6.769,6.769,0,1,1-13.061-3.561,29.114,29.114,0,0,0-35.581-35.611,6.769,6.769,0,1,1-3.551-13.063c.227-.06.456-.121.684-.175l1.988-8.283a2.343,2.343,0,0,1,1.542-1.689,21.663,21.663,0,0,1,13.94.107,2.356,2.356,0,0,1,1.525,1.732l1.773,8.175a42.479,42.479,0,0,1,11.468,4.8l7.3-4.475a2.343,2.343,0,0,1,2.286-.1,21.664,21.664,0,0,1,9.781,9.933,2.349,2.349,0,0,1-.149,2.3l-4.544,7.065a42.464,42.464,0,0,1,4.768,11.482l8.294,1.99a2.345,2.345,0,0,1,1.69,1.544,21.858,21.858,0,0,1,1.1,6.807Zm0,0" fill="#ececf1"/>
    <path id="Trazado_2151" data-name="Trazado 2151" d="M432.335,4734.693a30.113,30.113,0,1,1-30.114-30.113,30.112,30.112,0,0,1,30.114,30.113Zm0,0" fill="#ffc14f"/>
    <path id="Trazado_2152" data-name="Trazado 2152" d="M426.667,4752.282a30.115,30.115,0,1,1-42.034-42.034,30.116,30.116,0,0,0,42.034,42.034Zm0,0" fill="#ffb52d"/>
    <path id="Trazado_2153" data-name="Trazado 2153" d="M422.3,4730.128a15.826,15.826,0,1,1-15.827-15.827,15.825,15.825,0,0,1,15.827,15.827Zm0,0" fill="#ffcd71"/>
    <path id="Trazado_2154" data-name="Trazado 2154" d="M402.221,4711.461a23.23,23.23,0,1,0,23.23,23.231,23.257,23.257,0,0,0-23.23-23.231Zm0,43.021a19.79,19.79,0,1,1,19.79-19.789,19.811,19.811,0,0,1-19.79,19.789Zm2.484-22.67c-.419-.148-.847-.3-1.275-.463v-7.083a4.525,4.525,0,0,1,1.656.835,1.721,1.721,0,0,0,2.322-2.541,8.231,8.231,0,0,0-3.978-1.813v-1.377a1.721,1.721,0,1,0-3.442,0v1.5c-.2.046-.4.1-.6.16a6.523,6.523,0,0,0-4.471,5.117,5.76,5.76,0,0,0,1.893,5.677,15.016,15.016,0,0,0,3.175,1.832v9.1a6.233,6.233,0,0,1-3.173-1.242,1.72,1.72,0,1,0-1.884,2.879,9.532,9.532,0,0,0,5.057,1.813v1.543a1.721,1.721,0,1,0,3.442,0v-1.686a7.824,7.824,0,0,0,6.008-6.386,6.877,6.877,0,0,0-4.733-7.872Zm-5.768-2.693a2.4,2.4,0,0,1-.636-2.333,3.2,3.2,0,0,1,1.687-2.306v5.331a8.7,8.7,0,0,1-1.051-.692Zm7.107,9.994a4.458,4.458,0,0,1-2.614,3.354v-7.455l.129.046a3.5,3.5,0,0,1,2.485,4.055Zm0,0" fill="#ff9100"/>
  </g>
</svg>
