<svg xmlns="http://www.w3.org/2000/svg" width="171.56" height="209.945" viewBox="0 0 171.56 209.945">
  <g id="Grupo_9245" data-name="Grupo 9245" transform="translate(-927.473 -795.72)">
    <path id="Trazado_3258" data-name="Trazado 3258" d="M1079.96,914.483c-3.8-3.2-7.586-6.307-9.053-11.983-3.617-13.985,2.479-16.137-1.7-29.978s-14.409-10.608-18.586-24.448a17.878,17.878,0,0,1-.807-4.917,36.434,36.434,0,0,0,1.26-6.513c.044-.388.075-.783.1-1.165a37.169,37.169,0,1,0-68.279,17.656c.206.323.419.633.635.954l.013.008a36.939,36.939,0,0,0,4.278,5.114,18.166,18.166,0,0,1,1.662,4.673c3.056,14.131-7.451,16.261-4.394,30.391s9.431,13.058,13.047,27.043c1.468,5.676-.333,10.226-2.12,14.872-1.764,4.651-3.514,9.4-1.952,15.437a32.39,32.39,0,0,0,39.474,23.254l32.371-8.371a32.382,32.382,0,0,0,23.243-39.472C1087.59,921,1083.757,917.7,1079.96,914.483Z" fill="#40327a"/>
    <path id="Trazado_3259" data-name="Trazado 3259" d="M971.734,917.531a12.925,12.925,0,0,1,1.041-4.555l-.014-.006,10.79-25.293.008,0a13,13,0,0,1,12.5-7.892l48.3,2.005a8,8,0,0,1,7.338,10.266l-22.368,75.506h0a23.251,23.251,0,0,1-46.462-1.929l-.165-34.732A13,13,0,0,1,971.734,917.531Z" fill="#ffc7bd"/>
    <path id="Trazado_3260" data-name="Trazado 3260" d="M1045.235,1005.665v-9.771a34.629,34.629,0,0,0-13.381-27.344l-2.506-1.947h-46.5a57.629,57.629,0,0,0-6,25.6v13.466Z" fill="#8b77e8"/>
    <path id="Trazado_3261" data-name="Trazado 3261" d="M927.544,917.283l8.617-67.075-3.527-10.242h.007a6.988,6.988,0,0,1,9.629-8.589V820.009a2,2,0,0,1,4,0v20h-.013l.013,9.668h0l.089,68.809Z" fill="#ff95a9"/>
    <path id="Trazado_3262" data-name="Trazado 3262" d="M927.554,917.282h-.014l7.583-59.01,11.161.715.057,44.157,42.253-21.367a13,13,0,1,1,11.411,23.2l.026.06-59.817,22.315-.007-.015a9.422,9.422,0,0,1-12.653-10.055Z" fill="#ffc7bd"/>
    <rect id="Rectángulo_3601" data-name="Rectángulo 3601" width="6.246" height="2" transform="matrix(0.127, -0.992, 0.992, 0.127, 932.649, 869.68)" fill="#ff95a9"/>
    <rect id="Rectángulo_3602" data-name="Rectángulo 3602" width="3.425" height="2" transform="translate(931.872 875.724) rotate(-82.675)" fill="#ff95a9"/>
    <path id="Trazado_3263" data-name="Trazado 3263" d="M984.728,932.071a13.985,13.985,0,0,0,2.684-.259l-.384-1.963a11.978,11.978,0,0,1-13.333-16.48l.392-.918-.014-.007,6.9-16.177-1.84-.785L971.45,913.5l.045.018a13.831,13.831,0,0,0-.76,3.975,14.015,14.015,0,0,0,13.407,14.568C984.337,932.066,984.533,932.071,984.728,932.071Z" fill="#ff95a9"/>
    <path id="Trazado_3264" data-name="Trazado 3264" d="M990.709,930.725a13.97,13.97,0,0,0,4.31-3.185l-1.474-1.352a11.974,11.974,0,0,1-3.7,2.731Z" fill="#ff95a9"/>
    <path id="Trazado_3265" data-name="Trazado 3265" d="M989,843.512l7.923-30.346L1033.8,820.4l-3.658,18.656.982.192a5,5,0,0,1-1.925,9.813l-.98-.192-4.446,32.073,9.933.412L997.506,903l.96-23.114,3.278.136c.014-.35.043-.7.092-1.055l2.079-15-2.352-.462A16.207,16.207,0,0,1,989,843.512Z" fill="#ff95a9"/>
    <path id="Trazado_3266" data-name="Trazado 3266" d="M1030.143,839.054l.982.192,5.558-28.344-29.211-5.728A14.232,14.232,0,0,0,990.766,816.4l-.109.556.982.192a39.127,39.127,0,0,1,21.627,12.3h0a30.533,30.533,0,0,0,16.877,9.6Z" fill="#40327a"/>
    <path id="Trazado_3267" data-name="Trazado 3267" d="M1038.372,981.056l9.474-1.6,32.492-57.929,15.808,10.274-41.1,55.178-.009-.005a4.985,4.985,0,0,1-1.616,1.386l.007.021-10.543,5.73,0-.006a7,7,0,1,1-4.509-13.047Z" fill="#ff95a9"/>
    <path id="Trazado_3268" data-name="Trazado 3268" d="M1032.278,888.054a13,13,0,0,1,17.846-4.421,13.154,13.154,0,0,1,1.386.979l.007-.011,42.949,34.159-.006.009a9.441,9.441,0,0,1,2.355,12,9.666,9.666,0,0,1-.677,1.026l.011.007-35.543,47.711-9.376-6.1,24.627-43.909L1036.7,905.9A13,13,0,0,1,1032.278,888.054Z" fill="#ffc7bd"/>
    <path id="Trazado_3269" data-name="Trazado 3269" d="M1093.656,936.822l3.912-5.252-.046-.031c.058-.1.113-.189.165-.283a10.386,10.386,0,0,0-1.915-12.67l.022-.034-.7-.575L1081.5,907.168l-1.245,1.564,13.584,10.819a8.364,8.364,0,0,1,1.5,11.645l-.618.828.012.009-2.678,3.594Z" fill="#ff95a9"/>
    <rect id="Rectángulo_3603" data-name="Rectángulo 3603" width="1.999" height="4.799" transform="translate(1073.454 903.324) rotate(-51.49)" fill="#ff95a9"/>
    <rect id="Rectángulo_3604" data-name="Rectángulo 3604" width="7.278" height="2" transform="translate(1006.041 965.611) rotate(-0.061)" fill="#624ac9"/>
    <rect id="Rectángulo_3605" data-name="Rectángulo 3605" width="16.625" height="2" transform="translate(985.386 965.603)" fill="#624ac9"/>
    <path id="Trazado_3270" data-name="Trazado 3270" d="M1004.457,850.142a15.122,15.122,0,0,0,2.862-.275l-.379-1.963a13.082,13.082,0,0,1-5.744-.175,13.358,13.358,0,0,1-2.512-.918l-.872,1.8a15.406,15.406,0,0,0,2.889,1.055A15.177,15.177,0,0,0,1004.457,850.142Z" fill="#e5659b"/>
  </g>
</svg>
