<svg xmlns="http://www.w3.org/2000/svg" width="678.272" height="423.163" viewBox="0 0 678.272 423.163">
  <g id="Grupo_9244" data-name="Grupo 9244" transform="translate(-380.171 -6677.842)">
    <path id="Trazado_3161" data-name="Trazado 3161" d="M1019.091,7077.823s66.458-43.264,26.645-83.725-51.724-35.45-40.263-80.548,57.883-61.874,39.425-96.1c-22.155-41.079-72.663-3.6-104.058,10.781-58.366,26.743-58.017-13.235-35.6-50.635s24.023-99.757-27.743-99.757c-56.3,0-180.041,121.666-248.208,205.751-40.8,50.324-70.532,15.307-66.4-17.024,2.625-20.549,8.088-53.764-4.7-69.048C536,6770.994,470.816,6854.1,447.8,6889.61c-90.075,138.971,19.417,188.213,19.417,188.213Z" fill="#f8f7ff"/>
    <path id="Trazado_3162" data-name="Trazado 3162" d="M516.2,6738.875c2.528-5.79,3.339-10.229,1.544-13.887-5.323-10.847-32.453-12.585-49.83-2.032-24.232,14.716-30.639,54.027-19.546,62.755C461.275,6795.866,503.152,6768.771,516.2,6738.875Z" fill="#f8f7ff"/>
    <g id="Grupo_9199" data-name="Grupo 9199">
      <path id="Trazado_3163" data-name="Trazado 3163" d="M689.213,7089.329h0Z" fill="#ddd6ff"/>
      <rect id="Rectángulo_3506" data-name="Rectángulo 3506" width="204.965" height="1.438" transform="translate(689.214 7088.611)" fill="#c4b8ff"/>
    </g>
    <g id="Grupo_9200" data-name="Grupo 9200">
      <path id="Trazado_3164" data-name="Trazado 3164" d="M844.685,7100.286h0Z" fill="#ddd6ff"/>
      <rect id="Rectángulo_3507" data-name="Rectángulo 3507" width="89.18" height="1.438" transform="translate(844.685 7099.567)" fill="#c4b8ff"/>
    </g>
    <g id="Grupo_9201" data-name="Grupo 9201">
      <path id="Trazado_3165" data-name="Trazado 3165" d="M654.131,7100.286h0Z" fill="#ddd6ff"/>
      <rect id="Rectángulo_3508" data-name="Rectángulo 3508" width="163.122" height="1.438" transform="translate(654.131 7099.567)" fill="#c4b8ff"/>
    </g>
    <g id="Grupo_9202" data-name="Grupo 9202">
      <path id="Trazado_3166" data-name="Trazado 3166" d="M531.4,7100.286h0Z" fill="#ddd6ff"/>
      <rect id="Rectángulo_3509" data-name="Rectángulo 3509" width="24.231" height="1.438" transform="translate(531.396 7099.567)" fill="#c4b8ff"/>
    </g>
    <g id="Grupo_9203" data-name="Grupo 9203">
      <path id="Trazado_3167" data-name="Trazado 3167" d="M562.788,7100.286h0Z" fill="#ddd6ff"/>
      <rect id="Rectángulo_3510" data-name="Rectángulo 3510" width="7.319" height="1.438" transform="translate(562.788 7099.567)" fill="#c4b8ff"/>
    </g>
    <g id="Grupo_9204" data-name="Grupo 9204">
      <path id="Trazado_3168" data-name="Trazado 3168" d="M919.088,7089.5h0Z" fill="#ddd6ff"/>
      <rect id="Rectángulo_3511" data-name="Rectángulo 3511" width="41.68" height="1.438" transform="translate(919.087 7088.778)" fill="#c4b8ff"/>
    </g>
    <g id="Grupo_9205" data-name="Grupo 9205">
      <path id="Trazado_3169" data-name="Trazado 3169" d="M609.635,7089.329h0Z" fill="#ddd6ff"/>
      <rect id="Rectángulo_3512" data-name="Rectángulo 3512" width="63.185" height="1.438" transform="translate(609.635 7088.611)" fill="#c4b8ff"/>
    </g>
    <g id="Grupo_9206" data-name="Grupo 9206">
      <path id="Trazado_3170" data-name="Trazado 3170" d="M485.578,7089.329h0Z" fill="#ddd6ff"/>
      <rect id="Rectángulo_3513" data-name="Rectángulo 3513" width="110.488" height="1.438" transform="translate(485.578 7088.611)" fill="#c4b8ff"/>
    </g>
    <g id="Grupo_9207" data-name="Grupo 9207">
      <path id="Trazado_3171" data-name="Trazado 3171" d="M453.108,7089.329h0Z" fill="#ddd6ff"/>
      <rect id="Rectángulo_3514" data-name="Rectángulo 3514" width="19.306" height="1.438" transform="translate(453.108 7088.611)" fill="#c4b8ff"/>
    </g>
    <rect id="Rectángulo_3515" data-name="Rectángulo 3515" width="264.215" height="340.318" transform="translate(601.484 6737.505)" fill="#ddd6ff"/>
    <path id="Trazado_3172" data-name="Trazado 3172" d="M865.7,6949.853v127.97H601.484v-86.809Z" fill="#c4b8ff"/>
    <rect id="Rectángulo_3516" data-name="Rectángulo 3516" width="311.558" height="235.45" transform="translate(851.317 6751.885) rotate(90)" fill="#fff"/>
    <path id="Trazado_3173" data-name="Trazado 3173" d="M804.749,6837.469l-16.724-13.8,4.576-5.545,11.076,9.14,23.23-29.229,5.629,4.474Z" fill="#ff95a9"/>
    <g id="Grupo_9208" data-name="Grupo 9208">
      <path id="Trazado_3174" data-name="Trazado 3174" d="M750.522,6819.342h0Z" fill="#fff"/>
      <rect id="Rectángulo_3517" data-name="Rectángulo 3517" width="21.809" height="1.438" transform="translate(750.522 6818.624)" fill="#40327a"/>
    </g>
    <g id="Grupo_9209" data-name="Grupo 9209">
      <path id="Trazado_3175" data-name="Trazado 3175" d="M677.068,6819.342h0Z" fill="#fff"/>
      <rect id="Rectángulo_3518" data-name="Rectángulo 3518" width="65.306" height="1.438" transform="translate(677.068 6818.624)" fill="#40327a"/>
    </g>
    <g id="Grupo_9210" data-name="Grupo 9210">
      <path id="Trazado_3176" data-name="Trazado 3176" d="M720.339,6829.884h0Z" fill="#fff"/>
      <rect id="Rectángulo_3519" data-name="Rectángulo 3519" width="51.992" height="1.438" transform="translate(720.339 6829.166)" fill="#40327a"/>
    </g>
    <g id="Grupo_9211" data-name="Grupo 9211">
      <path id="Trazado_3177" data-name="Trazado 3177" d="M714.095,6829.884h0Z" fill="#fff"/>
      <rect id="Rectángulo_3520" data-name="Rectángulo 3520" width="3.008" height="1.438" transform="translate(714.095 6829.166)" fill="#40327a"/>
    </g>
    <g id="Grupo_9212" data-name="Grupo 9212">
      <path id="Trazado_3178" data-name="Trazado 3178" d="M647.47,6829.884h0Z" fill="#fff"/>
      <rect id="Rectángulo_3521" data-name="Rectángulo 3521" width="59.196" height="1.438" transform="translate(647.47 6829.166)" fill="#40327a"/>
    </g>
    <g id="Grupo_9213" data-name="Grupo 9213">
      <path id="Trazado_3179" data-name="Trazado 3179" d="M647.47,6840.426h0Z" fill="#fff"/>
      <rect id="Rectángulo_3522" data-name="Rectángulo 3522" width="84.599" height="1.438" transform="translate(647.47 6839.707)" fill="#40327a"/>
    </g>
    <path id="Trazado_3180" data-name="Trazado 3180" d="M804.749,6892.554l-16.724-13.8,4.576-5.545,11.076,9.139,23.23-29.229,5.628,4.474Z" fill="#ff95a9"/>
    <g id="Grupo_9214" data-name="Grupo 9214">
      <path id="Trazado_3181" data-name="Trazado 3181" d="M677.068,6874.429h0Z" fill="#fff"/>
      <rect id="Rectángulo_3523" data-name="Rectángulo 3523" width="95.263" height="1.438" transform="translate(677.068 6873.709)" fill="#40327a"/>
    </g>
    <g id="Grupo_9215" data-name="Grupo 9215">
      <path id="Trazado_3182" data-name="Trazado 3182" d="M647.47,6874.429h0Z" fill="#fff"/>
      <rect id="Rectángulo_3524" data-name="Rectángulo 3524" width="22.168" height="1.438" transform="translate(647.47 6873.709)" fill="#40327a"/>
    </g>
    <g id="Grupo_9216" data-name="Grupo 9216">
      <path id="Trazado_3183" data-name="Trazado 3183" d="M647.47,6884.97h0Z" fill="#fff"/>
      <rect id="Rectángulo_3525" data-name="Rectángulo 3525" width="115.395" height="1.438" transform="translate(647.47 6884.251)" fill="#40327a"/>
    </g>
    <g id="Grupo_9217" data-name="Grupo 9217">
      <path id="Trazado_3184" data-name="Trazado 3184" d="M689.423,6895.512h0Z" fill="#fff"/>
      <rect id="Rectángulo_3526" data-name="Rectángulo 3526" width="2.384" height="1.438" transform="translate(689.423 6894.793)" fill="#40327a"/>
    </g>
    <g id="Grupo_9218" data-name="Grupo 9218">
      <path id="Trazado_3185" data-name="Trazado 3185" d="M647.47,6895.512h0Z" fill="#fff"/>
      <rect id="Rectángulo_3527" data-name="Rectángulo 3527" width="37.518" height="1.438" transform="translate(647.47 6894.793)" fill="#40327a"/>
    </g>
    <path id="Trazado_3186" data-name="Trazado 3186" d="M804.749,6947.641l-16.724-13.8,4.576-5.545,11.076,9.139,23.23-29.229,5.628,4.474Z" fill="#ff95a9"/>
    <g id="Grupo_9223" data-name="Grupo 9223">
      <g id="Grupo_9219" data-name="Grupo 9219">
        <path id="Trazado_3187" data-name="Trazado 3187" d="M647.47,6929.515h0Z" fill="#fff"/>
        <rect id="Rectángulo_3528" data-name="Rectángulo 3528" width="124.862" height="1.438" transform="translate(647.47 6928.795)" fill="#40327a"/>
      </g>
      <g id="Grupo_9220" data-name="Grupo 9220">
        <path id="Trazado_3188" data-name="Trazado 3188" d="M733.592,6940.057h0Z" fill="#fff"/>
        <rect id="Rectángulo_3529" data-name="Rectángulo 3529" width="38.739" height="1.438" transform="translate(733.592 6939.338)" fill="#40327a"/>
      </g>
      <g id="Grupo_9221" data-name="Grupo 9221">
        <path id="Trazado_3189" data-name="Trazado 3189" d="M647.47,6940.057h0Z" fill="#fff"/>
        <rect id="Rectángulo_3530" data-name="Rectángulo 3530" width="77.17" height="1.438" transform="translate(647.47 6939.338)" fill="#40327a"/>
      </g>
      <g id="Grupo_9222" data-name="Grupo 9222">
        <path id="Trazado_3190" data-name="Trazado 3190" d="M647.47,6950.6h0Z" fill="#fff"/>
        <rect id="Rectángulo_3531" data-name="Rectángulo 3531" width="107.127" height="1.438" transform="translate(647.47 6949.879)" fill="#40327a"/>
      </g>
    </g>
    <g id="Grupo_9224" data-name="Grupo 9224">
      <path id="Trazado_3191" data-name="Trazado 3191" d="M799.531,6840.426H794.9v-7.707Z" fill="#fff"/>
      <path id="Trazado_3192" data-name="Trazado 3192" d="M799.531,6841.145h-5.348v-8.426h1.438v6.988h3.91Z" fill="#7760db"/>
    </g>
    <path id="Trazado_3193" data-name="Trazado 3193" d="M824.38,6841.145H802.968v-1.438h19.974v-21.921h1.438Z" fill="#7760db"/>
    <g id="Grupo_9225" data-name="Grupo 9225">
      <path id="Trazado_3194" data-name="Trazado 3194" d="M812.339,6811.667h0Z" fill="#fff"/>
      <rect id="Rectángulo_3532" data-name="Rectángulo 3532" width="2.112" height="1.438" transform="translate(812.339 6810.948)" fill="#7760db"/>
    </g>
    <g id="Grupo_9226" data-name="Grupo 9226">
      <path id="Trazado_3195" data-name="Trazado 3195" d="M794.9,6814.914v-3.247h14.875Z" fill="#fff"/>
      <path id="Trazado_3196" data-name="Trazado 3196" d="M795.621,6814.914h-1.438v-3.965h15.594v1.438H795.621Z" fill="#7760db"/>
    </g>
    <path id="Trazado_3197" data-name="Trazado 3197" d="M807.71,6896.231H794.183v-3.892h1.438v2.454H807.71Z" fill="#7760db"/>
    <path id="Trazado_3198" data-name="Trazado 3198" d="M824.38,6896.231h-14v-1.438h12.566V6878.47h1.438Z" fill="#7760db"/>
    <rect id="Rectángulo_3533" data-name="Rectángulo 3533" width="1.438" height="2.601" transform="translate(822.942 6872.539)" fill="#7760db"/>
    <path id="Trazado_3199" data-name="Trazado 3199" d="M795.621,6889.61h-1.438v-23.576H814.9v1.438H795.621Z" fill="#7760db"/>
    <path id="Trazado_3200" data-name="Trazado 3200" d="M824.38,6951.317h-30.2V6937.39h1.438v12.489h27.321v-5h1.438Z" fill="#7760db"/>
    <rect id="Rectángulo_3534" data-name="Rectángulo 3534" width="1.438" height="2.394" transform="translate(822.942 6942.485)" fill="#7760db"/>
    <rect id="Rectángulo_3535" data-name="Rectángulo 3535" width="1.438" height="9.074" transform="translate(822.942 6930.232)" fill="#7760db"/>
    <rect id="Rectángulo_3536" data-name="Rectángulo 3536" width="1.438" height="1.795" transform="translate(822.942 6928.438)" fill="#7760db"/>
    <rect id="Rectángulo_3537" data-name="Rectángulo 3537" width="2.097" height="1.438" transform="translate(811.096 6921.121)" fill="#7760db"/>
    <path id="Trazado_3201" data-name="Trazado 3201" d="M795.621,6926.875h-1.438v-5.754H808.64v1.438H795.621Z" fill="#7760db"/>
    <rect id="Rectángulo_3538" data-name="Rectángulo 3538" width="1.438" height="1.973" transform="translate(794.183 6996.108)" fill="#7760db"/>
    <path id="Trazado_3202" data-name="Trazado 3202" d="M824.38,7006.4h-30.2v-5.567h1.438v4.129h27.321v-3.559h1.438Z" fill="#7760db"/>
    <rect id="Rectángulo_3539" data-name="Rectángulo 3539" width="1.438" height="15.997" transform="translate(822.942 6982.083)" fill="#7760db"/>
    <path id="Trazado_3203" data-name="Trazado 3203" d="M804.749,7002.727l-16.724-13.8,4.576-5.545,11.076,9.139,23.23-29.229,5.629,4.474Z" fill="#ff95a9"/>
    <g id="Grupo_9227" data-name="Grupo 9227">
      <path id="Trazado_3204" data-name="Trazado 3204" d="M647.47,6984.6h0Z" fill="#fff"/>
      <rect id="Rectángulo_3540" data-name="Rectángulo 3540" width="115.395" height="1.438" transform="translate(647.47 6983.882)" fill="#40327a"/>
    </g>
    <g id="Grupo_9228" data-name="Grupo 9228">
      <path id="Trazado_3205" data-name="Trazado 3205" d="M681.307,6995.143h0Z" fill="#fff"/>
      <rect id="Rectángulo_3541" data-name="Rectángulo 3541" width="91.024" height="1.438" transform="translate(681.307 6994.423)" fill="#40327a"/>
    </g>
    <g id="Grupo_9229" data-name="Grupo 9229">
      <path id="Trazado_3206" data-name="Trazado 3206" d="M672.634,6995.143h0Z" fill="#fff"/>
      <rect id="Rectángulo_3542" data-name="Rectángulo 3542" width="2.464" height="1.438" transform="translate(672.634 6994.423)" fill="#40327a"/>
    </g>
    <g id="Grupo_9230" data-name="Grupo 9230">
      <path id="Trazado_3207" data-name="Trazado 3207" d="M647.47,6995.143h0Z" fill="#fff"/>
      <rect id="Rectángulo_3543" data-name="Rectángulo 3543" width="16.776" height="1.438" transform="translate(647.47 6994.423)" fill="#40327a"/>
    </g>
    <g id="Grupo_9231" data-name="Grupo 9231">
      <path id="Trazado_3208" data-name="Trazado 3208" d="M647.47,7005.685h0Z" fill="#fff"/>
      <rect id="Rectángulo_3544" data-name="Rectángulo 3544" width="44.337" height="1.438" transform="translate(647.47 7004.966)" fill="#40327a"/>
    </g>
    <rect id="Rectángulo_3545" data-name="Rectángulo 3545" width="235.45" height="1.438" transform="translate(615.867 7062.724)" fill="#40327a"/>
    <path id="Trazado_3209" data-name="Trazado 3209" d="M668.888,6737.5v35.949H798.3V6737.5h-39.73l-10.217-22.036H718.842L708.626,6737.5Z" fill="#c4b8ff"/>
    <path id="Trazado_3210" data-name="Trazado 3210" d="M668.888,6737.5v26.207l129.415-20.16V6737.5h-39.73l-10.217-22.036H718.842L708.626,6737.5Z" fill="#a796f2"/>
    <rect id="Rectángulo_3546" data-name="Rectángulo 3546" width="635.338" height="1.438" transform="translate(406.566 7077.822)" fill="#c4b8ff"/>
    <g id="Grupo_9232" data-name="Grupo 9232">
      <path id="Trazado_3211" data-name="Trazado 3211" d="M900.412,6842.52c-2.114,9.8-5.658,19.231-8.487,28.846-2.911,9.9-5.849,19.966-5.813,30.283a54.041,54.041,0,0,0,14.584,36.506c3.61,3.823,7.825,7.165,10.605,11.627s3.8,10.592.7,14.836c-4.48,6.121-14.063,4.795-20.614,8.619-8.249,4.815-9.4,17.087-4.692,25.4s26.117,32.1,56.674,26.207c13.676-2.636,32.213-15.652,31.685-29.57-.551-14.492-14.39-26.231-13.919-40.726.309-9.5,6.693-17.522,12.219-25.25s10.676-17.145,8.131-26.3c-3.745-13.475-21.1-17.637-29.5-28.817-5.412-7.2-6.6-16.669-6.939-25.67s-.107-18.223-3.109-26.715C934.651,6801.2,908.8,6803.658,900.412,6842.52Z" fill="#c4b8ff"/>
      <rect id="Rectángulo_3547" data-name="Rectángulo 3547" width="1.438" height="156.197" transform="translate(931.808 6894.309)" fill="#40327a"/>
      <path id="Trazado_3212" data-name="Trazado 3212" d="M933.237,6939.441l-1.419-.233c2.325-14.13,18.4-22.918,19.078-23.285l.681,1.266C951.416,6917.276,935.446,6926.015,933.237,6939.441Z" fill="#40327a"/>
      <path id="Trazado_3213" data-name="Trazado 3213" d="M931.818,7000.951c-1.571-9.543-12.956-15.777-13.072-15.838l.682-1.267c.494.265,12.122,6.624,13.809,16.872Z" fill="#40327a"/>
      <path id="Rectángulo_3548" data-name="Rectángulo 3548" d="M0,0H51.766a0,0,0,0,1,0,0V7.962A24.747,24.747,0,0,1,27.019,32.709H24.747A24.747,24.747,0,0,1,0,7.962V0A0,0,0,0,1,0,0Z" transform="translate(906.521 7045.113)" fill="#ffc359"/>
      <path id="Trazado_3214" data-name="Trazado 3214" d="M915.712,7076.425a18.476,18.476,0,0,1-9.91-16.4v-5.486h1.438v5.486a17.045,17.045,0,0,0,9.141,15.123Z" fill="#40327a"/>
      <rect id="Rectángulo_3549" data-name="Rectángulo 3549" width="51.766" height="1.438" transform="translate(906.521 7049.786)" fill="#fff"/>
      <rect id="Rectángulo_3550" data-name="Rectángulo 3550" width="32.975" height="1.438" transform="translate(925.312 7044.394)" fill="#40327a"/>
      <rect id="Rectángulo_3551" data-name="Rectángulo 3551" width="37.114" height="1.438" transform="translate(933.045 7077.822)" fill="#40327a"/>
    </g>
    <rect id="Rectángulo_3552" data-name="Rectángulo 3552" width="66.576" height="1.438" transform="translate(459.051 7077.822)" fill="#40327a"/>
    <rect id="Rectángulo_3553" data-name="Rectángulo 3553" width="6.755" height="1.438" transform="translate(756.11 7077.822)" fill="#40327a"/>
    <rect id="Rectángulo_3554" data-name="Rectángulo 3554" width="205.857" height="1.438" transform="translate(541.865 7077.822)" fill="#40327a"/>
    <rect id="Rectángulo_3555" data-name="Rectángulo 3555" width="98.739" height="1.438" transform="translate(786.183 7077.822)" fill="#40327a"/>
    <rect id="Rectángulo_3556" data-name="Rectángulo 3556" width="5.213" height="1.438" transform="translate(443.413 7077.822)" fill="#40327a"/>
    <rect id="Rectángulo_3557" data-name="Rectángulo 3557" width="14.02" height="1.438" transform="translate(977.789 7077.822)" fill="#40327a"/>
    <rect id="Rectángulo_3558" data-name="Rectángulo 3558" width="1.438" height="33.672" transform="translate(864.98 7033.612)" fill="#7760db"/>
    <rect id="Rectángulo_3559" data-name="Rectángulo 3559" width="1.438" height="139.806" transform="translate(864.98 6878.47)" fill="#7760db"/>
    <rect id="Rectángulo_3560" data-name="Rectángulo 3560" width="1.438" height="43.017" transform="translate(600.765 6974.418)" fill="#7760db"/>
    <rect id="Rectángulo_3561" data-name="Rectángulo 3561" width="1.438" height="2.939" transform="translate(600.765 6964.65)" fill="#7760db"/>
    <rect id="Rectángulo_3562" data-name="Rectángulo 3562" width="1.438" height="34.626" transform="translate(600.765 6926.49)" fill="#7760db"/>
    <path id="Trazado_3215" data-name="Trazado 3215" d="M799.022,6774.172H730.329v-1.438h67.255V6737.5h1.438Z" fill="#7760db"/>
    <rect id="Rectángulo_3563" data-name="Rectángulo 3563" width="41.96" height="1.438" transform="translate(680.552 6772.734)" fill="#7760db"/>
    <path id="Trazado_3216" data-name="Trazado 3216" d="M866.418,6793.1H864.98v-54.873H844.165v-1.438h22.253Z" fill="#a796f2"/>
    <rect id="Rectángulo_3564" data-name="Rectángulo 3564" width="10.308" height="1.438" transform="translate(827.631 6736.786)" fill="#a796f2"/>
    <circle id="Elipse_26" data-name="Elipse 26" cx="6.141" cy="6.141" r="6.141" transform="matrix(0.16, -0.987, 0.987, 0.16, 726.55, 6733.607)" fill="#fff"/>
    <path id="Trazado_3217" data-name="Trazado 3217" d="M740.135,6730.6l-1.37-.434a5.428,5.428,0,0,0-5.17-7.063,5.391,5.391,0,0,0-4.866,3.029l-1.29-.636a6.861,6.861,0,0,1,12.7,5.1Z" fill="#7760db"/>
    <path id="Trazado_3218" data-name="Trazado 3218" d="M733.595,6735.389a6.868,6.868,0,0,1-6.859-6.86l0-.2,1.438.038,0,.159a5.424,5.424,0,0,0,7.081,5.163l.439,1.369A6.863,6.863,0,0,1,733.595,6735.389Z" fill="#7760db"/>
    <path id="Trazado_3219" data-name="Trazado 3219" d="M795.621,6987.359h-1.438v-11.152h17.961v1.438H795.621Z" fill="#7760db"/>
    <path id="Trazado_3220" data-name="Trazado 3220" d="M386.642,6913.941a6.47,6.47,0,1,1,6.471-6.47A6.477,6.477,0,0,1,386.642,6913.941Zm0-11.5a5.032,5.032,0,1,0,5.033,5.033A5.039,5.039,0,0,0,386.642,6902.438Z" fill="#c4b8ff"/>
    <g id="Grupo_9239" data-name="Grupo 9239">
      <g id="Grupo_9233" data-name="Grupo 9233">
        <rect id="Rectángulo_3565" data-name="Rectángulo 3565" width="1.438" height="6.163" transform="translate(965.592 6739.882)" fill="#c4b8ff"/>
        <rect id="Rectángulo_3566" data-name="Rectángulo 3566" width="1.438" height="6.163" transform="translate(965.592 6776.858)" fill="#c4b8ff"/>
      </g>
      <g id="Grupo_9234" data-name="Grupo 9234">
        <rect id="Rectángulo_3567" data-name="Rectángulo 3567" width="1.438" height="6.162" transform="translate(954.904 6743.132) rotate(-30)" fill="#c4b8ff"/>
        <rect id="Rectángulo_3568" data-name="Rectángulo 3568" width="1.438" height="6.163" transform="matrix(0.866, -0.5, 0.5, 0.866, 973.392, 6775.153)" fill="#c4b8ff"/>
      </g>
      <g id="Grupo_9235" data-name="Grupo 9235">
        <rect id="Rectángulo_3569" data-name="Rectángulo 3569" width="1.438" height="6.163" transform="translate(947.272 6751.29) rotate(-59.998)" fill="#c4b8ff"/>
        <rect id="Rectángulo_3570" data-name="Rectángulo 3570" width="1.438" height="6.162" transform="translate(979.294 6769.778) rotate(-60.003)" fill="#c4b8ff"/>
      </g>
      <g id="Grupo_9236" data-name="Grupo 9236">
        <rect id="Rectángulo_3571" data-name="Rectángulo 3571" width="6.163" height="1.438" transform="translate(944.742 6760.732)" fill="#c4b8ff"/>
        <rect id="Rectángulo_3572" data-name="Rectángulo 3572" width="6.163" height="1.438" transform="translate(981.718 6760.732)" fill="#c4b8ff"/>
      </g>
      <g id="Grupo_9237" data-name="Grupo 9237">
        <rect id="Rectángulo_3573" data-name="Rectángulo 3573" width="6.163" height="1.438" transform="translate(947.272 6771.613) rotate(-29.995)" fill="#c4b8ff"/>
        <rect id="Rectángulo_3574" data-name="Rectángulo 3574" width="6.163" height="1.438" transform="matrix(0.866, -0.5, 0.5, 0.866, 979.294, 6753.125)" fill="#c4b8ff"/>
      </g>
      <g id="Grupo_9238" data-name="Grupo 9238">
        <rect id="Rectángulo_3575" data-name="Rectángulo 3575" width="6.163" height="1.438" transform="translate(954.904 6779.772) rotate(-60.005)" fill="#c4b8ff"/>
        <rect id="Rectángulo_3576" data-name="Rectángulo 3576" width="6.162" height="1.438" transform="translate(973.392 6747.75) rotate(-60.005)" fill="#c4b8ff"/>
      </g>
    </g>
    <path id="Trazado_3221" data-name="Trazado 3221" d="M643.707,6707.32h-1.438a10.077,10.077,0,0,0-10.066-10.066v-1.437a10.077,10.077,0,0,0,10.066-10.066h1.438a10.077,10.077,0,0,0,10.065,10.066v1.437A10.077,10.077,0,0,0,643.707,6707.32Zm-7.5-10.785a11.567,11.567,0,0,1,6.78,6.78,6.78,6.78,0,1,0,0-13.559A11.564,11.564,0,0,1,636.208,6696.535Z" fill="#c4b8ff"/>
    <rect id="Rectángulo_3577" data-name="Rectángulo 3577" width="1.438" height="37.222" transform="translate(668.169 6737.505)" fill="#fff"/>
    <g id="Grupo_9243" data-name="Grupo 9243">
      <path id="Trazado_3222" data-name="Trazado 3222" d="M575.164,6798.8l7.925-1.363,9.987,41.6-13.364,2.3Z" fill="#ffc7bd"/>
      <g id="Grupo_9240" data-name="Grupo 9240">
        <rect id="Rectángulo_3578" data-name="Rectángulo 3578" width="196.516" height="10.765" transform="matrix(0.969, -0.247, 0.247, 0.969, 445.735, 6853.239)" fill="#ff9d45"/>
        <rect id="Rectángulo_3579" data-name="Rectángulo 3579" width="196.516" height="10.765" transform="translate(443.081 6842.806) rotate(-14.272)" fill="#ffc359"/>
        <rect id="Rectángulo_3580" data-name="Rectángulo 3580" width="196.516" height="10.765" transform="translate(440.428 6832.373) rotate(-14.272)" fill="#ffc359"/>
        <rect id="Rectángulo_3581" data-name="Rectángulo 3581" width="16.148" height="32.296" transform="translate(409.129 6840.335) rotate(-14.272)" fill="#ff809f"/>
        <rect id="Rectángulo_3582" data-name="Rectángulo 3582" width="16.148" height="32.296" transform="translate(424.778 6836.354) rotate(-14.272)" fill="#eeebff"/>
        <path id="Trazado_3223" data-name="Trazado 3223" d="M683.579,6787.183l-52.7-3.256,7.962,31.3Z" fill="#eeebff"/>
        <path id="Trazado_3224" data-name="Trazado 3224" d="M667.754,6797.1l-28.915,18.124-2.65-10.433,30.626-11.38Z" fill="#ddd6ff"/>
        <path id="Trazado_3225" data-name="Trazado 3225" d="M683.581,6787.182l-15.827,9.922-.939-3.689Z" fill="#e5659b"/>
        <path id="Trazado_3226" data-name="Trazado 3226" d="M683.581,6787.182l-16.766,6.233-1.878-7.387Z" fill="#ff809f"/>
        <rect id="Rectángulo_3583" data-name="Rectángulo 3583" width="16.148" height="10.765" transform="matrix(0.969, -0.247, 0.247, 0.969, 430.086, 6857.22)" fill="#ddd6ff"/>
        <rect id="Rectángulo_3584" data-name="Rectángulo 3584" width="16.148" height="10.765" transform="translate(414.436 6861.201) rotate(-14.272)" fill="#e5659b"/>
        <rect id="Rectángulo_3585" data-name="Rectángulo 3585" width="153.95" height="1.437" transform="matrix(0.969, -0.247, 0.247, 0.969, 480.403, 6854.666)" fill="#40327a"/>
        <rect id="Rectángulo_3586" data-name="Rectángulo 3586" width="31.305" height="1.437" transform="matrix(0.969, -0.247, 0.247, 0.969, 441.641, 6864.65)" fill="#7760db"/>
        <path id="Trazado_3227" data-name="Trazado 3227" d="M416.57,6872.508l-5.53-21.74,1.394-.354,5.175,20.346,21.367-5.435.355,1.393Z" fill="#7760db"/>
        <path id="Trazado_3228" data-name="Trazado 3228" d="M409.911,6846.326l-1.656-6.511,16.346-4.158.355,1.393-14.953,3.8,1.3,5.118Z" fill="#7760db"/>
        <rect id="Rectángulo_3587" data-name="Rectángulo 3587" width="1.438" height="27.858" transform="translate(439.731 6832.55) rotate(-14.272)" fill="#fff"/>
        <rect id="Rectángulo_3588" data-name="Rectángulo 3588" width="1.438" height="3.062" transform="translate(428.634 6854.429) rotate(-14.271)" fill="#fff"/>
        <rect id="Rectángulo_3589" data-name="Rectángulo 3589" width="1.438" height="8.304" transform="matrix(0.969, -0.247, 0.247, 0.969, 425.91, 6843.721)" fill="#fff"/>
        <rect id="Rectángulo_3590" data-name="Rectángulo 3590" width="1.438" height="21.533" transform="translate(630.182 6784.104) rotate(-14.277)" fill="#fff"/>
      </g>
      <path id="Trazado_3229" data-name="Trazado 3229" d="M545.2,6795.51l-3.7-11.866Z" fill="none"/>
      <path id="Trazado_3230" data-name="Trazado 3230" d="M496.681,6875.282c2.253-3.044,4.5-6.016,4.587-10.48.2-11-4.693-11.519-4.048-22.513s8.8-10.411,9.444-21.405a13.627,13.627,0,0,0-.272-3.786,27.765,27.765,0,0,1-2.087-4.6c-.1-.28-.194-.567-.278-.846a28.316,28.316,0,1,1,53.716,1c-.095.276-.2.543-.3.819l-.008.008a28.105,28.105,0,0,1-2.265,4.547,13.885,13.885,0,0,0-.4,3.756c.236,11.011,8.4,10.73,8.635,21.741s-4.677,11.344-4.881,22.347c-.083,4.465,2.057,7.518,4.2,10.644s4.267,6.342,4.179,11.093a24.674,24.674,0,0,1-25.133,24.216l-25.466-.472a24.669,24.669,0,0,1-24.209-25.133C492.181,6881.462,494.436,6878.335,496.681,6875.282Z" fill="#40327a"/>
      <circle id="Elipse_27" data-name="Elipse 27" cx="16.717" cy="16.717" r="16.717" transform="translate(517.38 6900.358) rotate(-48.824)" fill="#ffc7bd"/>
      <circle id="Elipse_28" data-name="Elipse 28" cx="9.347" cy="9.347" r="9.347" transform="matrix(0.658, -0.753, 0.753, 0.658, 534.047, 6846.41)" fill="#ff95a9"/>
      <path id="Trazado_3231" data-name="Trazado 3231" d="M584.884,6834.013a6.792,6.792,0,1,1-5.018,8.189A6.792,6.792,0,0,1,584.884,6834.013Z" fill="#ffc7bd"/>
      <path id="Trazado_3232" data-name="Trazado 3232" d="M546.688,6836.194l39.384-2.358,1.674,13.452-38.754,7.418Z" fill="#ffc7bd"/>
      <circle id="Elipse_29" data-name="Elipse 29" cx="4.673" cy="4.673" r="4.673" transform="translate(488.649 7066.678)" fill="#ff95a9"/>
      <circle id="Elipse_30" data-name="Elipse 30" cx="4.673" cy="4.673" r="4.673" transform="translate(541.865 7066.678)" fill="#8b77e8"/>
      <path id="Trazado_3233" data-name="Trazado 3233" d="M556.575,6845.337l1.073,52.33-33.359,2.23-17.447-53.865a5.751,5.751,0,0,1,5.088-7.511l34.677-2.318A9.346,9.346,0,0,1,556.575,6845.337Z" fill="#ffc7bd"/>
      <circle id="Elipse_31" data-name="Elipse 31" cx="9.347" cy="9.347" r="9.347" transform="translate(536.063 6838.462) rotate(-12.696)" fill="#ffc7bd"/>
      <path id="Trazado_3234" data-name="Trazado 3234" d="M557.686,6898.793H524.252l-1.8,1.4a24.9,24.9,0,0,0-9.62,19.659v7.19a10.066,10.066,0,0,0,10.066,10.066h29.035A10.066,10.066,0,0,0,562,6927.042v-9.847A41.441,41.441,0,0,0,557.686,6898.793Z" fill="#8b77e8"/>
      <path id="Trazado_3235" data-name="Trazado 3235" d="M564.776,6862.888a9.318,9.318,0,0,0-.831-3.255l.01,0-8.214-17.983-17.009,7.765,8.214,17.984.009,0a9.341,9.341,0,0,0,17.821-4.5Z" fill="#ffc7bd"/>
      <rect id="Rectángulo_3591" data-name="Rectángulo 3591" width="1.438" height="2.954" transform="translate(556.995 6846.121) rotate(-24.552)" fill="#ff95a9"/>
      <path id="Trazado_3236" data-name="Trazado 3236" d="M555.432,6873.579a9.892,9.892,0,0,1-3.953-.819l.57-1.32a8.518,8.518,0,0,0,3.977.68,8.607,8.607,0,0,0,7.265-12.188l-.3-.67.009,0-3.608-7.9,1.308-.6,4.22,9.238-.034.014a9.948,9.948,0,0,1,.613,2.826,10.08,10.08,0,0,1-9.372,10.716C555.891,6873.571,555.661,6873.579,555.432,6873.579Z" fill="#ff95a9"/>
      <path id="Trazado_3237" data-name="Trazado 3237" d="M505.081,6853.03a9.347,9.347,0,1,0,2.561-12.967A9.346,9.346,0,0,0,505.081,6853.03Z" fill="#ffc7bd"/>
      <path id="Trazado_3238" data-name="Trazado 3238" d="M506.675,6840.806,477,6866.813l8.265,10.744,32.779-21.965Z" fill="#ffc7bd"/>
      <circle id="Elipse_32" data-name="Elipse 32" cx="10.066" cy="10.066" r="10.066" transform="translate(541.865 6916.974)" fill="#8b77e8"/>
      <circle id="Elipse_33" data-name="Elipse 33" cx="10.066" cy="10.066" r="10.066" transform="translate(512.83 6916.974)" fill="#8b77e8"/>
      <circle id="Elipse_34" data-name="Elipse 34" cx="8.132" cy="8.132" r="8.132" transform="translate(541.865 6970.955)" fill="#8b77e8"/>
      <g id="Grupo_9241" data-name="Grupo 9241">
        <path id="Trazado_3239" data-name="Trazado 3239" d="M541.866,6927.04v52.047l16.24.612,3.864-51.9Z" fill="#ff95a9"/>
      </g>
      <g id="Grupo_9242" data-name="Grupo 9242">
        <rect id="Rectángulo_3592" data-name="Rectángulo 3592" width="15.817" height="19.477" transform="translate(542.475 6835.95) rotate(172.349)" fill="#ff95a9"/>
        <path id="Trazado_3240" data-name="Trazado 3240" d="M526.8,6838.056a7.909,7.909,0,1,0,6.786-8.891A7.909,7.909,0,0,0,526.8,6838.056Z" fill="#ff95a9"/>
      </g>
      <path id="Trazado_3241" data-name="Trazado 3241" d="M522.572,6812.134l3.563-.479-.958-7.125-3.562.478a3.6,3.6,0,0,0-3.085,4.042h0A3.6,3.6,0,0,0,522.572,6812.134Z" fill="#ff95a9"/>
      <path id="Trazado_3242" data-name="Trazado 3242" d="M547.286,6787.768l-26.779,3.6,4.644,34.568,16.631-2.234a11.652,11.652,0,0,0,9.88-13.81Z" fill="#ff95a9"/>
      <path id="Trazado_3243" data-name="Trazado 3243" d="M522.327,6804.912l-.712.1-2.765-20.582,21.211-2.849a10.233,10.233,0,0,1,11.505,8.78l.054.4-.713.1a28.131,28.131,0,0,0-16.053,7.9h0a21.955,21.955,0,0,1-12.527,6.161Z" fill="#40327a"/>
      <path id="Trazado_3244" data-name="Trazado 3244" d="M545.989,6852.914l-1.109-16.6-25.3,1.691Z" fill="#ff95a9"/>
      <path id="Trazado_3245" data-name="Trazado 3245" d="M558.1,6979.7l-6.907,92-9.333-.355v-92.264Z" fill="#ff95a9"/>
      <path id="Trazado_3246" data-name="Trazado 3246" d="M516.819,6909.872a3.595,3.595,0,1,1-3.719-3.465A3.594,3.594,0,0,1,516.819,6909.872Z" fill="#ff95a9"/>
      <path id="Trazado_3247" data-name="Trazado 3247" d="M522.078,6916.161a5.03,5.03,0,0,1-1.641-.218v0l-8.255-2.507.919-7.033,8.622-.306a5.033,5.033,0,0,1,.356,10.06Z" fill="#ff95a9"/>
      <path id="Trazado_3248" data-name="Trazado 3248" d="M485.491,6877.4a6.792,6.792,0,1,0-9.489-1.484A6.791,6.791,0,0,0,485.491,6877.4Z" fill="#ffc7bd"/>
      <path id="Trazado_3249" data-name="Trazado 3249" d="M476.568,6876.6l34.055,35.88,5.509-4.6-29.156-39.968Z" fill="#ff95a9"/>
      <path id="Trazado_3250" data-name="Trazado 3250" d="M506.014,6907.624l6.173-5.153-25.211-34.561-10.41,8.689Z" fill="#ffc7bd"/>
      <path id="Trazado_3251" data-name="Trazado 3251" d="M512.968,6925.369l-24.255,145.206,9.15,1.885,34.813-143.031Z" fill="#ff95a9"/>
      <path id="Trazado_3252" data-name="Trazado 3252" d="M488.649,7071.351h9.346v6.471H484.9a2,2,0,0,1-2-2h0a2,2,0,0,1,1-1.737Z" fill="#40327a"/>
      <path id="Trazado_3253" data-name="Trazado 3253" d="M546.476,6812.887a3.954,3.954,0,0,1-7.815,1.215Z" fill="#fff"/>
      <rect id="Rectángulo_3593" data-name="Rectángulo 3593" width="4.212" height="1.438" transform="matrix(0.165, -0.986, 0.986, 0.165, 488.654, 7066.559)" fill="#624ac9"/>
      <rect id="Rectángulo_3594" data-name="Rectángulo 3594" width="1.438" height="4.649" transform="translate(541.146 6958.063)" fill="#624ac9"/>
      <rect id="Rectángulo_3595" data-name="Rectángulo 3595" width="3.078" height="1.438" transform="translate(493.976 6870.857) rotate(-33.815)" fill="#ff95a9"/>
      <rect id="Rectángulo_3596" data-name="Rectángulo 3596" width="19.321" height="1.438" transform="translate(498.899 6867.555) rotate(-33.812)" fill="#ff95a9"/>
      <rect id="Rectángulo_3597" data-name="Rectángulo 3597" width="28.345" height="1.438" transform="translate(553.081 6835.092) rotate(-3.432)" fill="#ff95a9"/>
      <rect id="Rectángulo_3598" data-name="Rectángulo 3598" width="29.055" height="1.437" transform="matrix(0.969, -0.247, 0.247, 0.969, 561.07, 6800.945)" fill="#7760db"/>
      <path id="Trazado_3254" data-name="Trazado 3254" d="M573.409,6797.03a3.595,3.595,0,1,1,4.833,1.577A3.594,3.594,0,0,1,573.409,6797.03Z" fill="#ff95a9"/>
      <path id="Trazado_3255" data-name="Trazado 3255" d="M565.991,6793.541a5.023,5.023,0,0,1,1.58-.493v0l8.543-1.2,2.129,6.766-7.692,3.908a5.033,5.033,0,0,1-4.559-8.974Z" fill="#ff95a9"/>
      <path id="Trazado_3256" data-name="Trazado 3256" d="M504.812,6974.2h53.7l3.454-46.4-49-2.429Z" fill="#8b77e8"/>
      <rect id="Rectángulo_3599" data-name="Rectángulo 3599" width="131.46" height="1.438" transform="translate(489.755 7059.857) rotate(-80.5)" fill="#624ac9"/>
      <rect id="Rectángulo_3600" data-name="Rectángulo 3600" width="1.438" height="84.41" transform="translate(541.146 6982.268)" fill="#624ac9"/>
      <path id="Trazado_3257" data-name="Trazado 3257" d="M551.211,7071.351h-9.346v6.471h13.1a2,2,0,0,0,2-2h0a2,2,0,0,0-1.005-1.737Z" fill="#40327a"/>
    </g>
  </g>
</svg>
