<svg xmlns="http://www.w3.org/2000/svg" xmlns:xlink="http://www.w3.org/1999/xlink" width="179.969" height="179.969" viewBox="0 0 179.969 179.969">
  <defs>
    <clipPath id="clip-path">
      <rect id="Rectángulo_3504" data-name="Rectángulo 3504" width="179.969" height="179.969" transform="translate(349.089 5950.015)" fill="none"/>
    </clipPath>
  </defs>
  <g id="Grupo_9197" data-name="Grupo 9197" transform="translate(-349.089 -5950.015)">
    <g id="Grupo_9195" data-name="Grupo 9195">
      <g id="Grupo_9194" data-name="Grupo 9194" clip-path="url(#clip-path)">
        <path id="Trazado_3057" data-name="Trazado 3057" d="M439.073,5950.015A89.984,89.984,0,1,1,349.089,6040a89.984,89.984,0,0,1,89.984-89.985Z" fill="#5fc6ff"/>
        <path id="Trazado_3058" data-name="Trazado 3058" d="M502.445,6003.548l-145.576.065c0,2.667.019,40.434.033,73.108a90,90,0,0,0,145.588,27.114c-.015-33.809-.044-97.034-.045-100.287Z" fill="#fff"/>
      </g>
    </g>
    <path id="Trazado_3059" data-name="Trazado 3059" d="M374.311,6003.606l-17.441.007c0,2.667.018,40.434.033,73.108a90.1,90.1,0,0,0,17.452,25.789c-.022-49.555-.043-94.9-.044-98.9Z" fill="#eef6ff"/>
    <path id="Trazado_3060" data-name="Trazado 3060" d="M497.273,5961.508,362,5961.569a5.362,5.362,0,0,0-5.151,5.523l.016,36.521,145.576-.065-.016-36.521a5.364,5.364,0,0,0-5.156-5.519Z" fill="#fbb808"/>
    <path id="Trazado_3061" data-name="Trazado 3061" d="M497.273,5961.508,362,5961.569a5.362,5.362,0,0,0-5.151,5.523l.016,36.521,145.576-.065-.016-36.521a5.364,5.364,0,0,0-5.156-5.519Z" fill="#ea506b"/>
    <path id="Trazado_3062" data-name="Trazado 3062" d="M379.445,5961.561l-17.441.008a5.362,5.362,0,0,0-5.151,5.523l.017,36.521,17.441-.008-.017-36.521a5.363,5.363,0,0,1,5.151-5.523Z" fill="#e83953"/>
    <path id="Trazado_3063" data-name="Trazado 3063" d="M380.045,5975.8a6.056,6.056,0,1,0,6.12,6.053,6.095,6.095,0,0,0-6.12-6.053Z" fill="#e83953"/>
    <path id="Trazado_3064" data-name="Trazado 3064" d="M479.244,5975.757a6.055,6.055,0,1,0,6.12,6.052,6.093,6.093,0,0,0-6.12-6.052Z" fill="#e83953"/>
    <path id="Trazado_3065" data-name="Trazado 3065" d="M454.445,5975.768a6.056,6.056,0,1,0,6.119,6.053,6.093,6.093,0,0,0-6.119-6.053Z" fill="#e83953"/>
    <path id="Trazado_3066" data-name="Trazado 3066" d="M429.645,5975.779a6.055,6.055,0,1,0,6.12,6.053,6.094,6.094,0,0,0-6.12-6.053Z" fill="#e83953"/>
    <path id="Trazado_3067" data-name="Trazado 3067" d="M404.845,5975.79a6.056,6.056,0,1,0,6.12,6.053,6.094,6.094,0,0,0-6.12-6.053Z" fill="#e83953"/>
    <path id="Trazado_3068" data-name="Trazado 3068" d="M357.5,6013.433l6.153,3.026a2.951,2.951,0,0,0,2.622,0l5.464-2.693a2.948,2.948,0,0,1,2.621,0l5.468,2.688a2.952,2.952,0,0,0,2.621,0l5.464-2.692a2.952,2.952,0,0,1,2.621,0l5.467,2.688a2.945,2.945,0,0,0,2.621,0l5.465-2.692a2.948,2.948,0,0,1,2.621,0l5.468,2.688a2.948,2.948,0,0,0,2.621,0l5.464-2.692a2.952,2.952,0,0,1,2.621,0l5.467,2.688a2.951,2.951,0,0,0,2.622,0l5.464-2.693a2.955,2.955,0,0,1,2.621,0l5.467,2.688a2.952,2.952,0,0,0,2.621,0l5.465-2.693a2.952,2.952,0,0,1,2.621,0l5.468,2.688a2.954,2.954,0,0,0,2.622,0l5.465-2.693a2.951,2.951,0,0,1,2.622,0l5.468,2.688a2.955,2.955,0,0,0,2.621,0l5.467-2.693a2.953,2.953,0,0,1,2.62,0l5.47,2.689a2.952,2.952,0,0,0,2.621,0l6.155-3.032a2.919,2.919,0,0,1,.623-.224c0-5.394,0-8.894,0-9.6l-145.575.065c0,.746,0,4.239,0,9.6a2.9,2.9,0,0,1,.623.222Z" fill="#eeebed"/>
    <path id="Trazado_3069" data-name="Trazado 3069" d="M363.651,6016.459a2.951,2.951,0,0,0,2.622,0l5.464-2.693a2.944,2.944,0,0,1,2.578-.019c0-5.569,0-9.142,0-10.14l-17.441.007c0,.746,0,4.239,0,9.6a3,3,0,0,1,.624.224l6.153,3.026Z" fill="#c0babe"/>
    <path id="Trazado_3070" data-name="Trazado 3070" d="M380.049,5984.184a3.033,3.033,0,0,1-3.035-3.032l-.011-24.28a3.034,3.034,0,1,1,6.067,0l.011,24.28a3.033,3.033,0,0,1-3.032,3.035Z" fill="#d5ced2"/>
    <path id="Trazado_3071" data-name="Trazado 3071" d="M404.849,5984.173a3.033,3.033,0,0,1-3.035-3.032l-.011-24.28a3.033,3.033,0,0,1,6.067,0l.011,24.28a3.034,3.034,0,0,1-3.032,3.035Z" fill="#d5ced2"/>
    <path id="Trazado_3072" data-name="Trazado 3072" d="M429.649,5984.162a3.033,3.033,0,0,1-3.035-3.032l-.011-24.28a3.033,3.033,0,1,1,6.066,0l.011,24.28a3.032,3.032,0,0,1-3.031,3.035Z" fill="#d5ced2"/>
    <path id="Trazado_3073" data-name="Trazado 3073" d="M454.448,5984.151a3.033,3.033,0,0,1-3.034-3.032l-.011-24.28a3.033,3.033,0,1,1,6.066,0l.011,24.28a3.033,3.033,0,0,1-3.032,3.035Z" fill="#d5ced2"/>
    <path id="Trazado_3074" data-name="Trazado 3074" d="M479.248,5984.139a3.033,3.033,0,0,1-3.035-3.032l-.01-24.279a3.033,3.033,0,1,1,6.066,0l.011,24.28a3.032,3.032,0,0,1-3.032,3.034Z" fill="#b6d7ed"/>
    <path id="Trazado_3075" data-name="Trazado 3075" d="M483.61,6050.93l-14.466.006a1.414,1.414,0,0,1-1.415-1.414l-.006-14.466a1.415,1.415,0,0,1,1.414-1.416l14.466-.006a1.416,1.416,0,0,1,1.416,1.414l.006,14.466a1.415,1.415,0,0,1-1.415,1.416Z" fill="#d5ced2"/>
    <path id="Trazado_3076" data-name="Trazado 3076" d="M390.226,6079.477l-14.467.006a1.413,1.413,0,0,1-1.415-1.414l-.007-14.466a1.415,1.415,0,0,1,1.415-1.415l14.466-.007a1.415,1.415,0,0,1,1.415,1.415l.007,14.466a1.415,1.415,0,0,1-1.414,1.415Z" fill="#d5ced2"/>
    <path id="Trazado_3077" data-name="Trazado 3077" d="M390.231,6090.686l-14.467.007a1.415,1.415,0,0,0-1.414,1.415l.005,10.4q2.763,2.86,5.77,5.474l10.113,0a1.416,1.416,0,0,0,1.415-1.416l-.007-14.466a1.415,1.415,0,0,0-1.415-1.414Z" fill="#d5ced2"/>
    <path id="Trazado_3078" data-name="Trazado 3078" d="M382.992,6078.065l-.007-14.466a1.415,1.415,0,0,1,1.415-1.415l-8.648,0a1.416,1.416,0,0,0-1.415,1.416l.007,14.466a1.413,1.413,0,0,0,1.415,1.414l8.648,0a1.415,1.415,0,0,1-1.415-1.415Z" fill="#c0babe"/>
    <path id="Trazado_3079" data-name="Trazado 3079" d="M383.005,6106.571,383,6092.1a1.416,1.416,0,0,1,1.415-1.416l-8.648,0a1.416,1.416,0,0,0-1.415,1.416l.005,10.4q2.764,2.86,5.77,5.475l4.3,0a1.415,1.415,0,0,1-1.415-1.414Z" fill="#c0babe"/>
    <path id="Trazado_3080" data-name="Trazado 3080" d="M421.371,6107.968l-14.466.007a1.415,1.415,0,0,1-1.416-1.415l-.006-14.466a1.414,1.414,0,0,1,1.414-1.415l14.467-.007a1.416,1.416,0,0,1,1.415,1.415l.006,14.466a1.414,1.414,0,0,1-1.414,1.415Z" fill="#d5ced2"/>
    <path id="Trazado_3081" data-name="Trazado 3081" d="M452.5,6107.954l-14.467.007a1.415,1.415,0,0,1-1.415-1.415l-.007-14.466a1.414,1.414,0,0,1,1.415-1.415l14.466-.007a1.414,1.414,0,0,1,1.415,1.414l.007,14.467a1.415,1.415,0,0,1-1.414,1.415Z" fill="#d5ced2"/>
    <path id="Trazado_3082" data-name="Trazado 3082" d="M483.636,6107.941l-14.466.006a1.415,1.415,0,0,1-1.416-1.414l-.006-14.467a1.415,1.415,0,0,1,1.414-1.415l14.467-.007a1.415,1.415,0,0,1,1.415,1.415l.006,14.466a1.415,1.415,0,0,1-1.414,1.416Z" fill="#d5ced2"/>
    <path id="Trazado_3083" data-name="Trazado 3083" d="M483.636,6079.477l-14.466.006a1.414,1.414,0,0,1-1.416-1.414l-.006-14.466a1.416,1.416,0,0,1,1.414-1.416l14.467-.006a1.415,1.415,0,0,1,1.415,1.415l.006,14.466a1.414,1.414,0,0,1-1.414,1.415Z" fill="#d5ced2"/>
    <path id="Trazado_3084" data-name="Trazado 3084" d="M378.394,6049.482l-5.137-5.132a3.033,3.033,0,1,1,4.288-4.292l2.991,2.988,7.866-7.874a3.034,3.034,0,0,1,4.292,4.289l-10.01,10.019a3.034,3.034,0,0,1-4.29,0Z" fill="#00a37e"/>
    <path id="Trazado_3085" data-name="Trazado 3085" d="M410.6,6049.467l-5.137-5.132a3.034,3.034,0,0,1,4.289-4.292l2.99,2.988,7.866-7.873a3.034,3.034,0,1,1,4.292,4.289l-10.01,10.019a3.035,3.035,0,0,1-4.29,0Z" fill="#00a37e"/>
    <path id="Trazado_3086" data-name="Trazado 3086" d="M440.659,6049.454l-5.136-5.132a3.033,3.033,0,0,1,4.288-4.292l2.99,2.988,7.866-7.873a3.034,3.034,0,0,1,4.292,4.288l-10.01,10.02a3.035,3.035,0,0,1-4.29,0Z" fill="#00a37e"/>
    <path id="Trazado_3087" data-name="Trazado 3087" d="M408.578,6077.843l-5.136-5.132a3.033,3.033,0,1,1,4.288-4.292l2.99,2.988,7.866-7.873a3.034,3.034,0,1,1,4.292,4.289l-10.01,10.019a3.035,3.035,0,0,1-4.29,0Z" fill="#00a37e"/>
    <path id="Trazado_3088" data-name="Trazado 3088" d="M440.784,6077.829l-5.136-5.132a3.033,3.033,0,0,1,4.288-4.292l2.99,2.988,7.866-7.873a3.034,3.034,0,1,1,4.292,4.288l-10.01,10.019a3.035,3.035,0,0,1-4.29,0Z" fill="#00a37e"/>
    <path id="Trazado_3089" data-name="Trazado 3089" d="M514.924,5966.041l-.659-.381.659.381Z" fill="#614a5b"/>
    <g id="Grupo_9196" data-name="Grupo 9196">
      <path id="Trazado_3090" data-name="Trazado 3090" d="M453.3,6066.009a2.639,2.639,0,0,1-.966-3.607l4.727-8.189a2.641,2.641,0,0,1,4.574,2.641l-4.728,8.189a2.64,2.64,0,0,1-3.607.966Z" fill="#82757f"/>
      <path id="Trazado_3091" data-name="Trazado 3091" d="M509.1,5962.676a2.485,2.485,0,0,0-3.294.745c-8.125,11.875-16.339,24.9-24.35,38.779a580.6,580.6,0,0,0-27.155,52.875c-2.267,5.074,4.711,9.1,7.971,4.6a580.672,580.672,0,0,0,32.214-49.955c8.019-13.889,15.2-27.53,21.427-40.516a2.442,2.442,0,0,0-.985-3.166l-5.828-3.365Z" fill="#979599"/>
      <path id="Trazado_3092" data-name="Trazado 3092" d="M459.3,6057.966c8.172-16.115,17.754-33.807,28.362-52.18,8.011-13.875,15.977-27.046,23.649-39.183.692-1.1,1.682-1.676,2.27-1.337l1.342.775-5.829-3.365a2.485,2.485,0,0,0-3.294.745c-8.125,11.875-16.339,24.9-24.35,38.779a580.6,580.6,0,0,0-27.155,52.875,4.636,4.636,0,0,0,4.251,6.55,5.619,5.619,0,0,1,.754-3.659Z" fill="#82757f"/>
      <path id="Trazado_3093" data-name="Trazado 3093" d="M508.526,5963.663l5.829,3.365a2.429,2.429,0,0,1,.79.736l3.6-6.241a4.439,4.439,0,1,0-7.688-4.439l-3.611,6.254a2.457,2.457,0,0,1,1.076.325Z" fill="#e8e3e6"/>
      <path id="Trazado_3094" data-name="Trazado 3094" d="M515.027,5959.636a4.478,4.478,0,0,1,3.909-2.246,4.388,4.388,0,0,0-1.793-1.964,4.459,4.459,0,0,0-6.083,1.658l-3.611,6.254a2.465,2.465,0,0,1,1.077.325l3.132,1.808,3.369-5.835Z" fill="#d5ced2"/>
      <path id="Trazado_3095" data-name="Trazado 3095" d="M509.1,5962.676a2.486,2.486,0,0,0-3.294.744q-3.51,5.13-7.035,10.543l11.511,6.645q2.931-5.772,5.631-11.4a2.44,2.44,0,0,0-.985-3.166l-5.828-3.365Z" fill="#82757f"/>
      <path id="Trazado_3096" data-name="Trazado 3096" d="M505.8,5963.421l-.02.028c-2.175,3.18-4.638,6.865-7.015,10.514l5.85,3.377q3.378-5.487,6.7-10.737c.693-1.1,1.682-1.676,2.271-1.337l.682.394-5.169-2.984a2.483,2.483,0,0,0-3.294.745Z" fill="#614a5b"/>
      <path id="Trazado_3097" data-name="Trazado 3097" d="M459.607,6043.59q-2.784,5.835-5.31,11.483c-2.267,5.074,4.712,9.1,7.972,4.6q3.624-5,7.29-10.341l-9.952-5.745Z" fill="#82757f"/>
      <path id="Trazado_3098" data-name="Trazado 3098" d="M465.086,6046.753l-5.479-3.163q-.694,1.457-1.375,2.9l-.008.017q-.663,1.412-1.309,2.81c-.092.2-.181.394-.272.592q-.521,1.128-1.033,2.251-.664,1.461-1.313,2.911a4.477,4.477,0,0,0,1.91,5.889,4.88,4.88,0,0,0,2.34.661,5.63,5.63,0,0,1,.755-3.658q2.784-5.488,5.784-11.213Z" fill="#614a5b"/>
      <path id="Trazado_3099" data-name="Trazado 3099" d="M504.813,6006.289a2.639,2.639,0,0,1-.99-3.6c4.556-8.013,8.8-16.14,12.641-24.19l-14.842-8.569a2.641,2.641,0,0,1,2.64-4.574l16.949,9.786a2.639,2.639,0,0,1,1.071,3.406c-4.164,8.89-8.83,17.89-13.869,26.751a2.64,2.64,0,0,1-3.6.99Z" fill="#e8e3e6"/>
    </g>
  </g>
</svg>
