<svg xmlns="http://www.w3.org/2000/svg" width="131.191" height="137.081" viewBox="0 0 131.191 137.081">
  <g id="Grupo_8779" data-name="Grupo 8779" transform="translate(-184.945 -3513.61)">
    <path id="Trazado_1948" data-name="Trazado 1948" d="M313.665,3602.989A65.6,65.6,0,1,0,196.656,3622.5Zm0,0" fill="#5fc6ff"/>
    <path id="Trazado_1949" data-name="Trazado 1949" d="M307.788,3616.669H225.022v27.245H279.6a65.882,65.882,0,0,0,28.189-26.781Zm0,0" fill="#d4d8d8"/>
    <path id="Trazado_1950" data-name="Trazado 1950" d="M307.788,3617.133v-.464H244.727v27.245H279.6a65.882,65.882,0,0,0,28.189-26.781Zm0,0" fill="#b7b7b7"/>
    <rect id="Rectángulo_3272" data-name="Rectángulo 3272" width="30.605" height="8.471" transform="translate(225.022 3635.442)" fill="#d87a3a"/>
    <rect id="Rectángulo_3273" data-name="Rectángulo 3273" width="11.132" height="8.471" transform="translate(244.495 3635.442)" fill="#bf6121"/>
    <path id="Trazado_1951" data-name="Trazado 1951" d="M278.594,3626.971H266.529a1.829,1.829,0,0,0-1.829,1.83v15.113h14.9c.277-.137.551-.278.825-.417v-14.7a1.83,1.83,0,0,0-1.83-1.83Zm0,0" fill="#6d472e"/>
    <path id="Trazado_1952" data-name="Trazado 1952" d="M278.594,3626.971h-7.77a1.831,1.831,0,0,1,1.831,1.83v15.113H279.6c.277-.137.551-.278.825-.417v-14.7a1.83,1.83,0,0,0-1.83-1.83Zm0,0" fill="#5e3a21"/>
    <path id="Trazado_1953" data-name="Trazado 1953" d="M280.33,3643.551a65.67,65.67,0,0,0,11.025-7.106v-1H280.33Zm0,0" fill="#ed9254"/>
    <rect id="Rectángulo_3274" data-name="Rectángulo 3274" width="11.025" height="9.014" transform="translate(280.33 3617.958)" fill="#ed9254"/>
    <rect id="Rectángulo_3275" data-name="Rectángulo 3275" width="11.025" height="8.471" transform="translate(280.33 3626.971)" fill="#d87a3a"/>
    <rect id="Rectángulo_3276" data-name="Rectángulo 3276" width="11.025" height="8.675" transform="translate(253.768 3635.442)" fill="#ed9254"/>
    <rect id="Rectángulo_3277" data-name="Rectángulo 3277" width="11.025" height="9.014" transform="translate(253.768 3617.958)" fill="#ed9254"/>
    <rect id="Rectángulo_3278" data-name="Rectángulo 3278" width="11.025" height="8.471" transform="translate(253.768 3626.971)" fill="#d87a3a"/>
    <path id="Trazado_1954" data-name="Trazado 1954" d="M301.084,3626.907v-1.156a2.034,2.034,0,0,0-4.067,0v5.631q2.135-2.142,4.067-4.475Zm0,0" fill="#6d472e"/>
    <path id="Trazado_1955" data-name="Trazado 1955" d="M244.495,3638.627a2.033,2.033,0,0,1-2.033-2.033v-10.843a2.034,2.034,0,0,1,4.067,0v10.843a2.034,2.034,0,0,1-2.034,2.033Zm0,0" fill="#6d472e"/>
    <path id="Trazado_1956" data-name="Trazado 1956" d="M235.615,3638.627a2.033,2.033,0,0,1-2.033-2.033v-10.843a2.034,2.034,0,0,1,4.067,0v10.843a2.033,2.033,0,0,1-2.034,2.033Zm0,0" fill="#6d472e"/>
    <path id="Trazado_1957" data-name="Trazado 1957" d="M217.271,3525.312a2.033,2.033,0,0,1-2.034-2.033v-7.636a2.034,2.034,0,0,1,4.067,0v7.636a2.033,2.033,0,0,1-2.033,2.033Zm0,0" fill="#bf6121"/>
    <path id="Trazado_1958" data-name="Trazado 1958" d="M219.525,3523.112a.765.765,0,0,0-.659-.377h-3.191a.765.765,0,0,0-.659.377l-8.041,13.756h20.592Zm0,0" fill="#aa4f11"/>
    <path id="Trazado_1959" data-name="Trazado 1959" d="M216.521,3529.443l2.511-4.3a.763.763,0,0,1,.659-.377h.8l-.967-1.656a.764.764,0,0,0-.659-.378h-3.191a.764.764,0,0,0-.659.378l-8.041,13.757H217.32a6.263,6.263,0,0,1-.8-7.427Zm0,0" fill="#964108"/>
    <rect id="Rectángulo_3279" data-name="Rectángulo 3279" width="19.218" height="11.025" transform="translate(207.662 3537.58)" fill="#e8eaea"/>
    <rect id="Rectángulo_3280" data-name="Rectángulo 3280" width="7.332" height="11.025" transform="translate(207.662 3537.58)" fill="#d4d8d8"/>
    <path id="Trazado_1960" data-name="Trazado 1960" d="M229.158,3555.042H205.384a2.007,2.007,0,0,0-2.008,2.007v9.56h27.788v-9.56a2.006,2.006,0,0,0-2.006-2.007Zm0,0" fill="#e8eaea"/>
    <path id="Trazado_1961" data-name="Trazado 1961" d="M205.384,3555.042a2.007,2.007,0,0,0-2.008,2.007v9.56h12.857v-6.933c-3.506-1.388-1.672-4.634-1.672-4.634Zm0,0" fill="#d4d8d8"/>
    <path id="Trazado_1962" data-name="Trazado 1962" d="M203.377,3572.311v31.212c.082,0,.166-.012.251-.012h27.538v-31.2Zm0,0" fill="#e8eaea"/>
    <path id="Trazado_1963" data-name="Trazado 1963" d="M203.377,3572.311v31.212a.5.5,0,0,1,.084-.012H212.7v-31.2Zm0,0" fill="#d4d8d8"/>
    <path id="Trazado_1964" data-name="Trazado 1964" d="M217.271,3568.778a2.71,2.71,0,0,1-2.71-2.711v-3.886a2.71,2.71,0,1,1,5.421,0v3.886a2.711,2.711,0,0,1-2.711,2.711Zm0,0" fill="#4f2e17"/>
    <path id="Trazado_1965" data-name="Trazado 1965" d="M246.188,3584.559l-9.33,5.844a3.733,3.733,0,0,1-1.98.567H219.935v12.541h26.253Zm0,0" fill="#d4d8d8"/>
    <path id="Trazado_1966" data-name="Trazado 1966" d="M236.884,3590.386v13.125h9.3v-18.952Zm0,0" fill="#b7b7b7"/>
    <path id="Trazado_1967" data-name="Trazado 1967" d="M246.188,3576.8a3.658,3.658,0,0,0-.722.35l-11.663,7.306H219.935a3.659,3.659,0,1,0,0,7.318h14.943a3.734,3.734,0,0,0,1.98-.568l9.33-5.844Zm0,0" fill="#aa4f11"/>
    <path id="Trazado_1968" data-name="Trazado 1968" d="M246.188,3585.362V3576.8a3.658,3.658,0,0,0-.722.35l-11.663,7.306s4.9,1.055,3.055,6.75Zm0,0" fill="#964108"/>
    <path id="Trazado_1969" data-name="Trazado 1969" d="M307.685,3572.6h-14.7a3.656,3.656,0,0,1-2.729-1.221l-12.7-14.214a.99.99,0,0,0-1.474,0l-12.7,14.214a3.656,3.656,0,0,1-2.728,1.221H245.954c-.035,0-.068,0-.1,0v30.911h61.937V3572.6c-.034,0-.069,0-.1,0Zm0,0" fill="#e8eaea"/>
    <path id="Trazado_1970" data-name="Trazado 1970" d="M276.819,3568.68a1.966,1.966,0,0,0-1.059-1.743,4.347,4.347,0,0,1-2.547-4.423,2,2,0,0,0-.54-1.527l-9.286,10.4a3.661,3.661,0,0,1-2.73,1.222h-14.7c-.035,0-.068,0-.1-.006v30.911h30.968V3568.68Zm0,0" fill="#d4d8d8"/>
    <path id="Trazado_1971" data-name="Trazado 1971" d="M196.488,3609.214v13.048a65.887,65.887,0,0,0,24.993,21.652h4.646v-23.566a1.851,1.851,0,0,1,1.85-1.85h77.109a1.848,1.848,0,0,1,1.474.737,65.413,65.413,0,0,0,5-10.021Zm0,0" fill="#e8eaea"/>
    <path id="Trazado_1972" data-name="Trazado 1972" d="M196.488,3609.269v12.993a65.969,65.969,0,0,0,16.18,16.388v-28.623l-6.392-.813h-9.739Zm0,0" fill="#d4d8d8"/>
    <rect id="Rectángulo_3281" data-name="Rectángulo 3281" width="29.07" height="12.54" transform="translate(262.284 3590.97)" fill="#d4d8d8"/>
    <path id="Trazado_1973" data-name="Trazado 1973" d="M276.819,3590.97H262.284v12.541h14.535V3590.97Zm0,0" fill="#b7b7b7"/>
    <path id="Trazado_1974" data-name="Trazado 1974" d="M291.355,3572.218a3.646,3.646,0,0,1-1.1-.835l-12.7-14.214a.99.99,0,0,0-1.474,0l-12.7,14.214a3.646,3.646,0,0,1-1.1.835v13.041h29.071Zm0,0" fill="#d4d8d8"/>
    <path id="Trazado_1975" data-name="Trazado 1975" d="M276.819,3568.68a1.966,1.966,0,0,0-1.059-1.743,4.347,4.347,0,0,1-2.547-4.423,2,2,0,0,0-.54-1.527l-9.286,10.4a3.678,3.678,0,0,1-1.1.835v13.04h14.535V3568.68Zm0,0" fill="#b7b7b7"/>
    <path id="Trazado_1976" data-name="Trazado 1976" d="M274.09,3550.028a3.66,3.66,0,0,1,5.459,0l.93,1.042V3540.7a3.66,3.66,0,0,0-7.319,0v10.367Zm0,0" fill="#bf6121"/>
    <path id="Trazado_1977" data-name="Trazado 1977" d="M295.9,3588.115a3.659,3.659,0,0,0-3.659-3.659H261.4a3.659,3.659,0,1,0,0,7.318h30.847a3.66,3.66,0,0,0,3.659-3.659Zm0,0" fill="#aa4f11"/>
    <path id="Trazado_1978" data-name="Trazado 1978" d="M273.16,3588.115a3.659,3.659,0,0,1,3.659-3.659H261.4a3.659,3.659,0,1,0,0,7.318h15.423a3.659,3.659,0,0,1-3.659-3.659Zm0,0" fill="#964108"/>
    <path id="Trazado_1979" data-name="Trazado 1979" d="M307.788,3566.089H294.619l-15.07-16.874a3.661,3.661,0,0,0-5.459,0l-15.071,16.874H245.851a3.661,3.661,0,0,0-3.657,3.836,3.73,3.73,0,0,0,3.76,3.482h14.7a3.652,3.652,0,0,0,2.729-1.221l12.7-14.214a.992.992,0,0,1,1.476,0l12.7,14.214a3.654,3.654,0,0,0,2.729,1.221h14.7a3.726,3.726,0,0,0,3.758-3.482,3.658,3.658,0,0,0-3.654-3.836Zm0,0" fill="#aa4f11"/>
    <path id="Trazado_1980" data-name="Trazado 1980" d="M263.387,3572.186l9.6-10.749a1.914,1.914,0,0,0-1.166-.969c-3.637-1.038-3.15-5.186-3.15-5.186l-9.651,10.807H245.851a3.658,3.658,0,0,0-3.655,3.836,3.726,3.726,0,0,0,3.758,3.482h14.7a3.656,3.656,0,0,0,2.73-1.221Zm0,0" fill="#964108"/>
    <path id="Trazado_1981" data-name="Trazado 1981" d="M277.669,3567.525a3.659,3.659,0,1,1-4.4,2.719,3.659,3.659,0,0,1,4.4-2.719Zm0,0" fill="#6d472e"/>
    <path id="Trazado_1982" data-name="Trazado 1982" d="M230.7,3551.383a3.661,3.661,0,0,0-3.66-3.66H207.5a3.66,3.66,0,0,0,0,7.319h19.546a3.66,3.66,0,0,0,3.66-3.659Zm0,0" fill="#bf6121"/>
    <path id="Trazado_1983" data-name="Trazado 1983" d="M211.335,3551.383a3.66,3.66,0,0,1,3.659-3.66h-7.5a3.66,3.66,0,0,0,0,7.319h7.5a3.659,3.659,0,0,1-3.659-3.659Zm0,0" fill="#aa4f11"/>
    <path id="Trazado_1984" data-name="Trazado 1984" d="M227.567,3538.9H206.975a2.034,2.034,0,0,1,0-4.067h20.592a2.034,2.034,0,0,1,0,4.067Zm0,0" fill="#bf6121"/>
    <path id="Trazado_1985" data-name="Trazado 1985" d="M213.174,3536.868a2.034,2.034,0,0,1,2.033-2.033h-8.232a2.034,2.034,0,0,0,0,4.067h8.232a2.034,2.034,0,0,1-2.033-2.034Zm0,0" fill="#aa4f11"/>
    <path id="Trazado_1986" data-name="Trazado 1986" d="M234.862,3569.748a3.66,3.66,0,0,0-3.66-3.659H203.339a3.659,3.659,0,1,0,0,7.318H231.2a3.658,3.658,0,0,0,3.66-3.659Zm0,0" fill="#bf6121"/>
    <path id="Trazado_1987" data-name="Trazado 1987" d="M209.515,3569.748a3.659,3.659,0,0,1,3.659-3.659h-9.835a3.659,3.659,0,1,0,0,7.318h9.835a3.659,3.659,0,0,1-3.659-3.659Zm0,0" fill="#aa4f11"/>
    <path id="Trazado_1988" data-name="Trazado 1988" d="M313.74,3602.708H194.953a3.66,3.66,0,1,0,0,7.319H311.226a65.015,65.015,0,0,0,2.514-7.319Zm0,0" fill="#aa4f11"/>
    <path id="Trazado_1989" data-name="Trazado 1989" d="M209.008,3606.368a3.659,3.659,0,0,1,3.66-3.66H194.953a3.66,3.66,0,1,0,0,7.319h17.715a3.659,3.659,0,0,1-3.66-3.659Zm0,0" fill="#964108"/>
    <path id="Trazado_1990" data-name="Trazado 1990" d="M216.185,3618.5h-6.968a2.029,2.029,0,0,0-2.028,2.029v12.888a2.027,2.027,0,0,0,2.028,2.027h6.968a2.026,2.026,0,0,0,2.027-2.027v-12.888a2.029,2.029,0,0,0-2.027-2.029Zm0,0" fill="#6d472e"/>
    <path id="Trazado_1991" data-name="Trazado 1991" d="M216.185,3618.5h-5.512a2.029,2.029,0,0,1,2.027,2.029v12.888a2.027,2.027,0,0,1-2.027,2.027h5.512a2.026,2.026,0,0,0,2.027-2.027v-12.888a2.029,2.029,0,0,0-2.027-2.029Zm0,0" fill="#5e3a21"/>
    <path id="Trazado_1992" data-name="Trazado 1992" d="M220.406,3643.371a65.689,65.689,0,0,0,60.269,0Zm0,0" fill="#6d472e"/>
    <path id="Trazado_1993" data-name="Trazado 1993" d="M244.518,3643.371H220.406a65.149,65.149,0,0,0,23.67,7,4.082,4.082,0,0,1,.442-7Zm0,0" fill="#5e3a21"/>
  </g>
</svg>
