<svg xmlns="http://www.w3.org/2000/svg" width="175.874" height="283.996" viewBox="0 0 175.874 283.996">
  <g id="Grupo_9253" data-name="Grupo 9253" transform="translate(-925.316 -7492.733)">
    <g id="Grupo_9251" data-name="Grupo 9251">
      <rect id="Rectángulo_3608" data-name="Rectángulo 3608" width="96" height="49.81" transform="translate(925.322 7726.918)" fill="#ff809f"/>
      <path id="Trazado_3275" data-name="Trazado 3275" d="M959.316,7726.976h2v-10h24v10h2v-12h-28Z" fill="#40327a"/>
      <path id="Trazado_3276" data-name="Trazado 3276" d="M1021.322,7776.729v-49.81h-47.54l3.713,49.81Z" fill="#e5659b"/>
      <rect id="Rectángulo_3609" data-name="Rectángulo 3609" width="10" height="49.806" transform="translate(925.316 7726.922)" fill="#40327a"/>
      <rect id="Rectángulo_3610" data-name="Rectángulo 3610" width="86.001" height="2" transform="translate(935.319 7758.922)" fill="#40327a"/>
      <rect id="Rectángulo_3611" data-name="Rectángulo 3611" width="14" height="9" transform="translate(983.316 7767.922) rotate(-180)" fill="#fff"/>
    </g>
    <path id="Trazado_3277" data-name="Trazado 3277" d="M1062.918,7624.327c-2.978-3.982-5.954-7.867-6.093-13.727-.343-14.442,6.083-15.152,5.162-29.58s-11.621-13.6-12.543-28.033a17.887,17.887,0,0,1,.333-4.972,36.431,36.431,0,0,0,2.707-6.056c.131-.367.251-.745.36-1.112a37.171,37.171,0,1,0-70.505,1.672c.126.362.264.712.4,1.073l.011.011a36.9,36.9,0,0,0,3,5.953,18.213,18.213,0,0,1,.556,4.929c-.236,14.455-10.952,14.141-11.188,28.6s6.216,14.86,6.559,29.3c.139,5.86-2.649,9.882-5.445,14-2.775,4.128-5.559,8.354-5.411,14.589a32.39,32.39,0,0,0,33.155,31.618l33.426-.793a32.381,32.381,0,0,0,31.608-33.155C1068.866,7632.407,1065.885,7628.318,1062.918,7624.327Z" fill="#40327a"/>
    <path id="Trazado_3278" data-name="Trazado 3278" d="M965.9,7714.274l3.627-10.206-7.958-67.157,18.826-1.019-.764,68.8h0l-.134,12a7,7,0,1,1-13.59-2.422Z" fill="#ff95a9"/>
    <path id="Trazado_3279" data-name="Trazado 3279" d="M989.166,7663.175l-.281-72.8a13,13,0,0,1,13.55-13.039l48.3,2.048a8,8,0,0,1,7.329,10.272l-22.434,75.487h0a23.251,23.251,0,0,1-46.461-1.97Z" fill="#ffc7bd"/>
    <path id="Trazado_3280" data-name="Trazado 3280" d="M989.151,7664.163h46.5l2.506,1.948a34.628,34.628,0,0,1,13.381,27.343v10a14,14,0,0,1-14,14H997.155a14,14,0,0,1-14-14v-13.7A57.629,57.629,0,0,1,989.151,7664.163Z" fill="#8b77e8"/>
    <path id="Trazado_3281" data-name="Trazado 3281" d="M961.5,7635.682a9.389,9.389,0,0,1,1.265-4.61l-.018-.013,27.979-47.208.011.007a13.141,13.141,0,0,1,.946-1.408,13,13,0,1,1,20.471,16.031h0l-31.8,40.6-.625,56.3-11.168.6-7-59.081h.014A9.423,9.423,0,0,1,961.5,7635.682Z" fill="#ffc7bd"/>
    <path id="Trazado_3282" data-name="Trazado 3282" d="M963.491,7661.66l1.986-.236-2.8-23.588h0l-.111-1.043a8.2,8.2,0,0,1-.068-1.1,8.444,8.444,0,0,1,1.131-4.122l.457-.792-.009-.007,11.029-18.61-1.72-1.019-11.973,20.2.06.042a10.435,10.435,0,0,0-.975,4.284c0,.1,0,.209,0,.316l-.044,0,.11,1.042Z" fill="#ff95a9"/>
    <rect id="Rectángulo_3612" data-name="Rectángulo 3612" width="2" height="12.406" transform="translate(963.954 7665.585) rotate(-6.785)" fill="#ff95a9"/>
    <g id="Grupo_9252" data-name="Grupo 9252">
      <path id="Trazado_3283" data-name="Trazado 3283" d="M1011.155,7703.452v72.391l-22.588.852-5.374-72.188Z" fill="#8b77e8"/>
    </g>
    <path id="Trazado_3284" data-name="Trazado 3284" d="M988.567,7776.694l66.777.035-3.8-73.578-68.347,1.354Z" fill="#8b77e8"/>
    <path id="Trazado_3285" data-name="Trazado 3285" d="M991.936,7545.717l3.261-31.194,37.546,1.592-.805,18.995,1,.042a5,5,0,0,1-.423,9.991l-1-.042-.269,6.345-.464,10.956-.093,2.181-.591,13.928h0l9.984.423-36.219,21.619.98-23.113,3.275.139h0l.591-13.928-1.339-.057A16.208,16.208,0,0,1,991.936,7545.717Z" fill="#ff95a9"/>
    <path id="Trazado_3286" data-name="Trazado 3286" d="M1039.228,7678.377l9.2.17,35.344-55.712L1099,7633.951l-44.03,52.871-.025-.019a4.977,4.977,0,0,1-2.277,1.533l0,.022-11.421,3.682v-.007a7,7,0,1,1-2.019-13.656Z" fill="#ff95a9"/>
    <path id="Trazado_3287" data-name="Trazado 3287" d="M1039.389,7584.463a12.912,12.912,0,0,1,19.477-1.515l.009-.01,38.3,37.244a9.439,9.439,0,0,1,2.545,12.774,9.715,9.715,0,0,1-.732.989l.01.007-38.074,45.717-9.033-6.595,27.121-42.748-37-27.667h0A13,13,0,0,1,1039.389,7584.463Z" fill="#ffc7bd"/>
    <rect id="Rectángulo_3613" data-name="Rectángulo 3613" width="2" height="37.007" transform="translate(1063.55 7589.047) rotate(-45.956)" fill="#ff95a9"/>
    <rect id="Rectángulo_3614" data-name="Rectángulo 3614" width="2" height="3.536" transform="translate(1092.578 7617.12) rotate(-44.998)" fill="#ff95a9"/>
    <path id="Trazado_3288" data-name="Trazado 3288" d="M1056.322,7776.729l-2.887-56.616-2,.1,2.881,56.515" fill="#624ac9"/>
    <rect id="Rectángulo_3615" data-name="Rectángulo 3615" width="2" height="6.698" transform="matrix(0.998, -0.056, 0.056, 0.998, 1050.756, 7708.782)" fill="#624ac9"/>
    <rect id="Rectángulo_3616" data-name="Rectángulo 3616" width="14.813" height="2" transform="matrix(0.509, -0.861, 0.861, 0.509, 977.091, 7604.821)" fill="#ff95a9"/>
    <rect id="Rectángulo_3617" data-name="Rectángulo 3617" width="12.717" height="2" transform="translate(989.072 7663.159)" fill="#624ac9"/>
    <path id="Trazado_3289" data-name="Trazado 3289" d="M1031.938,7535.11l1,.042,1.224-28.858-29.741-1.261A14.232,14.232,0,0,0,989.6,7518.65l-.024.566,1,.042a39.132,39.132,0,0,1,23.234,8.9h0a30.533,30.533,0,0,0,18.131,6.948Z" fill="#40327a"/>
    <path id="Trazado_3290" data-name="Trazado 3290" d="M1004.295,7549.807a15.031,15.031,0,0,0,5.74-1.132l-.759-1.85a13.015,13.015,0,0,1-5.667.964,13.268,13.268,0,0,1-2.643-.4l-.5,1.937a15.324,15.324,0,0,0,3.041.463C1003.771,7549.8,1004.033,7549.807,1004.295,7549.807Z" fill="#e5659b"/>
  </g>
</svg>
