<svg xmlns="http://www.w3.org/2000/svg" width="131.191" height="125.553" viewBox="0 0 131.191 125.553">
  <g id="Grupo_9162" data-name="Grupo 9162" transform="translate(-182 -2705.928)">
    <path id="Trazado_2883" data-name="Trazado 2883" d="M244.777,2705.928a62.8,62.8,0,0,0-61.193,48.706l15.025,56.6a62.775,62.775,0,1,0,46.168-105.31Zm0,0" fill="#5fc6ff"/>
    <path id="Trazado_2884" data-name="Trazado 2884" d="M310.868,2757.458c-6.659-10.484-19.991-3.728-19.991-3.728l-4.26,2.123c-10.7,6.923-22.027,19.705-36.237,31.14,47.156,12.19,70.607-13.6,60.488-29.535Zm0,0" fill="#6d472e"/>
    <path id="Trazado_2885" data-name="Trazado 2885" d="M290.868,2787.849c-22.125-4.841-10.211-27.128-10.211-27.128l-.513-.1c-8.842,7.185-18.379,17.207-29.764,26.37,16.566,4.283,30.2,3.873,40.488.856Zm0,0" fill="#5e3a21"/>
    <path id="Trazado_2886" data-name="Trazado 2886" d="M290.878,2753.73l-23.688,8.2.593,4.167a3.655,3.655,0,0,1-3.158,4.143,265.679,265.679,0,0,1-66.189,0,3.656,3.656,0,0,1-3.159-4.143l1.261-8.854a51.874,51.874,0,0,0-12.833-3.115,62.854,62.854,0,0,0,15.264,57.5c45.489-2.172,69.74-46.923,91.909-57.893Zm0,0" fill="#f4d9a4"/>
    <path id="Trazado_2887" data-name="Trazado 2887" d="M210.139,2784.87c-14.55-7.287,12.427-12.389,12.427-12.389a2.364,2.364,0,0,1-.822-.354q-11.681-.43-23.308-1.888a3.657,3.657,0,0,1-3.159-4.143l1.261-8.854a51.879,51.879,0,0,0-12.833-3.116,62.876,62.876,0,0,0,11.5,53.1c8.668-10.079,28.9-15.355,14.93-22.355Zm0,0" fill="#eac98f"/>
    <path id="Trazado_2888" data-name="Trazado 2888" d="M268.395,2766.314l-1.162-8.15a8.612,8.612,0,0,1-2.11.728,270.029,270.029,0,0,1-67.185,0,11.635,11.635,0,0,1-2.126-.619l-1.145,8.041a3.715,3.715,0,0,0,3.211,4.212,270.2,270.2,0,0,0,67.305,0,3.716,3.716,0,0,0,3.212-4.212Zm0,0" fill="#eac98f"/>
    <path id="Trazado_2889" data-name="Trazado 2889" d="M221.161,2760.791q-11.642-.449-23.223-1.9a11.635,11.635,0,0,1-2.126-.619l-1.146,8.041a3.719,3.719,0,0,0,3.212,4.214q12.3,1.543,24.681,1.952c-2.406-.563-1.915-3.775-1.915-3.775s.212-3.258.517-7.914Zm0,0" fill="#e0bc82"/>
    <path id="Trazado_2890" data-name="Trazado 2890" d="M197.818,2748.7a270.875,270.875,0,0,0,67.425,0c.027,0,.33-.1.615-.189l-1.568-11c-.031-.218-.072-.433-.117-.647a270.141,270.141,0,0,1-65.284,0c-.046.214-.087.429-.118.647L197.2,2748.55c.312.076.6.146.621.148Zm0,0" fill="#eac98f"/>
    <path id="Trazado_2891" data-name="Trazado 2891" d="M198.889,2736.858c-.046.213-.087.429-.118.647L197.2,2748.55c.312.075.6.145.621.147q11.955,1.5,24,1.931c.257-3.923.517-7.948.745-11.468.011-.159.024-.316.039-.472q-11.883-.391-23.716-1.83Zm0,0" fill="#e0bc82"/>
    <path id="Trazado_2892" data-name="Trazado 2892" d="M197.878,2759.372a270.125,270.125,0,0,0,67.305,0,3.693,3.693,0,0,0,2.082-.987l-1.468-10.3a3.744,3.744,0,0,1-.614.131,270.218,270.218,0,0,1-67.305,0,3.86,3.86,0,0,1-.615-.131l-1.467,10.3a3.687,3.687,0,0,0,2.082.987Zm0,0" fill="#6d472e"/>
    <path id="Trazado_2893" data-name="Trazado 2893" d="M197.878,2748.217a3.756,3.756,0,0,1-.615-.131l-1.467,10.3a3.693,3.693,0,0,0,2.082.987q11.589,1.455,23.25,1.9c.209-3.2.465-7.125.725-11.13q-12.012-.431-23.975-1.928Zm0,0" fill="#5e3a21"/>
    <path id="Trazado_2894" data-name="Trazado 2894" d="M257.133,2729.689l-8.749-2.044a74.054,74.054,0,0,0-33.707,0l-8.75,2.044a9.38,9.38,0,0,0-7.1,7.486,270.2,270.2,0,0,0,65.4,0,9.384,9.384,0,0,0-7.1-7.486Zm0,0" fill="#6d472e"/>
    <path id="Trazado_2895" data-name="Trazado 2895" d="M214.677,2727.645l-8.749,2.044a9.384,9.384,0,0,0-7.1,7.486q11.838,1.443,23.747,1.836c.747-10.081,10.415-12.661,13.146-13.19a74.077,74.077,0,0,0-21.047,1.824Zm0,0" fill="#5e3a21"/>
  </g>
</svg>
