<svg xmlns="http://www.w3.org/2000/svg" width="174.615" height="284.05" viewBox="0 0 174.615 284.05">
  <g id="Grupo_10285" data-name="Grupo 10285" transform="translate(-3935.676 -5806.606)">
    <g id="Grupo_10284" data-name="Grupo 10284">
      <rect id="Rectángulo_4243" data-name="Rectángulo 4243" width="96" height="49.81" transform="translate(3935.682 6040.791)" fill="#ff809f"/>
      <path id="Trazado_4583" data-name="Trazado 4583" d="M3969.676,6040.848h2v-10h24v10h2v-12h-28Z" fill="#40327a"/>
      <path id="Trazado_4584" data-name="Trazado 4584" d="M4031.682,6090.6v-49.81h-47.54l3.713,49.81Z" fill="#e5659b"/>
      <rect id="Rectángulo_4244" data-name="Rectángulo 4244" width="10" height="49.806" transform="translate(3935.676 6040.795)" fill="#40327a"/>
      <rect id="Rectángulo_4245" data-name="Rectángulo 4245" width="86.001" height="2" transform="translate(3945.679 6072.794)" fill="#40327a"/>
      <rect id="Rectángulo_4246" data-name="Rectángulo 4246" width="14" height="9" transform="translate(3993.676 6081.795) rotate(-180)" fill="#fff"/>
    </g>
    <path id="Trazado_4585" data-name="Trazado 4585" d="M4101.849,5931.013c-3.5-3.533-6.982-6.97-7.928-12.755-2.331-14.257,3.936-15.846,1.033-30.009s-13.386-11.873-16.288-26.036a17.907,17.907,0,0,1-.357-4.97,36.477,36.477,0,0,0,1.847-6.372c.079-.381.145-.772.2-1.151a37.17,37.17,0,1,0-69.6,11.38c.175.341.359.669.545,1.008l.012.009a36.909,36.909,0,0,0,3.8,5.481,18.237,18.237,0,0,1,1.231,4.8c1.76,14.35-8.9,15.517-7.138,29.867s8.206,13.86,10.537,28.117c.946,5.785-1.26,10.153-3.462,14.617-2.179,4.472-4.353,9.041-3.347,15.2a32.39,32.39,0,0,0,37.2,26.743l33-5.4a32.38,32.38,0,0,0,26.733-37.2C4108.855,5938.2,4105.339,5934.557,4101.849,5931.013Z" fill="#40327a"/>
    <path id="Trazado_4586" data-name="Trazado 4586" d="M4012.925,5977.687l-.66-72.8a13,13,0,0,1,13.483-13.109l42.164,1.569a12.791,12.791,0,0,1,11.8,16.363l-20.322,69.7h0a23.251,23.251,0,1,1-46.47-1.728Z" fill="#ffc7bd"/>
    <path id="Trazado_4587" data-name="Trazado 4587" d="M4012.925,5977.687h0l20.55.764,25.92.964,2.432,2.039a34.623,34.623,0,0,1,12.355,27.822l-.371,9.994a14,14,0,0,1-14.511,13.47l-40.357-1.5a14,14,0,0,1-13.47-14.511l.509-13.686A57.653,57.653,0,0,1,4012.925,5977.687Z" fill="#8b77e8"/>
    <path id="Trazado_4588" data-name="Trazado 4588" d="M4063.672,5894.477a13,13,0,0,1,17.111,6.724c.1.233.178.469.265.7l.015-.006,19.631,53.114-.011,0a9.437,9.437,0,0,1-17.225,7.625l-.006,0-26.116-50.244.013-.006c-.138-.266-.28-.529-.4-.808A13,13,0,0,1,4063.672,5894.477Z" fill="#ffc7bd"/>
    <path id="Trazado_4589" data-name="Trazado 4589" d="M4017.109,5858.6l5.006-30.962,37.4,3.7-1.87,18.919.995.1a5,5,0,0,1-.983,9.951l-1-.1-1.919,19.4h0l-1.371,13.873a11,11,0,0,1-21.894-2.164l1.372-13.873-1.333-.132A16.207,16.207,0,0,1,4017.109,5858.6Z" fill="#ff95a9"/>
    <path id="Trazado_4590" data-name="Trazado 4590" d="M4010.949,6090.6h66.941l-4.036-71.889-68.382-.932Z" fill="#8b77e8"/>
    <path id="Trazado_4591" data-name="Trazado 4591" d="M4057.643,5850.254l.995.1,2.841-28.745-29.622-2.928a14.235,14.235,0,0,0-15.565,12.764l-.055.564,1,.1a39.129,39.129,0,0,1,22.7,10.194h0a30.532,30.532,0,0,0,17.713,7.954Z" fill="#40327a"/>
    <path id="Trazado_4592" data-name="Trazado 4592" d="M4027.3,5914.988l.86-23.117,35.247,1.311Z" fill="#ff95a9"/>
    <path id="Trazado_4593" data-name="Trazado 4593" d="M3985.121,5944.641l-.007,0,28.244-45.08a12.993,12.993,0,1,1,21.8,13.623l.149.108-34.893,42.361-.008-.007a9.436,9.436,0,0,1-15.288-11Z" fill="#ffc7bd"/>
    <path id="Trazado_4594" data-name="Trazado 4594" d="M3991.681,5940.306l68-10.525,11.858-1.835a7,7,0,1,1-.16,13.8v.007l-10.664-1.9-64.943,18.86Z" fill="#ff95a9"/>
    <path id="Trazado_4595" data-name="Trazado 4595" d="M4016.764,5926.56l11.659-2.841h0a4.963,4.963,0,0,1,3.038.226l.005-.009,63.877,25.58-8.133,17.009-57.43-32.121-7.584,4.855,0-.007a7,7,0,1,1-5.43-12.692Z" fill="#ff95a9"/>
    <path id="Trazado_4596" data-name="Trazado 4596" d="M4035.284,5937.484l4.826-10.089,55.236,22.119-8.138,17.014Z" fill="#ffc7bd"/>
    <path id="Trazado_4597" data-name="Trazado 4597" d="M4052.909,5942.12l-2.428-10.917-58.8,9.1,4.094,18.41Z" fill="#ffc7bd"/>
    <rect id="Rectángulo_4247" data-name="Rectángulo 4247" width="1.999" height="26.65" transform="matrix(0.489, -0.872, 0.872, 0.489, 4035.991, 5939.021)" fill="#ff95a9"/>
    <rect id="Rectángulo_4248" data-name="Rectángulo 4248" width="1.999" height="3.303" transform="translate(4061.208 5953.146) rotate(-60.734)" fill="#ff95a9"/>
    <path id="Trazado_4598" data-name="Trazado 4598" d="M4076.892,6090.656l2-.109-3.265-56.306-2,.109Z" fill="#624ac9"/>
    <rect id="Rectángulo_4249" data-name="Rectángulo 4249" width="17.857" height="2.001" transform="matrix(0.96, -0.278, 0.278, 0.96, 4029.363, 5947.889)" fill="#ff95a9"/>
    <rect id="Rectángulo_4250" data-name="Rectángulo 4250" width="4.493" height="2" transform="translate(4016.472 5951.626) rotate(-16.18)" fill="#ff95a9"/>
    <path id="Trazado_4599" data-name="Trazado 4599" d="M4032.818,5865.047a15,15,0,0,0,5.026-.866l-.667-1.885a13.028,13.028,0,0,1-5.707.683,13.232,13.232,0,0,1-2.62-.533l-.6,1.911a15.372,15.372,0,0,0,3.016.612C4031.788,5865.021,4032.3,5865.047,4032.818,5865.047Z" fill="#e5659b"/>
  </g>
</svg>
