<svg xmlns="http://www.w3.org/2000/svg" width="687.139" height="422.91" viewBox="0 0 687.139 422.91">
  <g id="Grupo_10283" data-name="Grupo 10283" transform="translate(-3402.802 -4886.769)">
    <path id="Trazado_4476" data-name="Trazado 4476" d="M3486.84,5285.017H3992.6c89.742-52.193,73.554-159.015,48.681-176.982-34.005-24.567-80.115,67.906-113.386,51.019-95.049-48.263,102.591-184.188,22.945-215.682-51.825-20.493-87.82,136.3-151.01,81.546-32.877-28.488-3.016-69.966-9.311-103.619-9.981-53.4-99.221-42.017-141.226,40.613-29.326,57.687-90.351,31.669-125.97,19.309-33.072-11.473-125.436,43.483-14.684,143.582,36.812,33.271-129.193,52.817-21.8,160.214Z" fill="#bfe9ff"/>
    <path id="Trazado_4477" data-name="Trazado 4477" d="M3618.968,4895c-.381-3.443-1.386-5.789-3.77-7.082-7.069-3.834-24.809,2.386-32.185,11.982-10.286,13.382-.905,33.959,9.087,35.273,11.627,1.529,28.835-22.4,26.868-40.173Z" fill="#bfe9ff"/>
    <path id="Trazado_4478" data-name="Trazado 4478" d="M3752.473,5297.259h0Z" fill="#ddd6ff"/>
    <path id="Trazado_4479" data-name="Trazado 4479" d="M3752.472,5298.023H3589.45v-1.529h163.022v1.529Z" fill="#c4b8ff"/>
    <path id="Trazado_4480" data-name="Trazado 4480" d="M3629.572,5308.915h0Z" fill="#ddd6ff"/>
    <path id="Trazado_4481" data-name="Trazado 4481" d="M3629.572,5309.679H3527.358v-1.53h102.214v1.53Z" fill="#c4b8ff"/>
    <path id="Trazado_4482" data-name="Trazado 4482" d="M3807.361,5308.915h0Z" fill="#ddd6ff"/>
    <path id="Trazado_4483" data-name="Trazado 4483" d="M3807.362,5309.679H3672.49v-1.53h134.871v1.53Z" fill="#c4b8ff"/>
    <path id="Trazado_4484" data-name="Trazado 4484" d="M3543.5,5297.438h0Z" fill="#ddd6ff"/>
    <path id="Trazado_4485" data-name="Trazado 4485" d="M3543.5,5298.2H3494.68v-1.53H3543.5v1.53Z" fill="#c4b8ff"/>
    <path id="Trazado_4486" data-name="Trazado 4486" d="M3876.979,5297.259h0Z" fill="#ddd6ff"/>
    <path id="Trazado_4487" data-name="Trazado 4487" d="M3876.979,5298.023h-98.857v-1.529h98.857v1.529Z" fill="#c4b8ff"/>
    <path id="Trazado_4488" data-name="Trazado 4488" d="M3694.793,5224.131a9.639,9.639,0,1,0,9.638,9.64,9.651,9.651,0,0,0-9.638-9.64Zm0,20.808a11.169,11.169,0,1,1,11.168-11.168,11.182,11.182,0,0,1-11.168,11.168Z" fill="#40327a"/>
    <path id="Trazado_4489" data-name="Trazado 4489" d="M3731.506,5284.251h-73.427v-50.48h73.427v50.48Z" fill="#c4b8ff"/>
    <path id="Trazado_4490" data-name="Trazado 4490" d="M3731.506,5284.251h-7.648v-50.48h7.648v50.48Z" fill="#40327a"/>
    <path id="Trazado_4491" data-name="Trazado 4491" d="M3723.857,5259.775h-65.778v-1.53h65.778v1.53Z" fill="#40327a"/>
    <path id="Trazado_4492" data-name="Trazado 4492" d="M3696.322,5265.129h-10.708v-6.884h10.708v6.884Z" fill="#fff"/>
    <path id="Trazado_4493" data-name="Trazado 4493" d="M3701.4,4946.851V5191.6H3548.426V4946.851Z" fill="#eeebff"/>
    <path id="Trazado_4494" data-name="Trazado 4494" d="M3625.677,5284.251h-1.53V5191.6h1.53v92.647Z" fill="#40327a"/>
    <path id="Trazado_4495" data-name="Trazado 4495" d="M3675.8,5284.792l-50.886-50.886-50.887,50.886-1.081-1.082,51.968-51.968,51.968,51.968-1.082,1.082Z" fill="#40327a"/>
    <path id="Trazado_4496" data-name="Trazado 4496" d="M3701.4,5167.771V5191.6H3548.426l152.971-23.833Z" fill="#ddd6ff"/>
    <path id="Trazado_4497" data-name="Trazado 4497" d="M3598.716,4972.216v34.992l-30.309,17.5a34.992,34.992,0,0,1,30.309-52.488Z" fill="#ffc359"/>
    <path id="Trazado_4498" data-name="Trazado 4498" d="M3629.024,5024.7a35,35,0,0,1-60.617,0l30.309-17.5,30.308,17.5Z" fill="#ff809f"/>
    <path id="Trazado_4499" data-name="Trazado 4499" d="M3633.708,5007.208a34.785,34.785,0,0,1-4.684,17.5l-30.308-17.5v-34.992a34.983,34.983,0,0,1,34.992,34.992Z" fill="#7760db"/>
    <path id="Trazado_4500" data-name="Trazado 4500" d="M3603.3,5060.814H3565.73v-1.53H3603.3v1.53Z" fill="#40327a"/>
    <path id="Trazado_4501" data-name="Trazado 4501" d="M3603.3,5065.4H3565.73v-1.53H3603.3v1.53Z" fill="#40327a"/>
    <path id="Trazado_4502" data-name="Trazado 4502" d="M3603.3,5069.992H3565.73v-1.529H3603.3v1.529Z" fill="#40327a"/>
    <path id="Trazado_4503" data-name="Trazado 4503" d="M3590.971,5074.582h-25.24v-1.53h25.24v1.53Z" fill="#40327a"/>
    <path id="Trazado_4504" data-name="Trazado 4504" d="M3590.971,5079.17h-25.24v-1.529h25.24v1.529Z" fill="#40327a"/>
    <path id="Trazado_4505" data-name="Trazado 4505" d="M3686.865,4980.868h-37.574v-1.53h37.574v1.53Z" fill="#40327a"/>
    <path id="Trazado_4506" data-name="Trazado 4506" d="M3686.865,4985.457h-37.574v-1.53h37.574v1.53Z" fill="#40327a"/>
    <path id="Trazado_4507" data-name="Trazado 4507" d="M3686.865,4990.046h-37.574v-1.53h37.574v1.53Z" fill="#40327a"/>
    <path id="Trazado_4508" data-name="Trazado 4508" d="M3674.531,4994.635h-25.24v-1.53h25.24v1.53Z" fill="#40327a"/>
    <path id="Trazado_4509" data-name="Trazado 4509" d="M3674.531,4999.224h-25.24v-1.53h25.24v1.53Z" fill="#40327a"/>
    <path id="Trazado_4510" data-name="Trazado 4510" d="M3686.865,5073.052h-58.894v-13.768h58.894v13.768Z" fill="#ffc359"/>
    <path id="Trazado_4511" data-name="Trazado 4511" d="M3628.354,5072.669h58.128v-13h-58.128v13Zm58.893.765h-59.658V5058.9h59.658v14.532Z" fill="#ffc359"/>
    <path id="Trazado_4512" data-name="Trazado 4512" d="M3686.865,5094.468h-58.894V5080.7h58.894v13.768Z" fill="#ff809f"/>
    <path id="Trazado_4513" data-name="Trazado 4513" d="M3686.865,5115.884h-58.894v-13.767h58.894v13.767Z" fill="#7760db"/>
    <path id="Trazado_4514" data-name="Trazado 4514" d="M4089.94,5285.781H3402.8v-1.53H4089.94v1.53Z" fill="#c4b8ff"/>
    <path id="Trazado_4515" data-name="Trazado 4515" d="M3895.946,5033.932c-2.249,10.422-6.019,20.457-9.027,30.687-3.1,10.528-6.223,21.24-6.185,32.214a57.49,57.49,0,0,0,15.514,38.837c3.841,4.067,8.324,7.621,11.283,12.369s4.048,11.268.745,15.782c-4.766,6.513-14.962,5.1-21.931,9.17-8.775,5.122-9.994,18.177-4.991,27.02s27.784,34.145,60.291,27.879c14.548-2.8,34.269-16.65,33.707-31.456-.586-15.417-15.308-27.905-14.807-43.325.328-10.1,7.12-18.64,13-26.862s11.356-18.238,8.649-27.976c-3.984-14.336-22.446-18.764-31.386-30.657-5.757-7.659-7.025-17.733-7.383-27.308s-.113-19.387-3.307-28.42c-7.746-21.91-35.25-19.3-44.171,22.046Z" fill="#c4b8ff"/>
    <path id="Trazado_4516" data-name="Trazado 4516" d="M3930.875,5255.189h-1.53V5089.025h1.53v166.165Z" fill="#40327a"/>
    <path id="Trazado_4517" data-name="Trazado 4517" d="M3930.866,5137.038l-1.51-.248c2.474-15.032,19.569-24.381,20.3-24.771l.724,1.347c-.171.092-17.16,9.389-19.51,23.672Z" fill="#40327a"/>
    <path id="Trazado_4518" data-name="Trazado 4518" d="M3929.356,5202.473c-1.672-10.166-13.782-16.783-13.905-16.849l.725-1.347c.526.282,12.9,7.047,14.69,17.948l-1.51.248Z" fill="#40327a"/>
    <path id="Trazado_4519" data-name="Trazado 4519" d="M3938.587,5284.249h-17.213a18.927,18.927,0,0,1-18.928-18.927v-15.869h55.069v15.869a18.927,18.927,0,0,1-18.928,18.927Z" fill="#ffc359"/>
    <path id="Trazado_4520" data-name="Trazado 4520" d="M3912.223,5282.763a19.655,19.655,0,0,1-10.543-17.441v-5.836h1.53v5.836a18.13,18.13,0,0,0,9.724,16.087l-.711,1.354Z" fill="#40327a"/>
    <path id="Trazado_4521" data-name="Trazado 4521" d="M3957.515,5255.955h-55.07v-1.53h55.07v1.53Z" fill="#fff"/>
    <path id="Trazado_4522" data-name="Trazado 4522" d="M3957.515,5250.218h-35.079v-1.529h35.079v1.529Z" fill="#40327a"/>
    <path id="Trazado_4523" data-name="Trazado 4523" d="M3930.662,5285.016h0Z" fill="#f8f7ff"/>
    <path id="Trazado_4524" data-name="Trazado 4524" d="M3965.937,5285.781h-35.275v-1.53h35.275v1.53Z" fill="#40327a"/>
    <path id="Trazado_4525" data-name="Trazado 4525" d="M3568.789,5025.366l-.765-1.325,29.927-17.276v-34.649h1.53v35.533l-30.691,17.717Z" fill="#fff"/>
    <path id="Trazado_4526" data-name="Trazado 4526" d="M3628.641,5025.366l-30.308-17.5.765-1.325,30.308,17.5-.765,1.325Z" fill="#fff"/>
    <path id="Trazado_4527" data-name="Trazado 4527" d="M3746.371,5285.782h-43.285v-1.53h43.285v1.53Z" fill="#40327a"/>
    <path id="Trazado_4528" data-name="Trazado 4528" d="M3845.58,5285.782h-87.321v-1.53h87.321v1.53Z" fill="#40327a"/>
    <path id="Trazado_4529" data-name="Trazado 4529" d="M3858.763,5285.781h-7.028v-1.53h7.028v1.53Z" fill="#40327a"/>
    <path id="Trazado_4530" data-name="Trazado 4530" d="M3989.934,5285.781h-7.028v-1.53h7.028v1.53Z" fill="#40327a"/>
    <path id="Trazado_4531" data-name="Trazado 4531" d="M3549.191,5191.6h-1.53V4946.851h1.53V5191.6Z" fill="#fff"/>
    <path id="Trazado_4532" data-name="Trazado 4532" d="M3702.162,5192.369h-116.61v-1.53h115.08V5109h1.53v83.369Z" fill="#c4b8ff"/>
    <path id="Trazado_4533" data-name="Trazado 4533" d="M3702.162,5102.117h-1.53v-5.106h1.53v5.106Z" fill="#c4b8ff"/>
    <path id="Trazado_4534" data-name="Trazado 4534" d="M3821.779,5063.37c-2.2-3.1-4.409-6.124-4.409-10.607,0-11.05,4.925-11.476,4.483-22.525s-8.639-10.614-9.082-21.663a13.714,13.714,0,0,1,.344-3.8,27.867,27.867,0,0,0,2.181-4.581c.106-.279.205-.566.3-.845a28.429,28.429,0,1,0-53.942,0c.09.279.189.549.288.828l.007.008a28.249,28.249,0,0,0,2.189,4.607,13.859,13.859,0,0,1,.336,3.778c-.443,11.049-8.63,10.615-9.073,21.663s4.483,11.475,4.483,22.525c0,4.483-2.2,7.508-4.417,10.607-2.2,3.106-4.4,6.286-4.4,11.056a24.773,24.773,0,0,0,24.778,24.778h25.573a24.767,24.767,0,0,0,24.77-24.778c0-4.77-2.2-7.95-4.4-11.056Z" fill="#40327a"/>
    <path id="Trazado_4535" data-name="Trazado 4535" d="M3768.506,5093.8a17.783,17.783,0,1,0,17.784-17.783,17.784,17.784,0,0,0-17.784,17.783Z" fill="#f04f4f"/>
    <path id="Trazado_4536" data-name="Trazado 4536" d="M3694.193,5049.819a3.824,3.824,0,1,1,3.935,3.71,3.825,3.825,0,0,1-3.935-3.71Z" fill="#ff95a9"/>
    <path id="Trazado_4537" data-name="Trazado 4537" d="M3765.916,5037.716a9.943,9.943,0,1,0,9.943-9.944,9.944,9.944,0,0,0-9.943,9.944Z" fill="#ff9c35"/>
    <path id="Trazado_4538" data-name="Trazado 4538" d="M3690.385,5043.332v0a5.352,5.352,0,1,0-1.43,10.46l9.174-.268,1.022-7.476-8.765-2.721Z" fill="#ff95a9"/>
    <path id="Trazado_4539" data-name="Trazado 4539" d="M3740.7,5065.547a7.225,7.225,0,1,0,9.579-3.554,7.225,7.225,0,0,0-9.579,3.554Z" fill="#ffc359"/>
    <path id="Trazado_4540" data-name="Trazado 4540" d="M3768.135,5031.441l-26.478,32.567,10.583,9.794,30.46-28.882-14.565-13.479Z" fill="#ffc359"/>
    <path id="Trazado_4541" data-name="Trazado 4541" d="M3749.4,5061.656l-50.258-15.6-2.724,7.13,47.836,21.944,5.146-13.471Z" fill="#ff95a9"/>
    <path id="Trazado_4542" data-name="Trazado 4542" d="M3785.337,5277.367a4.971,4.971,0,1,1-4.972-4.971,4.972,4.972,0,0,1,4.972,4.971Z" fill="#ff95a9"/>
    <path id="Trazado_4543" data-name="Trazado 4543" d="M3765.932,5038.175l2.574,55.621h35.567l14.7-58.412a6.119,6.119,0,0,0-5.934-7.612h-36.973a9.944,9.944,0,0,0-9.933,10.4Z" fill="#ffc359"/>
    <path id="Trazado_4544" data-name="Trazado 4544" d="M3808.188,5077.446l-1.483-.373.369-1.469,1.484.374-.37,1.468Z" fill="#fff"/>
    <path id="Trazado_4545" data-name="Trazado 4545" d="M3809.231,5073.3l-1.483-.374,5.95-23.647,1.483.374-5.951,23.647Z" fill="#fff"/>
    <path id="Trazado_4546" data-name="Trazado 4546" d="M3783.074,5030.863a9.943,9.943,0,1,1-14.057-.374,9.943,9.943,0,0,1,14.057.374Z" fill="#ffc359"/>
    <path id="Trazado_4547" data-name="Trazado 4547" d="M3768.506,5093.8h35.567l1.918,1.49a26.485,26.485,0,0,1,10.234,20.913v7.65a10.708,10.708,0,0,1-10.708,10.708h-30.889a10.708,10.708,0,0,1-10.708-10.708v-10.476a44.078,44.078,0,0,1,4.585-19.576Z" fill="#7760db"/>
    <path id="Trazado_4548" data-name="Trazado 4548" d="M3789.058,5045.1l-15.851-12.018-12.71,16.757.009.007a9.934,9.934,0,1,0,15.832,12l.009.007,12.711-16.757Z" fill="#ffc359"/>
    <path id="Trazado_4549" data-name="Trazado 4549" d="M3770.047,5039.778l-1.219-.925.964-1.271,1.219.925-.964,1.271Z" fill="#fff"/>
    <path id="Trazado_4550" data-name="Trazado 4550" d="M3768.419,5065.791a9.928,9.928,0,0,1-7.913-15.946l7.017-9.27,1.219.924-7.017,9.27a8.4,8.4,0,0,0,11.455,12l.866,1.261a9.9,9.9,0,0,1-5.627,1.758Z" fill="#fff"/>
    <path id="Trazado_4551" data-name="Trazado 4551" d="M3790.648,5065.791a10,10,0,0,1-5.825-1.883l.9-1.24a8.412,8.412,0,0,0,9.692.1l.866,1.261a9.908,9.908,0,0,1-5.628,1.758Z" fill="#fff"/>
    <path id="Trazado_4552" data-name="Trazado 4552" d="M3806.486,5099.9a3.824,3.824,0,1,0,2.246-4.92,3.824,3.824,0,0,0-2.246,4.92Z" fill="#ff95a9"/>
    <path id="Trazado_4553" data-name="Trazado 4553" d="M3821.106,5042.742a9.943,9.943,0,1,1-3.553-13.6,9.944,9.944,0,0,1,3.553,13.6Z" fill="#ffc359"/>
    <path id="Trazado_4554" data-name="Trazado 4554" d="M3803.878,5108.221a5.344,5.344,0,0,0,1.524-.882l0,.005,7.093-5.825-3.765-6.539-8.6,3.209a5.354,5.354,0,1,0,3.745,10.032Z" fill="#ff95a9"/>
    <path id="Trazado_4555" data-name="Trazado 4555" d="M3842.6,5066.707a7.225,7.225,0,1,1,10.2-.657,7.225,7.225,0,0,1-10.2.657Z" fill="#ffc359"/>
    <path id="Trazado_4556" data-name="Trazado 4556" d="M3818.628,5029.864l33.176,25.71-8.086,11.94-36.218-21.219,11.128-16.431Z" fill="#ffc359"/>
    <path id="Trazado_4557" data-name="Trazado 4557" d="M3821.975,5054.775l-11.744-6.881.772-1.32,11.744,6.881-.772,1.319Z" fill="#fff"/>
    <path id="Trazado_4558" data-name="Trazado 4558" d="M3852.131,5066.716l-39.542,34.724-5.392-5.4,34.747-39.528,10.188,10.206Z" fill="#ff95a9"/>
    <path id="Trazado_4559" data-name="Trazado 4559" d="M3817.94,5096.742l-6.042-6.054,30.046-34.181,10.19,10.21-34.194,30.025Z" fill="#ffc359"/>
    <path id="Trazado_4560" data-name="Trazado 4560" d="M3705.944,5048.161l-3.052,7.992,41.364,18.975,5.147-13.476-43.459-13.491Z" fill="#ffc359"/>
    <path id="Trazado_4561" data-name="Trazado 4561" d="M3785.337,5123.847a10.708,10.708,0,1,1-10.708-10.708,10.708,10.708,0,0,1,10.708,10.708Z" fill="#7760db"/>
    <path id="Trazado_4562" data-name="Trazado 4562" d="M3816.179,5122.853a10.708,10.708,0,1,1-11.655-9.669,10.708,10.708,0,0,1,11.655,9.669Z" fill="#7760db"/>
    <path id="Trazado_4563" data-name="Trazado 4563" d="M3775.394,5277.367h9.944v6.884h-13.932a2.132,2.132,0,0,1-2.131-2.132h0a2.132,2.132,0,0,1,1.069-1.848l5.05-2.9Z" fill="#40327a"/>
    <path id="Trazado_4564" data-name="Trazado 4564" d="M3819.022,5277.367a4.971,4.971,0,1,1-4.971-4.971,4.971,4.971,0,0,1,4.971,4.971Z" fill="#ff95a9"/>
    <path id="Trazado_4565" data-name="Trazado 4565" d="M3817.22,5178.365l1.781,98.411-9.9.922-9.107-97.729,17.227-1.6Z" fill="#ff95a9"/>
    <path id="Trazado_4566" data-name="Trazado 4566" d="M3794.855,5124.84l5.137,55.13,17.238-.954-1.007-55.358-21.368,1.182Z" fill="#7760db"/>
    <path id="Trazado_4567" data-name="Trazado 4567" d="M3785.337,5179.215a8.651,8.651,0,1,1-8.651-8.65,8.651,8.651,0,0,1,8.651,8.65Z" fill="#ff95a9"/>
    <path id="Trazado_4568" data-name="Trazado 4568" d="M3785.336,5179.215v98.152h-9.943l-7.358-98.152Z" fill="#ff95a9"/>
    <path id="Trazado_4569" data-name="Trazado 4569" d="M3785.336,5123.847v55.368l-17.276.651-4.11-55.213,21.386-.806Z" fill="#7760db"/>
    <path id="Trazado_4570" data-name="Trazado 4570" d="M3768.06,5179.866h49.186l-1.051-55.213H3763.95l4.11,55.213Z" fill="#7760db"/>
    <path id="Trazado_4571" data-name="Trazado 4571" d="M3766.481,5158.643l-2.469-33.168,1.525-.113,2.47,33.169-1.525.113Z" fill="#40327a"/>
    <path id="Trazado_4572" data-name="Trazado 4572" d="M3779.419,5179.866H3768.06l-1.58-21.223,1.525-.113,1.475,19.807h9.939v1.529Z" fill="#40327a"/>
    <path id="Trazado_4573" data-name="Trazado 4573" d="M3794.855,5179.866h-15.436v-1.529h15.436v1.529Z" fill="#40327a"/>
    <path id="Trazado_4574" data-name="Trazado 4574" d="M3815.649,5176.316l-.544-28.588,1.53-.029.544,28.588-1.53.029Z" fill="#40327a"/>
    <path id="Trazado_4575" data-name="Trazado 4575" d="M3815.07,5145.88l-.054-2.836,1.53-.029.054,2.836-1.53.029Z" fill="#40327a"/>
    <path id="Trazado_4576" data-name="Trazado 4576" d="M3797.741,5028.411a8.413,8.413,0,1,1-7.741-9.036,8.413,8.413,0,0,1,7.741,9.036Z" fill="#ff95a9"/>
    <path id="Trazado_4577" data-name="Trazado 4577" d="M3780.964,5027.116l16.777,1.295,1.595-20.659-16.777-1.295-1.595,20.659Z" fill="#ff95a9"/>
    <path id="Trazado_4578" data-name="Trazado 4578" d="M3785.64,4971.665l1.305.1a15.123,15.123,0,0,1,13.914,16.243l-2.192,28.405-15.795-1.219a14.4,14.4,0,0,1-13.254-15.471l1.183-15.348a13.817,13.817,0,0,1,14.839-12.711Z" fill="#ff95a9"/>
    <path id="Trazado_4579" data-name="Trazado 4579" d="M3800.674,4999.555l-3.507-.271.542-7.014,3.506.271a3.516,3.516,0,0,1,3.236,3.778h0a3.517,3.517,0,0,1-3.777,3.236Z" fill="#ff95a9"/>
    <path id="Trazado_4580" data-name="Trazado 4580" d="M3800.514,4992.487l.7.054,1.564-20.259-30.86-2.381-.8,10.379.7.055a27.518,27.518,0,0,1,16.117,6.825h0a21.48,21.48,0,0,0,12.577,5.327Z" fill="#40327a"/>
    <path id="Trazado_4581" data-name="Trazado 4581" d="M3819.022,5277.367h-9.943v6.884h13.931a2.132,2.132,0,0,0,2.132-2.132h0a2.132,2.132,0,0,0-1.069-1.848l-5.051-2.9Z" fill="#40327a"/>
    <path id="Trazado_4582" data-name="Trazado 4582" d="M3785.022,5003.859a4.207,4.207,0,1,1-8.382-.724l8.382.724Z" fill="#fff"/>
  </g>
</svg>
