<svg xmlns="http://www.w3.org/2000/svg" width="179.969" height="179.969" viewBox="0 0 179.969 179.969">
  <g id="Grupo_8789" data-name="Grupo 8789" transform="translate(-910.25 -4609.625)">
    <path id="Trazado_2155" data-name="Trazado 2155" d="M1090.219,4699.609a89.984,89.984,0,1,1-89.985-89.984,89.985,89.985,0,0,1,89.985,89.984Zm0,0" fill="#5fc6ff"/>
    <path id="Trazado_2156" data-name="Trazado 2156" d="M974.812,4739.682c0,2.562-7.753,4.639-17.318,4.639s-17.318-2.077-17.318-4.639,7.754-4.639,17.318-4.639,17.318,2.078,17.318,4.639Zm68.785-2.8c-9.564,0-17.317,2.078-17.317,4.64s7.753,4.638,17.317,4.638,17.317-2.075,17.317-4.638-7.753-4.64-17.317-4.64Zm-43.363,29.233c-10.871,0-19.684,2.361-19.684,5.273s8.813,5.272,19.684,5.272,19.684-2.361,19.684-5.272-8.813-5.273-19.684-5.273Zm0,0" fill="#3ba9f4"/>
    <path id="Trazado_2157" data-name="Trazado 2157" d="M1044.467,4623.234a45.753,45.753,0,0,0-30.863,79.528q2.246,2.053,4.413,4.185c.439.43.862.875,1.3,1.31.993.994,1.983,1.992,2.949,3.01a155.208,155.208,0,0,1,20.615,26.967l.422.7a1.361,1.361,0,0,0,2.334,0,160.839,160.839,0,0,1,21.1-27.67c.926-.981,1.877-1.94,2.827-2.9.49-.5.968-1,1.464-1.49q2.182-2.153,4.436-4.233a45.753,45.753,0,0,0-30.99-79.411Z" fill="#a5d130"/>
    <path id="Trazado_2158" data-name="Trazado 2158" d="M1080.5,4668.639a35.162,35.162,0,1,1-35.161-35.163,35.161,35.161,0,0,1,35.161,35.163Zm0,0" fill="#c0e54c"/>
    <path id="Trazado_2159" data-name="Trazado 2159" d="M1001.517,4663.338a45.754,45.754,0,0,0-91.266,4.378q-.008,1.265.052,2.514a45.621,45.621,0,0,0,14.836,31.561q2.237,2.044,4.393,4.165c.5.49.983,1,1.477,1.493.927.931,1.854,1.862,2.757,2.814a155.169,155.169,0,0,1,20.646,27l.424.7a1.361,1.361,0,0,0,2.334,0,160.82,160.82,0,0,1,21.092-27.668c.955-1.01,1.934-2,2.914-2.987.458-.462.9-.935,1.367-1.391q2.188-2.16,4.449-4.247a45.807,45.807,0,0,0,14.525-38.336Z" fill="#f7b126"/>
    <path id="Trazado_2160" data-name="Trazado 2160" d="M992.032,4667.669a35.161,35.161,0,1,1-35.161-35.164,35.162,35.162,0,0,1,35.161,35.164Zm0,0" fill="#ffe266"/>
    <path id="Trazado_2161" data-name="Trazado 2161" d="M1053.535,4706.308c.07-.134.137-.269.2-.4a59.747,59.747,0,0,0-71.65-84.169c-.032.01-.06.027-.092.037a59.957,59.957,0,0,0-22.19,101.362q4.949,4.527,9.614,9.338a204.105,204.105,0,0,1,28.731,37.128l.552.921a1.783,1.783,0,0,0,3.058,0,211.406,211.406,0,0,1,29.422-38.119q4.684-4.842,9.644-9.422a60.164,60.164,0,0,0,11.532-14.512c.02-.035.045-.065.065-.1C1052.809,4707.692,1053.176,4707,1053.535,4706.308Z" fill="#dd2a44"/>
    <path id="Trazado_2162" data-name="Trazado 2162" d="M1044.523,4678.687a44.289,44.289,0,1,1-44.289-44.289,44.289,44.289,0,0,1,44.289,44.289Zm0,0" fill="#44bfd7"/>
    <path id="Trazado_2163" data-name="Trazado 2163" d="M1043.064,4671.2a35.25,35.25,0,1,1-35.249-35.156,35.2,35.2,0,0,1,35.249,35.156Zm0,0" fill="#7cd2e3"/>
    <path id="Trazado_2164" data-name="Trazado 2164" d="M1000.234,4631.775a46.914,46.914,0,1,0,46.913,46.912,46.965,46.965,0,0,0-46.913-46.912Zm0,90.312c-3.739,0-7.554-4.406-10.468-12.092-.412-1.085-.8-2.221-1.162-3.4h23.261c-.363,1.177-.751,2.313-1.163,3.4-2.914,7.686-6.729,12.092-10.468,12.092Zm-12.61-19a100.642,100.642,0,0,1-2.748-22.637h30.716a100.639,100.639,0,0,1-2.748,22.637Zm-30.753-22.637h24.49a105.407,105.407,0,0,0,2.645,22.637H964.357a43.136,43.136,0,0,1-7.486-22.637Zm43.363-45.155c3.739,0,7.554,4.406,10.468,12.092.412,1.086.8,2.221,1.163,3.4H988.6c.362-1.177.75-2.312,1.162-3.4,2.914-7.686,6.729-12.092,10.468-12.092Zm12.61,19a100.621,100.621,0,0,1,2.748,22.635H984.876a100.624,100.624,0,0,1,2.748-22.635Zm-31.483,22.635h-24.49a43.135,43.135,0,0,1,7.486-22.635h19.649a105.4,105.4,0,0,0-2.645,22.635Zm37.746,3.515h24.49a43.136,43.136,0,0,1-7.486,22.637h-19.649a105.4,105.4,0,0,0,2.645-22.637Zm0-3.515a105.4,105.4,0,0,0-2.645-22.635h19.649a43.135,43.135,0,0,1,7.486,22.635Zm14.336-26.15h-17.909q-.707-2.432-1.545-4.645a32.988,32.988,0,0,0-5.669-10.089,43.417,43.417,0,0,1,25.123,14.734Zm-41.295-14.734a32.965,32.965,0,0,0-5.668,10.089q-.838,2.208-1.546,4.645H967.025a43.42,43.42,0,0,1,25.123-14.734ZM967.025,4706.6h17.909q.709,2.433,1.546,4.645a32.976,32.976,0,0,0,5.668,10.089,43.42,43.42,0,0,1-25.123-14.734Zm41.295,14.734a33,33,0,0,0,5.669-10.089q.837-2.208,1.545-4.645h17.909a43.417,43.417,0,0,1-25.123,14.734Zm0,0" fill="#269ab1"/>
  </g>
</svg>
