<svg xmlns="http://www.w3.org/2000/svg" width="179.968" height="179.969" viewBox="0 0 179.968 179.969">
  <g id="Grupo_8790" data-name="Grupo 8790" transform="translate(-349.782 -4988.756)">
    <path id="Trazado_2165" data-name="Trazado 2165" d="M350.971,5093.41a90.627,90.627,0,0,1-1.186-13.877c-.428-49.633,40.346-90.777,89.981-90.777a90.072,90.072,0,0,1,88.4,106.9,19.612,19.612,0,0,1-19.307,15.854H372.413a21.689,21.689,0,0,1-21.442-18.095Zm0,0" fill="#5fc6ff"/>
    <path id="Trazado_2166" data-name="Trazado 2166" d="M378.334,5086.953a90.568,90.568,0,0,1-20.417,18.923,2.947,2.947,0,0,1-4.463-1.606,89.685,89.685,0,0,1-2.66-11.984,19.451,19.451,0,0,1,13.407-5.333Zm0,0" fill="#8ab512"/>
    <path id="Trazado_2167" data-name="Trazado 2167" d="M433.9,5106.469v25.264c0,19.314-19.413,32.78-37.4,25.735a13.768,13.768,0,0,1-1.9-.882,90.2,90.2,0,0,1-41.344-52.99,19.52,19.52,0,0,1,19.3-16.643h41.82a19.514,19.514,0,0,1,19.515,19.516Zm0,0" fill="#a5d130"/>
    <path id="Trazado_2168" data-name="Trazado 2168" d="M409.866,5085.071l-12.428,21.3a.7.7,0,0,1-1.216,0l-6.32-10.83a.7.7,0,0,0-1.213,0l-6.32,10.83a.7.7,0,0,1-1.216,0l-12.429-21.3a.7.7,0,0,1,.606-1.058h39.928a.7.7,0,0,1,.608,1.058Zm0,0" fill="#fcf2b6"/>
    <path id="Trazado_2169" data-name="Trazado 2169" d="M424.421,5028.745v27.54H354.164v-29.627a1.318,1.318,0,0,1,1.011-1.282l49.93-11.887a15.684,15.684,0,0,1,19.316,15.256Zm0,0" fill="#ff9f22"/>
    <path id="Trazado_2170" data-name="Trazado 2170" d="M365.593,5052.1v2.788a6.969,6.969,0,1,1-13.939,0V5052.1a6.969,6.969,0,0,1,13.939,0Zm0,0" fill="#ffbeaa"/>
    <path id="Trazado_2171" data-name="Trazado 2171" d="M355.836,5050.71v5.575a6.958,6.958,0,0,0,2.788,5.576,6.971,6.971,0,0,1-6.97-6.97V5052.1a6.97,6.97,0,0,1,6.97-6.969,6.959,6.959,0,0,0-2.788,5.576Zm33.457-41.819a30.667,30.667,0,0,0-30.669,30.666v11.153a30.68,30.68,0,0,0,22.3,29.512v9.52a8.363,8.363,0,0,0,16.727,0v-9.52a30.68,30.68,0,0,0,22.3-29.512v-11.153a30.667,30.667,0,0,0-30.666-30.666Zm0,0" fill="#faa68e"/>
    <path id="Trazado_2172" data-name="Trazado 2172" d="M419.959,5039.557v11.153a30.681,30.681,0,0,1-22.642,29.607,14.751,14.751,0,0,1-7.686,0,30.681,30.681,0,0,1-22.642-29.607v-11.153a30.674,30.674,0,0,1,26.485-30.385,30.674,30.674,0,0,1,26.485,30.385Zm0,0" fill="#ffbeaa"/>
    <path id="Trazado_2173" data-name="Trazado 2173" d="M385.25,5052.586a2.091,2.091,0,1,1,2.957-2.958,1.527,1.527,0,0,0,2.171,0,2.091,2.091,0,1,1,2.957,2.958,5.713,5.713,0,0,1-8.085,0Zm12.489,7.695a2.091,2.091,0,0,0-2.956,0,7.774,7.774,0,0,1-10.983,0,2.091,2.091,0,1,0-2.957,2.957,11.957,11.957,0,0,0,16.9,0,2.09,2.09,0,0,0,0-2.957Zm0,0" fill="#e09380"/>
    <path id="Trazado_2174" data-name="Trazado 2174" d="M380.23,5041.648a4.182,4.182,0,1,1-4.181-4.181,4.179,4.179,0,0,1,4.181,4.181Zm22.3-4.181a4.181,4.181,0,1,0,4.181,4.181,4.182,4.182,0,0,0-4.181-4.181Zm0,0" fill="#4c2c21"/>
    <path id="Trazado_2175" data-name="Trazado 2175" d="M380.928,5039.557a2.091,2.091,0,1,1-2.091-2.09,2.091,2.091,0,0,1,2.091,2.09Zm24.395-2.09a2.091,2.091,0,1,0,2.09,2.09,2.089,2.089,0,0,0-2.09-2.09Zm0,0" fill="#fff5f5"/>
    <path id="Trazado_2176" data-name="Trazado 2176" d="M398.77,5015.86a15.334,15.334,0,0,1-15.332,15.335H358.345a4.181,4.181,0,0,1-4.181-4.182,26.486,26.486,0,0,1,26.485-26.487h2.789a15.333,15.333,0,0,1,15.332,15.334Zm0,0" fill="#ff9f22"/>
    <path id="Trazado_2177" data-name="Trazado 2177" d="M368.1,5015.86a15.334,15.334,0,0,1,15.334-15.334h39.588a1.394,1.394,0,0,1,1.395,1.4,29.275,29.275,0,0,1-29.274,29.274H383.438A15.334,15.334,0,0,1,368.1,5015.86Zm0,0" fill="#ffb52d"/>
    <path id="Trazado_2178" data-name="Trazado 2178" d="M525.016,5029.225v48.807H492.229v-50.184h31.412a1.376,1.376,0,0,1,1.375,1.377Zm0,0" fill="#975c3e"/>
    <path id="Trazado_2179" data-name="Trazado 2179" d="M471.529,5027.848v50.184H454.76v-49.283a.9.9,0,0,1,.9-.9Zm0,0" fill="#804e34"/>
    <path id="Trazado_2180" data-name="Trazado 2180" d="M481.525,5089.183v-6.73a30.681,30.681,0,0,1-22.3-29.513v-11.153a30.668,30.668,0,0,1,61.336,0v5.577a6.97,6.97,0,0,1,6.969,6.969v2.624a7.078,7.078,0,0,1-6.83,7.134,6.941,6.941,0,0,1-2.12-.286,30.744,30.744,0,0,1-20.323,18.648v6.73H514.98a19.645,19.645,0,0,1,2.135.115,4.208,4.208,0,0,1,3.255,6.109,90.07,90.07,0,0,1-66.725,47.86V5108.7a19.516,19.516,0,0,1,19.515-19.516Zm0,0" fill="#d47f6c"/>
    <path id="Trazado_2181" data-name="Trazado 2181" d="M520.557,5041.787v11.153a30.682,30.682,0,0,1-22.643,29.607,14.755,14.755,0,0,1-7.687,0,30.682,30.682,0,0,1-22.643-29.607v-11.153a30.675,30.675,0,0,1,26.485-30.383,30.676,30.676,0,0,1,26.488,30.383Zm0,0" fill="#e09380"/>
    <path id="Trazado_2182" data-name="Trazado 2182" d="M485.846,5054.816a2.091,2.091,0,0,1,2.958-2.956,1.533,1.533,0,0,0,2.17,0,2.091,2.091,0,0,1,2.958,2.956,5.716,5.716,0,0,1-8.086,0Zm12.491,7.7a2.091,2.091,0,0,0-2.957,0,7.775,7.775,0,0,1-10.983,0,2.091,2.091,0,0,0-2.958,2.957,11.96,11.96,0,0,0,16.9,0,2.091,2.091,0,0,0,0-2.957Zm0,0" fill="#b2705b"/>
    <path id="Trazado_2183" data-name="Trazado 2183" d="M480.827,5043.88a4.181,4.181,0,1,1-4.181-4.184,4.182,4.182,0,0,1,4.181,4.184Zm22.3-4.184a4.183,4.183,0,1,0,4.182,4.182,4.181,4.181,0,0,0-4.182-4.182Zm0,0" fill="#5e3a21"/>
    <path id="Trazado_2184" data-name="Trazado 2184" d="M481.525,5041.787a2.091,2.091,0,1,1-2.09-2.091,2.093,2.093,0,0,1,2.09,2.091Zm24.4-2.091a2.092,2.092,0,1,0,2.09,2.091,2.092,2.092,0,0,0-2.09-2.091Zm0,0" fill="#fff5f5"/>
    <path id="Trazado_2185" data-name="Trazado 2185" d="M496.579,5011.121a22.3,22.3,0,0,1-22.3,22.3H458.943a4.182,4.182,0,0,1-4.183-4.181,26.486,26.486,0,0,1,26.487-26.487h6.969a8.364,8.364,0,0,1,8.363,8.365Zm0,0" fill="#804e34"/>
    <path id="Trazado_2186" data-name="Trazado 2186" d="M525.016,5025.521v7.9h-15.8A18.212,18.212,0,0,1,491,5015.212v-1.206a11.249,11.249,0,0,1,11.25-11.25,22.765,22.765,0,0,1,22.763,22.765Zm0,0" fill="#975c3e"/>
    <path id="Trazado_2187" data-name="Trazado 2187" d="M496.947,5148.225l-.09.073a90.121,90.121,0,0,1-13.042,8.926,4.38,4.38,0,0,1-1.582.477,6.9,6.9,0,0,1-7.679-6.9v-36.529h30.668v16.255a22.91,22.91,0,0,1-8.275,17.7Zm0,0" fill="#f49e21"/>
    <path id="Trazado_2188" data-name="Trazado 2188" d="M528.374,5094.5a89.911,89.911,0,0,1-31.517,53.793v-48.176c6.928-1.544,13.367-5.357,18.973-10.921a19.444,19.444,0,0,1,12.544,5.3ZM445.28,5108.7v38.37c8.683,6.961,37.638-1.472,37.638-1.472v-45.475c-6.927-1.544-13.364-5.357-18.972-10.921a19.518,19.518,0,0,0-18.666,19.5Zm0,0" fill="#ffc82e"/>
    <path id="Trazado_2189" data-name="Trazado 2189" d="M465.55,5090.723a19.522,19.522,0,0,0-11.9,17.976v44.15a71.547,71.547,0,0,1-8.365-5.78V5108.7a19.518,19.518,0,0,1,18.666-19.5q.792.786,1.6,1.522Zm0,0" fill="#ffcd71"/>
    <path id="Trazado_2190" data-name="Trazado 2190" d="M402.965,5160.88a89.333,89.333,0,0,1-8.363-4.294v-10.7a19.515,19.515,0,0,1,19.515-19.516h12.475a19.516,19.516,0,0,0-19.516,19.516v13.748s-2.759,1.851-4.111,1.245Zm0,0" fill="#d3d3d8"/>
    <path id="Trazado_2191" data-name="Trazado 2191" d="M483.815,5145.887v11.337a90.164,90.164,0,0,1-80.85,3.656v-14.993a19.516,19.516,0,0,1,19.515-19.516H464.3a19.515,19.515,0,0,1,19.515,19.516Zm0,0" fill="#ececf1"/>
    <path id="Trazado_2192" data-name="Trazado 2192" d="M443.825,5150.051v18.585q-2.019.086-4.059.089-2.936,0-5.826-.185v-18.489a1.977,1.977,0,0,1,1.978-1.976h5.929a1.977,1.977,0,0,1,1.978,1.976Zm0,0" fill="#232e7a"/>
    <path id="Trazado_2193" data-name="Trazado 2193" d="M441.847,5148.768h-5.929a1.977,1.977,0,0,1-1.978-1.977v-11.525a1.978,1.978,0,0,1,1.978-1.977h5.929a1.978,1.978,0,0,1,1.978,1.977v11.525a1.977,1.977,0,0,1-1.978,1.977Zm0,0" fill="#3342ae"/>
    <path id="Trazado_2194" data-name="Trazado 2194" d="M459.163,5125.7l-11.206,19.2a1.405,1.405,0,0,1-2.428,0l-6.32-10.831L432.89,5144.9a1.406,1.406,0,0,1-2.429,0l-11.207-19.2a1.405,1.405,0,0,1,1.214-2.114h37.481a1.406,1.406,0,0,1,1.214,2.114Zm0,0" fill="#d3d3d8"/>
    <path id="Trazado_2195" data-name="Trazado 2195" d="M445.9,5066.85V5095.7h-41.82v-29.568c0-.608.295-1.1.656-1.1h40.086c.595,0,1.078.812,1.078,1.814Zm0,0" fill="#7c3f2c"/>
    <path id="Trazado_2196" data-name="Trazado 2196" d="M474.336,5067.687V5095.7H421.5v-30.668h50.181a2.652,2.652,0,0,1,2.651,2.651Zm0,0" fill="#954c35"/>
    <path id="Trazado_2197" data-name="Trazado 2197" d="M408.541,5101.279a6.969,6.969,0,0,1-6.97-6.97v-2.788a6.969,6.969,0,1,1,13.939,0v2.788a6.968,6.968,0,0,1-6.969,6.97Zm0,0" fill="#ffbeaa"/>
    <path id="Trazado_2198" data-name="Trazado 2198" d="M405.753,5090.128v5.576a6.956,6.956,0,0,0,2.788,5.575,6.969,6.969,0,0,1-6.97-6.97v-2.788a6.971,6.971,0,0,1,6.97-6.97,6.965,6.965,0,0,0-2.788,5.577Zm64.123-5.577v-5.574a30.668,30.668,0,1,0-61.335,0v11.151a30.681,30.681,0,0,0,22.3,29.513v9.518a8.363,8.363,0,1,0,16.727,0v-9.518A30.742,30.742,0,0,0,467.895,5101a6.975,6.975,0,0,0,8.951-6.686v-2.786a6.971,6.971,0,0,0-6.97-6.972Zm0,0" fill="#faa68e"/>
    <path id="Trazado_2199" data-name="Trazado 2199" d="M469.876,5078.977v11.151a30.68,30.68,0,0,1-22.642,29.607,14.71,14.71,0,0,1-7.686,0,30.68,30.68,0,0,1-22.642-29.607v-11.151a30.673,30.673,0,0,1,26.485-30.385,30.673,30.673,0,0,1,26.485,30.385Zm0,0" fill="#ffbeaa"/>
    <path id="Trazado_2200" data-name="Trazado 2200" d="M435.165,5092a2.091,2.091,0,0,1,2.959-2.956,1.531,1.531,0,0,0,2.169,0,2.091,2.091,0,1,1,2.959,2.956,5.717,5.717,0,0,1-8.087,0Zm12.491,7.7a2.09,2.09,0,0,0-2.956,0,7.775,7.775,0,0,1-10.983,0,2.09,2.09,0,0,0-2.957,2.956,11.957,11.957,0,0,0,16.9,0,2.088,2.088,0,0,0,0-2.956Zm0,0" fill="#e09380"/>
    <path id="Trazado_2201" data-name="Trazado 2201" d="M430.147,5081.068a4.181,4.181,0,1,1-4.181-4.184,4.182,4.182,0,0,1,4.181,4.184Zm22.3-4.184a4.183,4.183,0,1,0,4.181,4.184,4.182,4.182,0,0,0-4.181-4.184Zm0,0" fill="#232e7a"/>
    <path id="Trazado_2202" data-name="Trazado 2202" d="M430.845,5078.977a2.092,2.092,0,1,1-2.091-2.093,2.092,2.092,0,0,1,2.091,2.093Zm24.395-2.093a2.092,2.092,0,1,0,2.09,2.093,2.092,2.092,0,0,0-2.09-2.093Zm0,0" fill="#fff5f5"/>
    <path id="Trazado_2203" data-name="Trazado 2203" d="M445.9,5048.308a22.3,22.3,0,0,1-22.3,22.3H408.262a4.183,4.183,0,0,1-4.183-4.181,26.487,26.487,0,0,1,26.487-26.485h6.97a8.362,8.362,0,0,1,8.363,8.362Zm0,0" fill="#7c3f2c"/>
    <path id="Trazado_2204" data-name="Trazado 2204" d="M474.336,5062.709v7.9h-15.8a18.211,18.211,0,0,1-18.211-18.212v-1.206a11.246,11.246,0,0,1,11.248-11.248,22.764,22.764,0,0,1,22.764,22.763Zm0,0" fill="#954c35"/>
    <path id="Trazado_2205" data-name="Trazado 2205" d="M407.321,5116.618H403.2a1.756,1.756,0,0,1-1.757-1.757V5113.1a1.756,1.756,0,0,1,1.757-1.757h4.119a1.756,1.756,0,0,1,1.758,1.757v1.758a1.756,1.756,0,0,1-1.758,1.757Zm53.563,34.092h-4.121a1.758,1.758,0,0,1-1.758-1.757v-1.758a1.758,1.758,0,0,1,1.758-1.757h4.121a1.757,1.757,0,0,1,1.757,1.757v1.758a1.757,1.757,0,0,1-1.757,1.757Zm51.485-39.364h-4.121a1.758,1.758,0,0,1-1.757-1.758v-1.757a1.758,1.758,0,0,1,1.757-1.758h4.121a1.758,1.758,0,0,1,1.758,1.758v1.757a1.758,1.758,0,0,1-1.758,1.758Zm0,0" fill="#ff9f22"/>
    <path id="Trazado_2206" data-name="Trazado 2206" d="M410.672,5116.618h-3.955a2.636,2.636,0,1,1,0-5.272h3.955a1.318,1.318,0,0,1,1.318,1.318v2.637a1.318,1.318,0,0,1-1.318,1.317Zm53.56,34.092h-3.954a2.636,2.636,0,1,1,0-5.272h3.954a1.318,1.318,0,0,1,1.318,1.318v2.636a1.318,1.318,0,0,1-1.318,1.318Zm51.486-39.364h-3.955a2.636,2.636,0,0,1,0-5.273h3.955a1.318,1.318,0,0,1,1.318,1.319v2.636a1.318,1.318,0,0,1-1.318,1.318Zm0,0" fill="#ffc14f"/>
  </g>
</svg>
