<svg xmlns="http://www.w3.org/2000/svg" width="179.969" height="179.969" viewBox="0 0 179.969 179.969">
  <g id="Grupo_8791" data-name="Grupo 8791" transform="translate(-910.25 -4988.756)">
    <path id="Trazado_2207" data-name="Trazado 2207" d="M1090.219,5078.741a89.984,89.984,0,1,1-89.985-89.985,89.985,89.985,0,0,1,89.985,89.985Zm0,0" fill="#5fc6ff"/>
    <path id="Trazado_2208" data-name="Trazado 2208" d="M1057.88,5031.425v40.637a8.8,8.8,0,0,1-8.787,8.788h-45.137c-.284.195-53.269.309-53.269.309a5.279,5.279,0,0,0-5.273,5.272v40.637a1.758,1.758,0,1,1-3.515,0v-40.637a8.8,8.8,0,0,1,8.788-8.787l98.406-.309a5.279,5.279,0,0,0,5.272-5.273v-40.637a1.758,1.758,0,0,1,3.515,0Zm0,0" fill="#0b92dd"/>
    <path id="Trazado_2209" data-name="Trazado 2209" d="M1070,5042.252a2.186,2.186,0,0,1-2.322.1,23.977,23.977,0,0,0-23.076-.023,2.255,2.255,0,0,1-2.4-.107,23.945,23.945,0,1,1,27.8.027Zm0,0" fill="#c0e54c"/>
    <path id="Trazado_2210" data-name="Trazado 2210" d="M1063.836,5040.656a24.005,24.005,0,0,0-19.232,1.676,2.251,2.251,0,0,1-2.4-.107,23.931,23.931,0,0,1,25.688-40.311,23.948,23.948,0,0,0-4.058,38.742Zm0,0" fill="#a5d130"/>
    <path id="Trazado_2211" data-name="Trazado 2211" d="M1055.685,5028.985a6.13,6.13,0,0,0-6.131,6.131v8.121a1.8,1.8,0,0,1-2.477,1.677,23.79,23.79,0,0,1-4.968-2.761v-7.037a6.13,6.13,0,0,1,6.131-6.131Zm0,0" fill="#fcf2b6"/>
    <path id="Trazado_2212" data-name="Trazado 2212" d="M1070.137,5035.116v7.037a23.973,23.973,0,0,1-23.23,2.692v-9.729a6.131,6.131,0,0,1,6.131-6.131h10.968a6.13,6.13,0,0,1,6.131,6.131Zm0,0" fill="#fff5f5"/>
    <path id="Trazado_2213" data-name="Trazado 2213" d="M1057.765,5036.289v10.95a.7.7,0,0,1-.7.7h-2.109a.7.7,0,0,1-.7-.7v-10.95a.7.7,0,0,1,.7-.7h2.109a.7.7,0,0,1,.7.7Zm0,0" fill="#3342ae"/>
    <path id="Trazado_2214" data-name="Trazado 2214" d="M1057.765,5031.031v4.1a.7.7,0,0,1-.7.7h-2.109a.7.7,0,0,1-.7-.7v-4.1a.7.7,0,0,1,.7-.7h2.109a.7.7,0,0,1,.7.7Zm0,0" fill="#232e7a"/>
    <path id="Trazado_2215" data-name="Trazado 2215" d="M1059.7,5008.9v1.758a6.306,6.306,0,0,1-6.305,6.305h-7.4a.7.7,0,0,1-.7-.7v-5.295a4.536,4.536,0,0,1,4.535-4.537h7.4a2.474,2.474,0,0,1,2.473,2.472Zm0,0" fill="#6d472e"/>
    <path id="Trazado_2216" data-name="Trazado 2216" d="M1067.08,5016.258a.7.7,0,0,1-.7.7h-7.406a6.3,6.3,0,0,1-6.3-6.305V5008.9a2.473,2.473,0,0,1,2.472-2.472h7.4a4.537,4.537,0,0,1,4.537,4.537Zm0,0" fill="#7e5a2e"/>
    <path id="Trazado_2217" data-name="Trazado 2217" d="M1062.3,5028.966l-3.131,4.612a.7.7,0,0,1-1.164,0l-1.878-2.766-1.879,2.766a.7.7,0,0,1-1.164,0l-3.13-4.612a.7.7,0,0,1,.58-1.1h11.186a.7.7,0,0,1,.58,1.1Zm0,0" fill="#ffde91"/>
    <path id="Trazado_2218" data-name="Trazado 2218" d="M1067.947,5018.035v.877a2.19,2.19,0,0,1-2.189,2.19,2.227,2.227,0,0,1-.623-.09,9.657,9.657,0,0,1-6.385,5.858v2.99a2.627,2.627,0,1,1-5.254,0v-2.99a9.66,9.66,0,0,1-6.386-5.858,2.216,2.216,0,0,1-.623.09,2.19,2.19,0,0,1-2.189-2.19v-.877a2.189,2.189,0,0,1,2.189-2.189v-1.753a9.635,9.635,0,0,1,19.271,0v1.753a2.189,2.189,0,0,1,2.189,2.189Zm0,0" fill="#faa68e"/>
    <path id="Trazado_2219" data-name="Trazado 2219" d="M1065.758,5014.093v3.505a7.12,7.12,0,1,1-13.611,0v-3.505a7.12,7.12,0,1,1,13.611,0Zm0,0" fill="#ffbeaa"/>
    <path id="Trazado_2220" data-name="Trazado 2220" d="M1054.023,5017.1a1.2,1.2,0,0,1-1.2,1.2h-1.2a1.2,1.2,0,1,1,0-2.4h1.2a1.2,1.2,0,0,1,1.2,1.2Zm6.6-1.2h-1.2a1.2,1.2,0,0,0,0,2.4h1.2a1.2,1.2,0,1,0,0-2.4Zm0,0" fill="#6d472e"/>
    <path id="Trazado_2221" data-name="Trazado 2221" d="M1057.923,5021.418v.121a1.8,1.8,0,0,1-3.6,0v-.121a.479.479,0,0,1,.48-.479h2.64a.479.479,0,0,1,.48.479Zm0,0" fill="#fff5f5"/>
    <path id="Trazado_2222" data-name="Trazado 2222" d="M1058.644,5005.383a6.305,6.305,0,0,1-6.305,6.305h-6.349a.7.7,0,0,1-.7-.7,8.074,8.074,0,0,1,8.072-8.074h2.812a2.474,2.474,0,0,1,2.473,2.472Zm0,0" fill="#6d472e"/>
    <path id="Trazado_2223" data-name="Trazado 2223" d="M1067.08,5010.634v.351a.7.7,0,0,1-.7.7h-3.188a6.3,6.3,0,0,1-6.3-6.305,2.472,2.472,0,0,1,2.472-2.472,7.724,7.724,0,0,1,7.722,7.723Zm0,0" fill="#7e5a2e"/>
    <path id="Trazado_2224" data-name="Trazado 2224" d="M1035.963,5104.2a2.053,2.053,0,0,1,.091,1.994,18.867,18.867,0,0,1-8.655,8.52,2.049,2.049,0,0,1-2.007-.127l-6.124-3.939a36.883,36.883,0,0,1-10.04,4.145L1007.5,5122a2.044,2.044,0,0,1-1.344,1.474,18.871,18.871,0,0,1-12.147-.093,2.05,2.05,0,0,1-1.327-1.51l-1.546-7.111a36.969,36.969,0,0,1-10.026-4.174l-6.329,3.879a2.054,2.054,0,0,1-1.994.092,18.864,18.864,0,0,1-8.52-8.656,2.049,2.049,0,0,1,.126-2.006l3.94-6.124a36.821,36.821,0,0,1-4.145-10.04L956.97,5086a2.043,2.043,0,0,1-1.474-1.344,18.877,18.877,0,0,1,.094-12.145,2.051,2.051,0,0,1,1.51-1.329l7.111-1.543a36.908,36.908,0,0,1,4.174-10.029l-3.879-6.329a2.049,2.049,0,0,1-.092-1.992,18.871,18.871,0,0,1,8.655-8.522,2.046,2.046,0,0,1,2.007.128l6.124,3.938a36.84,36.84,0,0,1,8.99-3.866c3.2-.9,6.564-.33,10.044-.33,20.515,0,36.219,15.586,36.219,36.1,0,3.551.429,6.987-.5,10.241a36.949,36.949,0,0,1-3.867,8.886Zm0,0" fill="#d3d3d8"/>
    <path id="Trazado_2225" data-name="Trazado 2225" d="M1045.929,5078.753a19.159,19.159,0,0,1-1.05,6.214,2.054,2.054,0,0,1-1.511,1.329l-7.111,1.543c-.043.176-.089.348-.135.522a5.9,5.9,0,1,1-11.38-3.1,25.377,25.377,0,0,0-31-31.031,5.9,5.9,0,1,1-3.094-11.382c.2-.053.4-.1.6-.154l1.732-7.214a2.046,2.046,0,0,1,1.343-1.474,18.848,18.848,0,0,1,12.145.1,2.043,2.043,0,0,1,1.329,1.509l1.548,7.123a37.03,37.03,0,0,1,9.992,4.183l6.363-3.9a2.044,2.044,0,0,1,1.992-.094,18.906,18.906,0,0,1,8.522,8.656,2.052,2.052,0,0,1-.128,2.006l-3.96,6.157a36.948,36.948,0,0,1,4.154,10.005l7.228,1.734a2.05,2.05,0,0,1,1.474,1.344,19.093,19.093,0,0,1,.955,5.931Zm0,0" fill="#ececf1"/>
    <path id="Trazado_2226" data-name="Trazado 2226" d="M1014.113,5098.255a2.178,2.178,0,0,1-2.322.1,23.99,23.99,0,0,0-23.076-.022,2.253,2.253,0,0,1-2.4-.108,23.944,23.944,0,1,1,27.8.028Zm0,0" fill="#ffc82e"/>
    <path id="Trazado_2227" data-name="Trazado 2227" d="M1005.83,5096.047a24.039,24.039,0,0,0-17.115,2.288,2.253,2.253,0,0,1-2.4-.108,23.932,23.932,0,0,1,24.962-40.708,23.95,23.95,0,0,0-5.449,38.528Zm0,0" fill="#f7b126"/>
    <path id="Trazado_2228" data-name="Trazado 2228" d="M1003.81,5064.9v10.726a6.306,6.306,0,0,1-6.3,6.305h-7.4a.7.7,0,0,1-.7-.7v-14.265a4.536,4.536,0,0,1,4.535-4.536h7.4a2.473,2.473,0,0,1,2.474,2.473Zm0,0" fill="#804e34"/>
    <path id="Trazado_2229" data-name="Trazado 2229" d="M1011.191,5081.229a.7.7,0,0,1-.7.7h-7.4a6.3,6.3,0,0,1-6.3-6.3V5064.9a2.471,2.471,0,0,1,2.472-2.471h7.4a4.536,4.536,0,0,1,4.537,4.536Zm0,0" fill="#975c3e"/>
    <path id="Trazado_2230" data-name="Trazado 2230" d="M999.8,5084.987a6.122,6.122,0,0,0-5.14,2.79,9.865,9.865,0,0,1-2.3-2.79Zm0,0" fill="#e09380"/>
    <path id="Trazado_2231" data-name="Trazado 2231" d="M1014.248,5091.118v7.04a23.982,23.982,0,0,1-23.23,2.689v-9.729a6.131,6.131,0,0,1,6.131-6.131h.458v-2.115a9.652,9.652,0,0,1-6.385-5.858,2.191,2.191,0,0,1-2.812-2.1v-.875a2.189,2.189,0,0,1,2.189-2.191v-1.75a9.635,9.635,0,1,1,19.27,0v1.75a2.19,2.19,0,0,1,2.19,2.191v.875a2.189,2.189,0,0,1-2.19,2.19,2.162,2.162,0,0,1-.622-.09,9.656,9.656,0,0,1-6.386,5.858v2.115h5.256a6.131,6.131,0,0,1,6.131,6.131Zm0,0" fill="#d47f6c"/>
    <path id="Trazado_2232" data-name="Trazado 2232" d="M1009.869,5070.1v3.5a7.12,7.12,0,1,1-13.611,0v-3.5a7.12,7.12,0,1,1,13.611,0Zm0,0" fill="#e09380"/>
    <path id="Trazado_2233" data-name="Trazado 2233" d="M998.134,5073.1a1.2,1.2,0,0,1-1.2,1.2h-1.2a1.2,1.2,0,1,1,0-2.4h1.2a1.2,1.2,0,0,1,1.2,1.2Zm6.6-1.2h-1.2a1.2,1.2,0,0,0,0,2.4h1.2a1.2,1.2,0,1,0,0-2.4Zm0,0" fill="#6d472e"/>
    <path id="Trazado_2234" data-name="Trazado 2234" d="M1002.034,5077.421v.12a1.8,1.8,0,0,1-3.6,0v-.12a.479.479,0,0,1,.48-.48h2.64a.479.479,0,0,1,.48.48Zm0,0" fill="#fff5f5"/>
    <path id="Trazado_2235" data-name="Trazado 2235" d="M1002.755,5061.387a6.3,6.3,0,0,1-6.3,6.3H990.1a.7.7,0,0,1-.7-.7,8.073,8.073,0,0,1,8.072-8.073h2.812a2.473,2.473,0,0,1,2.473,2.473Zm0,0" fill="#804e34"/>
    <path id="Trazado_2236" data-name="Trazado 2236" d="M1011.191,5066.636v.351a.7.7,0,0,1-.7.7H1007.3a6.3,6.3,0,0,1-6.3-6.3,2.471,2.471,0,0,1,2.471-2.473,7.723,7.723,0,0,1,7.722,7.722Zm0,0" fill="#975c3e"/>
    <path id="Trazado_2237" data-name="Trazado 2237" d="M1004.872,5090.437v11.8a24.162,24.162,0,0,1-9.275,0v-11.8Zm0,0" fill="#ffcd71"/>
    <path id="Trazado_2238" data-name="Trazado 2238" d="M1014.248,5091.118v7.04a23.826,23.826,0,0,1-11.493,4.4v-14.635a10.828,10.828,0,0,0,5.192-2.931h.17a6.131,6.131,0,0,1,6.131,6.131Zm-21.727-6.131h-.17a6.131,6.131,0,0,0-6.131,6.131v7.04a23.816,23.816,0,0,0,11.387,4.384V5087.89a10.823,10.823,0,0,1-5.086-2.9Zm0,0" fill="#f9648f"/>
    <path id="Trazado_2239" data-name="Trazado 2239" d="M993.644,5085.977a6.128,6.128,0,0,0-2.787,5.141v9.659a23.835,23.835,0,0,1-4.637-2.619v-7.04a6.131,6.131,0,0,1,6.131-6.131h.17a10.8,10.8,0,0,0,1.123.99Zm0,0" fill="#f4456f"/>
    <path id="Trazado_2240" data-name="Trazado 2240" d="M957.872,5154.5a2.178,2.178,0,0,1-2.321.1,23.987,23.987,0,0,0-23.076-.022,2.25,2.25,0,0,1-2.4-.108,23.944,23.944,0,1,1,27.795.028Zm0,0" fill="#c0e54c"/>
    <path id="Trazado_2241" data-name="Trazado 2241" d="M941.894,5134.981a23.874,23.874,0,0,0,7.3,17.214,24.054,24.054,0,0,0-16.722,2.38,2.25,2.25,0,0,1-2.4-.108,23.932,23.932,0,0,1,24.813-40.785,23.942,23.942,0,0,0-13,21.3Zm0,0" fill="#a5d130"/>
    <path id="Trazado_2242" data-name="Trazado 2242" d="M943.556,5141.227a6.132,6.132,0,0,0-6.131,6.131v8.122a1.8,1.8,0,0,1-2.477,1.676,23.91,23.91,0,0,1-4.968-2.758v-7.04a6.13,6.13,0,0,1,6.131-6.131Zm0,0" fill="#232e7a"/>
    <path id="Trazado_2243" data-name="Trazado 2243" d="M958.008,5147.358v7.04a23.982,23.982,0,0,1-23.23,2.689v-9.729a6.132,6.132,0,0,1,6.131-6.131h10.968a6.13,6.13,0,0,1,6.131,6.131Zm0,0" fill="#2b3894"/>
    <path id="Trazado_2244" data-name="Trazado 2244" d="M947.569,5121.142v4.019a6.3,6.3,0,0,1-6.3,6.3h-7.4a.7.7,0,0,1-.7-.7v-7.557a4.536,4.536,0,0,1,4.534-4.537h7.4a2.473,2.473,0,0,1,2.473,2.473Zm0,0" fill="#7c3f2c"/>
    <path id="Trazado_2245" data-name="Trazado 2245" d="M954.951,5130.763a.7.7,0,0,1-.7.7h-7.406a6.3,6.3,0,0,1-6.3-6.3v-4.019a2.472,2.472,0,0,1,2.471-2.473h7.4a4.538,4.538,0,0,1,4.537,4.537Zm0,0" fill="#954c35"/>
    <path id="Trazado_2246" data-name="Trazado 2246" d="M955.818,5130.278v.877a2.19,2.19,0,0,1-2.812,2.1,9.66,9.66,0,0,1-6.385,5.859v2.989a2.627,2.627,0,1,1-5.254,0v-2.989a9.662,9.662,0,0,1-6.386-5.859,2.19,2.19,0,0,1-2.812-2.1v-.877a2.19,2.19,0,0,1,2.189-2.19v-1.752a9.636,9.636,0,0,1,19.271,0v1.752a2.19,2.19,0,0,1,2.189,2.19Zm0,0" fill="#faa68e"/>
    <path id="Trazado_2247" data-name="Trazado 2247" d="M953.629,5126.336v3.5a7.12,7.12,0,1,1-13.611,0v-3.5a7.12,7.12,0,1,1,13.611,0Zm0,0" fill="#ffbeaa"/>
    <path id="Trazado_2248" data-name="Trazado 2248" d="M941.894,5129.342a1.2,1.2,0,0,1-1.2,1.2h-1.2a1.2,1.2,0,1,1,0-2.4h1.2a1.2,1.2,0,0,1,1.2,1.2Zm6.6-1.2h-1.2a1.2,1.2,0,1,0,0,2.4h1.2a1.2,1.2,0,1,0,0-2.4Zm0,0" fill="#6d472e"/>
    <path id="Trazado_2249" data-name="Trazado 2249" d="M945.793,5133.661v.121a1.8,1.8,0,0,1-3.6,0v-.121a.479.479,0,0,1,.48-.48h2.64a.479.479,0,0,1,.479.48Zm0,0" fill="#fff5f5"/>
    <path id="Trazado_2250" data-name="Trazado 2250" d="M946.515,5117.627a6.305,6.305,0,0,1-6.3,6.3h-6.349a.7.7,0,0,1-.7-.7,8.074,8.074,0,0,1,8.072-8.074h2.812a2.474,2.474,0,0,1,2.473,2.473Zm0,0" fill="#7c3f2c"/>
    <path id="Trazado_2251" data-name="Trazado 2251" d="M954.951,5122.876v.352a.7.7,0,0,1-.7.7H951.06a6.3,6.3,0,0,1-6.3-6.3,2.473,2.473,0,0,1,2.471-2.473,7.724,7.724,0,0,1,7.723,7.722Zm0,0" fill="#954c35"/>
    <path id="Trazado_2252" data-name="Trazado 2252" d="M1000.234,5051.629a27.112,27.112,0,1,0,27.112,27.112,27.142,27.142,0,0,0-27.112-27.112Zm0,50.708a23.6,23.6,0,1,1,23.6-23.6,23.623,23.623,0,0,1-23.6,23.6Zm0,0" fill="#b7b7b7"/>
    <path id="Trazado_2253" data-name="Trazado 2253" d="M1056.123,4995.74a27.111,27.111,0,1,0,27.111,27.112,27.142,27.142,0,0,0-27.111-27.112Zm0,50.708a23.6,23.6,0,1,1,23.6-23.6,23.624,23.624,0,0,1-23.6,23.6Zm-112.129,61.421a27.111,27.111,0,1,0,27.111,27.112,27.142,27.142,0,0,0-27.111-27.112Zm0,50.708a23.6,23.6,0,1,1,23.6-23.6,23.623,23.623,0,0,1-23.6,23.6Zm0,0" fill="#7e9e0b"/>
    <path id="Trazado_2254" data-name="Trazado 2254" d="M1070.053,5108.6a1.758,1.758,0,0,1-2.479-.2l-5.728-6.708a46.787,46.787,0,0,1-46.633,43.739,1.758,1.758,0,0,1,0-3.515,43.268,43.268,0,0,0,43.112-40.257l-6.446,5.507a1.758,1.758,0,1,1-2.283-2.673l9.8-8.372a1.762,1.762,0,0,1,2.479.194l8.372,9.8a1.758,1.758,0,0,1-.2,2.477Zm-84.8-96.553a46.787,46.787,0,0,0-46.631,43.738l-5.728-6.708a1.757,1.757,0,1,0-2.673,2.281l8.37,9.8a1.763,1.763,0,0,0,1.2.609c.046,0,.092.006.139.006a1.757,1.757,0,0,0,1.141-.421l9.8-8.37a1.758,1.758,0,1,0-2.283-2.673l-6.446,5.5a43.268,43.268,0,0,1,43.112-40.256,1.758,1.758,0,1,0,0-3.515Zm0,0" fill="#e9385a"/>
    <path id="Trazado_2255" data-name="Trazado 2255" d="M1011.211,5020.919a1.757,1.757,0,0,1-1.757,1.757h-8.949a1.757,1.757,0,1,1,0-3.515h8.949a1.758,1.758,0,0,1,1.757,1.758Zm-19.332,128.3H982.93a1.758,1.758,0,1,0,0,3.515h8.949a1.758,1.758,0,0,0,0-3.515Zm0,0" fill="#2d6bd6"/>
    <path id="Trazado_2256" data-name="Trazado 2256" d="M1022.73,5013.8a1.758,1.758,0,0,1-1.757,1.758h-20.468a1.758,1.758,0,1,1,0-3.515h20.468a1.756,1.756,0,0,1,1.757,1.757ZM1003.4,5142.1H982.93a1.758,1.758,0,1,0,0,3.515H1003.4a1.758,1.758,0,0,0,0-3.515Zm0,0" fill="#2050bc"/>
  </g>
</svg>
